<svg width="2857" height="88" viewBox="0 0 2857 88" fill="none" xmlns="http://www.w3.org/2000/svg">
<circle cx="144.182" cy="42.3289" r="2.1819" fill="#E383A8"/>
<circle cx="243.51" cy="42.5098" r="20.5098" fill="#E383A8"/>
<circle cx="344.001" cy="42.3289" r="24.0009" fill="#A3D5CB"/>
<circle cx="444.437" cy="41.4372" r="24.4372" fill="#E0BCF8"/>
<path fill-rule="evenodd" clip-rule="evenodd" d="M543.874 67.2024C557.611 67.2024 568.747 56.0661 568.747 42.3288C568.747 28.5915 557.611 17.4552 543.874 17.4552C530.136 17.4552 519 28.5915 519 42.3288C519 56.0661 530.136 67.2024 543.874 67.2024ZM543.874 60.984C554.177 60.984 562.529 52.6318 562.529 42.3288C562.529 32.0258 554.177 23.6736 543.874 23.6736C533.571 23.6736 525.218 32.0258 525.218 42.3288C525.218 52.6318 533.571 60.984 543.874 60.984Z" fill="#E0BCF8"/>
<path fill-rule="evenodd" clip-rule="evenodd" d="M643.292 68.0133C657.511 68.0133 669.038 56.4862 669.038 42.2669C669.038 28.0476 657.511 16.5205 643.292 16.5205C629.073 16.5205 617.546 28.0476 617.546 42.2669C617.546 56.4862 629.073 68.0133 643.292 68.0133ZM643.292 66.2969C656.563 66.2969 667.322 55.5383 667.322 42.2669C667.322 28.9955 656.563 18.2369 643.292 18.2369C630.021 18.2369 619.262 28.9955 619.262 42.2669C619.262 55.5383 630.021 66.2969 643.292 66.2969Z" fill="#CC8FF5"/>
<circle cx="647.392" cy="19.5074" r="1.79992" transform="rotate(-93.6072 647.392 19.5074)" fill="#91D2FA"/>
<circle cx="643.76" cy="16.7773" r="1.67518" transform="rotate(-93.6072 643.76 16.7773)" fill="#91D2FA"/>
<circle cx="622.346" cy="27.4299" r="2.1819" fill="#8CE8C3"/>
<circle cx="626.71" cy="24.8117" r="2.1819" fill="#8CE8C3"/>
<circle cx="618.537" cy="49.2017" r="1.79992" transform="rotate(-42.7651 618.537 49.2017)" fill="#CC8EF5"/>
<circle cx="619.708" cy="44.2435" r="1.89137" transform="rotate(-42.7651 619.708 44.2435)" fill="#91D2FA"/>
<circle cx="666.594" cy="51.2069" r="1.79992" transform="rotate(-42.7651 666.594 51.2069)" fill="#8CE8C3"/>
<circle cx="669.093" cy="47.9943" r="1.89137" transform="rotate(-42.7651 669.093 47.9943)" fill="#8CE8C3"/>
<circle cx="664.6" cy="30.4101" r="1.79992" transform="rotate(-42.7651 664.6 30.4101)" fill="#CC8EF5"/>
<circle cx="664.424" cy="25.8699" r="1.67518" transform="rotate(-42.7651 664.424 25.8699)" fill="#CC8EF5"/>
<circle cx="633.21" cy="65.1085" r="1.79992" transform="rotate(-106.312 633.21 65.1085)" fill="#91D2FA"/>
<circle cx="630.18" cy="62.0649" r="1.89137" transform="rotate(-106.312 630.18 62.0649)" fill="#91D2FA"/>
<circle cx="655.213" cy="65.5331" r="2.2217" transform="rotate(-106.312 655.213 65.5331)" fill="#F48EA7"/>
<circle cx="650.439" cy="62.505" r="1.89137" transform="rotate(-106.312 650.439 62.505)" fill="#F48EA7"/>
<path d="M643.945 47.0362C643.826 47.0774 643.631 47.0774 643.512 47.0362C642.5 46.6964 640.237 45.2789 640.237 42.8764C640.237 41.8158 641.107 40.9578 642.178 40.9578C642.814 40.9578 643.361 41.5601 643.713 42.0269C644.066 41.5601 644.647 40.9578 645.278 40.9578C646.35 40.9578 647.219 41.8158 647.219 42.8764C647.219 45.2789 644.957 46.6964 643.945 47.0362Z" fill="#E383A8"/>
<circle cx="849.535" cy="11.8892" r="2.15724" transform="rotate(-93.6072 849.535 11.8892)" fill="#A0C7FA"/>
<circle cx="843.834" cy="12.2975" r="1.71933" transform="rotate(-93.6072 843.834 12.2975)" fill="#B2B8FA"/>
<circle cx="871.272" cy="25.8558" r="2.15724" transform="rotate(-57.8563 871.272 25.8558)" fill="#D396D3"/>
<circle cx="866.407" cy="22.8561" r="1.71933" transform="rotate(-57.8563 866.407 22.8561)" fill="#E1A2A0"/>
<circle cx="872.689" cy="53.3708" r="2.2459" transform="rotate(-15 872.689 53.3708)" fill="#9CDFBB"/>
<circle cx="872.42" cy="47.6152" r="1.71933" transform="rotate(-15 872.42 47.6152)" fill="#B0D5A5"/>
<circle cx="851.776" cy="68.011" r="2.03791" transform="rotate(60 851.776 68.011)" fill="#D391B6"/>
<circle cx="856.767" cy="67.1225" r="1.85812" transform="rotate(60 856.767 67.1225)" fill="#9E98C7"/>
<circle cx="825.924" cy="68.0222" r="2.58415" transform="rotate(76.55 825.924 68.0222)" fill="#96D8E9"/>
<circle cx="832.01" cy="68.1625" r="1.84068" transform="rotate(76.55 832.01 68.1625)" fill="#A0E2CF"/>
<circle cx="811.963" cy="44.1379" r="2.28259" transform="rotate(120 811.963 44.1379)" fill="#96D8E9"/>
<circle cx="815.723" cy="48.7708" r="1.84068" transform="rotate(120 815.723 48.7708)" fill="#8B98F3"/>
<circle cx="821.648" cy="18.9126" r="2.28259" transform="rotate(178.794 821.648 18.9126)" fill="#9BDBC5"/>
<circle cx="820.451" cy="24.529" r="1.84068" transform="rotate(178.794 820.451 24.529)" fill="#B1C2C5"/>
<path d="M844.405 53.1413C844.049 53.2708 843.462 53.2708 843.106 53.1413C840.069 52.0734 833.282 47.6184 833.282 40.0676C833.282 36.7344 835.89 34.0377 839.105 34.0377C841.011 34.0377 842.652 35.9308 843.71 37.3978C844.768 35.9308 846.51 34.0377 848.406 34.0377C851.621 34.0377 854.229 36.7344 854.229 40.0676C854.229 47.6184 847.442 52.0734 844.405 53.1413Z" fill="#E383A8"/>
<circle cx="756.706" cy="67.5353" r="2.2217" transform="rotate(-106.312 756.706 67.5353)" fill="#D391B6"/>
<circle cx="770.849" cy="52.878" r="2.1819" transform="rotate(-27.0781 770.849 52.878)" fill="#8CE8C3"/>
<circle cx="771.574" cy="47.4931" r="2.07172" transform="rotate(-27.0781 771.574 47.4931)" fill="#9CDFBB"/>
<circle cx="769.528" cy="27.1188" r="2.19332" transform="rotate(-81.7049 769.528 27.1188)" fill="#CC8EF5"/>
<circle cx="765.798" cy="23.3893" r="1.98287" transform="rotate(-81.7049 765.798 23.3893)" fill="#D396D3"/>
<circle cx="732.198" cy="67.4644" r="2.16458" transform="rotate(-106.312 732.198 67.4644)" fill="#96D8E9"/>
<circle cx="727.109" cy="65.8664" r="2.28355" transform="rotate(-106.312 727.109 65.8664)" fill="#91D2FA"/>
<circle cx="748.383" cy="13.8294" r="2.15724" transform="rotate(-93.6072 748.383 13.8294)" fill="#91D2FA"/>
<circle cx="743.549" cy="12.6235" r="1.71933" transform="rotate(-93.6072 743.549 12.6235)" fill="#91D2FA"/>
<circle cx="716.063" cy="49.0409" r="1.96371" transform="rotate(-80.4979 716.063 49.0409)" fill="#B091F5"/>
<circle cx="714.041" cy="44.1137" r="2.38699" transform="rotate(-80.4979 714.041 44.1137)" fill="#91D2FA"/>
<circle cx="720.229" cy="24.9035" r="2.1819" transform="rotate(-27.0781 720.229 24.9035)" fill="#8CE8C3"/>
<circle cx="722.923" cy="20.5859" r="2.1819" transform="rotate(-27.0781 722.923 20.5859)" fill="#8CE8C3"/>
<path d="M743.909 49.8802C743.672 49.9626 743.281 49.9626 743.043 49.8802C741.019 49.2007 736.494 46.3657 736.494 41.5606C736.494 39.4395 738.233 37.7234 740.376 37.7234C741.647 37.7234 742.741 38.9281 743.446 39.8616C744.151 38.9281 745.313 37.7234 746.576 37.7234C748.72 37.7234 750.458 39.4395 750.458 41.5606C750.458 46.3657 745.934 49.2007 743.909 49.8802Z" fill="#E383A8"/>
<path fill-rule="evenodd" clip-rule="evenodd" d="M743.913 68.27C758.614 68.27 770.532 56.3522 770.532 41.6509C770.532 26.9495 758.614 15.0317 743.913 15.0317C729.211 15.0317 717.294 26.9495 717.294 41.6509C717.294 56.3522 729.211 68.27 743.913 68.27ZM743.913 66.4954C757.634 66.4954 768.757 55.3722 768.757 41.6509C768.757 27.9296 757.634 16.8064 743.913 16.8064C730.191 16.8064 719.068 27.9296 719.068 41.6509C719.068 55.3722 730.191 66.4954 743.913 66.4954Z" fill="#FBF5FE"/>
<circle cx="751.059" cy="66.2527" r="1.89137" transform="rotate(-106.312 751.059 66.2527)" fill="#F48EA7"/>
<circle cx="949.844" cy="10.1436" r="2.15724" transform="rotate(-93.6072 949.844 10.1436)" fill="#B2B8FA"/>
<circle cx="944.173" cy="12.2972" r="1.71933" transform="rotate(-93.6072 944.173 12.2972)" fill="#C4A4F8"/>
<path d="M944.876 54.8691C944.431 55.0221 943.698 55.0221 943.253 54.8691C939.456 53.607 930.973 48.3421 930.973 39.4183C930.973 35.4791 934.233 32.2921 938.252 32.2921C940.635 32.2921 942.686 34.5294 944.008 36.2632C945.33 34.5294 947.508 32.2921 949.877 32.2921C953.896 32.2921 957.156 35.4791 957.156 39.4183C957.156 48.3421 948.673 53.607 944.876 54.8691Z" fill="#E383A8"/>
<circle cx="973.221" cy="25.6662" r="2.15724" transform="rotate(-57.8563 973.221 25.6662)" fill="#E1A2A0"/>
<circle cx="966.508" cy="23.3168" r="1.71933" transform="rotate(-57.8563 966.508 23.3168)" fill="#EBAD6D"/>
<circle cx="974.743" cy="54.2434" r="2.2459" transform="rotate(-15 974.743 54.2434)" fill="#B0D5A5"/>
<circle cx="972.353" cy="47.4892" r="1.71933" transform="rotate(-15 972.353 47.4892)" fill="#C8C6A0"/>
<circle cx="952.297" cy="69.5222" r="1.69821" transform="rotate(60 952.297 69.5222)" fill="#9E98C7"/>
<circle cx="957.435" cy="67.4813" r="1.48198" transform="rotate(60 957.435 67.4813)" fill="#699EDA"/>
<circle cx="925.4" cy="68.6117" r="1.8935" transform="rotate(76.55 925.4 68.6117)" fill="#A0E2CF"/>
<circle cx="931.899" cy="68.1287" r="1.49273" transform="rotate(76.55 931.899 68.1287)" fill="#A7EDB7"/>
<circle cx="910.527" cy="44.1379" r="2.28259" transform="rotate(120 910.527 44.1379)" fill="#A0E2CF"/>
<circle cx="916.032" cy="48.7708" r="1.84068" transform="rotate(120 916.032 48.7708)" fill="#629CF3"/>
<circle cx="921.085" cy="17.1671" r="2.28259" transform="rotate(178.794 921.085 17.1671)" fill="#B1C2C5"/>
<circle cx="919.888" cy="24.529" r="1.84068" transform="rotate(178.794 919.888 24.529)" fill="#CAADC6"/>
<circle cx="1020.93" cy="16.2255" r="2.21496" transform="rotate(178.794 1020.93 16.2255)" fill="#CAADC6"/>
<circle cx="1021.31" cy="23.4987" r="1.64529" transform="rotate(178.794 1021.31 23.4987)" fill="#E094C5"/>
<circle cx="1051.15" cy="8.74599" r="1.66247" transform="rotate(-93.6072 1051.15 8.74599)" fill="#C4A4F8"/>
<circle cx="1044.63" cy="11.8595" r="1.3094" transform="rotate(-93.6072 1044.63 11.8595)" fill="#D69DF4"/>
<circle cx="1075.84" cy="24.7935" r="2.15724" transform="rotate(-57.8563 1075.84 24.7935)" fill="#EBAD6D"/>
<circle cx="1068.26" cy="22.4093" r="1.71933" transform="rotate(-57.8563 1068.26 22.4093)" fill="#F4BB33"/>
<path d="M1045.91 57.461C1045.38 57.6493 1044.5 57.6493 1043.97 57.461C1039.41 55.9077 1029.23 49.4277 1029.23 38.4447C1029.23 33.5965 1033.14 29.674 1037.96 29.674C1040.82 29.674 1043.28 32.4276 1044.87 34.5614C1046.46 32.4276 1049.07 29.674 1051.91 29.674C1056.74 29.674 1060.65 33.5965 1060.65 38.4447C1060.65 49.4277 1050.47 55.9077 1045.91 57.461Z" fill="#E383A8"/>
<circle cx="1010.21" cy="43.8162" r="2.04705" transform="rotate(120 1010.21 43.8162)" fill="#A7EDB7"/>
<circle cx="1016.23" cy="49.0539" r="1.34385" transform="rotate(120 1016.23 49.0539)" fill="#35A0EF"/>
<circle cx="1024.77" cy="69.913" r="2.22343" transform="rotate(76.55 1024.77 69.913)" fill="#A7EDB7"/>
<circle cx="1032.77" cy="68.1288" r="1.49273" transform="rotate(76.55 1032.77 68.1288)" fill="#B1F69B"/>
<circle cx="1053.54" cy="70.6446" r="2.1544" transform="rotate(60 1053.54 70.6446)" fill="#699EDA"/>
<circle cx="1058.31" cy="67.4815" r="1.48198" transform="rotate(60 1058.31 67.4815)" fill="#699EDA"/>
<circle cx="1077.36" cy="55.1163" r="2.2459" transform="rotate(-15 1077.36 55.1163)" fill="#C8C6A0"/>
<circle cx="1074.1" cy="47.7708" r="1.71933" transform="rotate(-15 1074.1 47.7708)" fill="#E0BE92"/>
<path d="M1145.43 58.3248C1144.87 58.5248 1143.94 58.5248 1143.37 58.3248C1138.56 56.6744 1127.82 49.7894 1127.82 38.1199C1127.82 32.9687 1131.95 28.801 1137.04 28.801C1140.06 28.801 1142.65 31.7267 1144.33 33.9939C1146 31.7267 1148.76 28.801 1151.76 28.801C1156.85 28.801 1160.98 32.9687 1160.98 38.1199C1160.98 49.7894 1150.24 56.6744 1145.43 58.3248Z" fill="#E383A8"/>
<circle cx="1144.62" cy="11.5641" r="1.09095" fill="#D69DF4"/>
<circle cx="1150.73" cy="8.07308" r="1.96371" fill="#D69DF4"/>
<circle cx="1120.18" cy="23.7827" r="1.09095" fill="#DA7BCB"/>
<circle cx="1120.18" cy="15.0551" r="1.96371" fill="#E094C5"/>
<circle cx="1115.4" cy="48.6715" r="1.09095" transform="rotate(-46.2372 1115.4 48.6715)" fill="#38B1E3"/>
<circle cx="1108.78" cy="43.7961" r="1.96371" transform="rotate(-46.2372 1108.78 43.7961)" fill="#B1F69B"/>
<circle cx="1132.46" cy="69.2251" r="1.09095" transform="rotate(-93.1909 1132.46 69.2251)" fill="#B0D5A5"/>
<circle cx="1123.78" cy="71.0179" r="1.96371" transform="rotate(-93.1909 1123.78 71.0179)" fill="#B1F69B"/>
<circle cx="1157.77" cy="68.3523" r="1.09095" transform="rotate(-93.1909 1157.77 68.3523)" fill="#35A0EF"/>
<circle cx="1153.15" cy="71.6195" r="1.67602" transform="rotate(-93.1909 1153.15 71.6195)" fill="#35A0EF"/>
<circle cx="1177.36" cy="54.999" r="2.10294" transform="rotate(-15 1177.36 54.999)" fill="#E0BE92"/>
<circle cx="1173.7" cy="47.6763" r="1.11992" transform="rotate(-15 1173.7 47.6763)" fill="#C8BD90"/>
<circle cx="1175.82" cy="24.4375" r="1.89918" transform="rotate(-57.8563 1175.82 24.4375)" fill="#F4BB33"/>
<circle cx="1167.84" cy="22.5648" r="1.17394" transform="rotate(-57.8563 1167.84 22.5648)" fill="#F7D577"/>
<path d="M1244.89 58.3206C1244.31 58.5265 1243.36 58.5265 1242.78 58.3206C1237.85 56.6216 1226.82 49.5342 1226.82 37.5214C1226.82 32.2187 1231.06 27.9285 1236.28 27.9285C1239.38 27.9285 1242.05 30.9402 1243.76 33.2741C1245.48 30.9402 1248.31 27.9285 1251.39 27.9285C1256.62 27.9285 1260.86 32.2187 1260.86 37.5214C1260.86 49.5342 1249.83 56.6216 1244.89 58.3206Z" fill="#E383A8"/>
<circle cx="1218.96" cy="24.4373" r="0.872759" fill="#C661D3"/>
<circle cx="1218.96" cy="15.7098" r="1.74552" fill="#E094C5"/>
<circle cx="1243.4" cy="12.2187" r="0.872759" fill="#BEBEDD"/>
<circle cx="1250.38" cy="8.7277" r="1.74552" fill="#D69DF4"/>
<circle cx="1214.07" cy="50.0859" r="0.872759" transform="rotate(-56.0738 1214.07 50.0859)" fill="#7DC9CF"/>
<circle cx="1207.42" cy="45.188" r="1.74552" transform="rotate(-56.0738 1207.42 45.188)" fill="#B0D5A5"/>
<circle cx="1267.33" cy="23.0528" r="0.872759" transform="rotate(43.2452 1267.33 23.0528)" fill="#E2D14C"/>
<circle cx="1275.54" cy="25.1591" r="1.74552" transform="rotate(43.2452 1275.54 25.1591)" fill="#F4BB33"/>
<circle cx="1273.19" cy="48.9923" r="0.872759" transform="rotate(98.3629 1273.19 48.9923)" fill="#96C291"/>
<circle cx="1276.8" cy="56.9649" r="1.74552" transform="rotate(98.3629 1276.8 56.9649)" fill="#C8BD90"/>
<circle cx="1257.48" cy="69.0658" r="0.872759" transform="rotate(98.3629 1257.48 69.0658)" fill="#629CF3"/>
<circle cx="1252.36" cy="72.6744" r="1.74552" transform="rotate(98.3629 1252.36 72.6744)" fill="#35A0EF"/>
<circle cx="1231.3" cy="69.9384" r="0.872759" transform="rotate(98.3629 1231.3 69.9384)" fill="#A8A0B7"/>
<circle cx="1222.69" cy="71.7161" r="1.74552" transform="rotate(98.3629 1222.69 71.7161)" fill="#B0D5A5"/>
<path d="M1444.78 56.5925C1444.27 56.7749 1443.41 56.7749 1442.89 56.5925C1438.46 55.0878 1428.56 48.8103 1428.56 38.1705C1428.56 33.4738 1432.37 29.6738 1437.06 29.6738C1439.84 29.6738 1442.23 32.3414 1443.77 34.4085C1445.31 32.3414 1447.85 29.6738 1450.62 29.6738C1455.31 29.6738 1459.11 33.4738 1459.11 38.1705C1459.11 48.8103 1449.21 55.0878 1444.78 56.5925Z" fill="#E383A8"/>
<circle cx="1413.29" cy="50.1837" r="0.436379" fill="#C7EFC4"/>
<circle cx="1414.16" cy="50.1837" r="0.436379" fill="#D8F3CE"/>
<circle cx="1406.31" cy="45.8198" r="0.436379" fill="#A36CCE"/>
<circle cx="1405.44" cy="45.8198" r="0.436379" fill="#DCC7EC"/>
<circle cx="1407.18" cy="45.8198" r="0.436379" fill="#A36CCE"/>
<circle cx="1408.05" cy="45.8198" r="0.436379" fill="#F0DFF7"/>
<circle cx="1408.05" cy="44.9471" r="0.436379" fill="#C6A4E0"/>
<circle cx="1408.05" cy="44.0743" r="0.436379" fill="#DCC7EC"/>
<circle cx="1405.44" cy="44.0743" r="0.436379" fill="#C6A4E0"/>
<circle cx="1406.31" cy="43.2015" r="0.436379" fill="#F0DFF7"/>
<circle cx="1407.18" cy="43.2015" r="0.436379" fill="#F0DFF7"/>
<circle cx="1405.44" cy="44.9471" r="0.436379" fill="#A36CCE"/>
<circle cx="1406.75" cy="44.5107" r="0.872759" fill="#A36CCE"/>
<circle cx="1418.53" cy="24.0008" r="0.436379" fill="#9F32E2"/>
<circle cx="1419.4" cy="24.0008" r="0.436379" fill="#FAF4FD"/>
<circle cx="1417.66" cy="24.0008" r="0.436379" fill="#FAF4FD"/>
<circle cx="1418.53" cy="24.8736" r="0.436379" fill="#F0DFF7"/>
<circle cx="1418.09" cy="15.7097" r="0.872759" fill="#B342DE"/>
<circle cx="1417.66" cy="14.4005" r="0.436379" fill="#B342DE"/>
<circle cx="1418.53" cy="14.4005" r="0.436379" fill="#B342DE"/>
<circle cx="1419.4" cy="14.4005" r="0.436379" fill="#CB7FE9"/>
<circle cx="1419.4" cy="15.2733" r="0.436379" fill="#B342DE"/>
<circle cx="1419.4" cy="16.1461" r="0.436379" fill="#CB7FE9"/>
<circle cx="1417.66" cy="17.0188" r="0.436379" fill="#F5EAFC"/>
<circle cx="1416.78" cy="16.1461" r="0.436379" fill="#F0DFF7"/>
<circle cx="1416.78" cy="15.2733" r="0.436379" fill="#D7A7F1"/>
<circle cx="1418.53" cy="13.5278" r="0.436379" fill="#FAF4FD"/>
<circle cx="1418.53" cy="17.0188" r="0.436379" fill="#F0DFF7"/>
<circle cx="1442.96" cy="11.7822" r="0.436379" fill="#D5F5E7"/>
<circle cx="1443.84" cy="11.7822" r="0.436379" fill="#D5F5E7"/>
<circle cx="1442.96" cy="10.9095" r="0.436379" fill="#F1FBF7"/>
<circle cx="1443.84" cy="10.9095" r="0.436379" fill="#F1FBF7"/>
<circle cx="1450.38" cy="7.85481" r="0.872759" fill="#ADD7CB"/>
<circle cx="1449.07" cy="7.41848" r="0.436379" transform="rotate(180 1449.07 7.41848)" fill="#ADD7CB"/>
<circle cx="1449.07" cy="8.29128" r="0.436379" transform="rotate(180 1449.07 8.29128)" fill="#ADD7CB"/>
<circle cx="1449.07" cy="9.16396" r="0.436379" transform="rotate(180 1449.07 9.16396)" fill="#E8F9F2"/>
<circle cx="1449.95" cy="9.16396" r="0.436379" transform="rotate(180 1449.95 9.16396)" fill="#BCCECE"/>
<circle cx="1450.82" cy="9.16396" r="0.436379" transform="rotate(180 1450.82 9.16396)" fill="#D8E5E1"/>
<circle cx="1451.69" cy="7.41848" r="0.436379" transform="rotate(180 1451.69 7.41848)" fill="#F6FCF9"/>
<circle cx="1450.82" cy="6.54568" r="0.436379" transform="rotate(180 1450.82 6.54568)" fill="#E8F9F2"/>
<circle cx="1449.95" cy="6.54568" r="0.436379" transform="rotate(180 1449.95 6.54568)" fill="#D8E5E1"/>
<circle cx="1449.07" cy="6.54568" r="0.436379" transform="rotate(180 1449.07 6.54568)" fill="#F6FCF9"/>
<circle cx="1451.69" cy="8.29128" r="0.436379" transform="rotate(180 1451.69 8.29128)" fill="#F1FBF7"/>
<circle cx="1467.4" cy="23.1282" r="0.436379" fill="#CBEA8D"/>
<circle cx="1467.4" cy="22.2553" r="0.436379" fill="#F3FBE6"/>
<circle cx="1474.38" cy="24.8736" r="0.436379" fill="#F5E7AA"/>
<circle cx="1477" cy="24.8736" r="0.436379" fill="#D4E068"/>
<circle cx="1474.38" cy="25.7464" r="0.436379" fill="#F3FBE6"/>
<circle cx="1477" cy="25.7464" r="0.436379" fill="#DBF1A5"/>
<circle cx="1475.26" cy="26.6191" r="0.436379" fill="#FDF9F0"/>
<circle cx="1476.13" cy="26.6191" r="0.436379" fill="#F3FBE6"/>
<circle cx="1474.38" cy="24.0008" r="0.436379" fill="#FDF9F0"/>
<circle cx="1475.26" cy="24.0008" r="0.436379" fill="#D4E068"/>
<circle cx="1476.13" cy="24.0008" r="0.436379" fill="#D4E068"/>
<circle cx="1477" cy="24.0008" r="0.436379" fill="#DBF1A5"/>
<circle cx="1475.69" cy="25.31" r="0.872759" fill="#D4E068"/>
<circle cx="1473.51" cy="48.4381" r="0.436379" fill="#2FCB90"/>
<circle cx="1473.51" cy="49.3109" r="0.436379" fill="#CBF0E0"/>
<circle cx="1476.13" cy="56.293" r="0.436379" transform="rotate(-180 1476.13 56.293)" fill="#5FC595"/>
<circle cx="1476.13" cy="57.1657" r="0.436379" transform="rotate(-180 1476.13 57.1657)" fill="#5FC595"/>
<circle cx="1477" cy="58.0385" r="0.436379" transform="rotate(-180 1477 58.0385)" fill="#A0E5C8"/>
<circle cx="1477.88" cy="58.0385" r="0.436379" transform="rotate(-180 1477.88 58.0385)" fill="#CBF0E0"/>
<circle cx="1478.75" cy="56.293" r="0.436379" transform="rotate(-180 1478.75 56.293)" fill="#A0E5C8"/>
<circle cx="1478.75" cy="55.4202" r="0.436379" transform="rotate(-180 1478.75 55.4202)" fill="#F7FDFB"/>
<circle cx="1477.88" cy="55.4202" r="0.436379" transform="rotate(-180 1477.88 55.4202)" fill="#5FC595"/>
<circle cx="1477" cy="55.4202" r="0.436379" transform="rotate(-180 1477 55.4202)" fill="#5FC595"/>
<circle cx="1478.75" cy="57.1657" r="0.436379" transform="rotate(-180 1478.75 57.1657)" fill="#CBF0E0"/>
<circle cx="1476.13" cy="55.4202" r="0.436379" transform="rotate(-180 1476.13 55.4202)" fill="#E5F6F1"/>
<circle cx="1477.44" cy="56.7293" r="0.872759" fill="#5FC595"/>
<circle cx="1456.93" cy="69.3844" r="0.436379" fill="#EDD8FC"/>
<circle cx="1456.93" cy="70.2571" r="0.436379" fill="#F9F1FE"/>
<circle cx="1457.8" cy="69.3844" r="0.436379" fill="#E8CCFB"/>
<circle cx="1457.8" cy="70.2571" r="0.436379" fill="#F7EFFE"/>
<circle cx="1451.69" cy="72.0027" r="0.436379" fill="#EEF0FD"/>
<circle cx="1450.82" cy="72.8753" r="0.436379" fill="#F7F7FB"/>
<circle cx="1453.44" cy="72.8753" r="0.436379" fill="#B6B8F6"/>
<circle cx="1453.44" cy="73.7481" r="0.436379" fill="#B6B8F6"/>
<circle cx="1452.57" cy="74.6208" r="0.436379" fill="#B6B8F6"/>
<circle cx="1451.69" cy="74.6208" r="0.436379" fill="#DDE1F9"/>
<circle cx="1450.82" cy="73.7481" r="0.436379" fill="#F7F7FB"/>
<circle cx="1452.57" cy="72.0027" r="0.436379" fill="#DDE1F9"/>
<circle cx="1452.13" cy="73.3117" r="0.872759" fill="#8B98F3"/>
<circle cx="1430.75" cy="70.2571" r="0.436379" fill="#9F32E2"/>
<circle cx="1430.75" cy="71.1299" r="0.436379" fill="#F5EAFC"/>
<circle cx="1431.62" cy="70.2571" r="0.436379" fill="#F0DFF7"/>
<circle cx="1423.76" cy="72.0027" r="0.436379" fill="#DCC7EC"/>
<circle cx="1422.89" cy="71.1299" r="0.436379" fill="#C6A4E0"/>
<circle cx="1422.89" cy="73.7481" r="0.436379" fill="#C6A4E0"/>
<circle cx="1422.02" cy="73.7481" r="0.436379" fill="#C6A4E0"/>
<circle cx="1421.15" cy="73.7481" r="0.436379" fill="#FAF4FD"/>
<circle cx="1421.15" cy="72.8753" r="0.436379" fill="#A36CCE"/>
<circle cx="1422.46" cy="72.439" r="0.872759" fill="#A36CCE"/>
<circle cx="1421.15" cy="72.0027" r="0.436379" fill="#A36CCE"/>
<circle cx="1421.15" cy="71.1299" r="0.436379" fill="#F0DFF7"/>
<circle cx="1422.02" cy="71.1299" r="0.436379" fill="#A36CCE"/>
<circle cx="1423.76" cy="72.8753" r="0.436379" fill="#DCC7EC"/>
<path d="M1544.27 55.7285C1543.79 55.8992 1543.01 55.8992 1542.54 55.7285C1538.49 54.3208 1529.44 48.4484 1529.44 38.495C1529.44 34.1013 1532.91 30.5465 1537.2 30.5465C1539.74 30.5465 1541.93 33.042 1543.34 34.9758C1544.75 33.042 1547.07 30.5465 1549.6 30.5465C1553.89 30.5465 1557.37 34.1013 1557.37 38.495C1557.37 48.4484 1548.32 54.3208 1544.27 55.7285Z" fill="#E383A8"/>
<circle cx="1513.29" cy="50.1837" r="0.436379" fill="#C7EFC4"/>
<circle cx="1505.44" cy="45.8198" r="0.436379" fill="#D7A7F1"/>
<circle cx="1505.44" cy="44.9471" r="0.436379" fill="#9F32E2"/>
<circle cx="1505.44" cy="44.0743" r="0.436379" fill="#B969EA"/>
<circle cx="1506.31" cy="43.2015" r="0.436379" fill="#F5EAFC"/>
<circle cx="1507.18" cy="45.8198" r="0.436379" fill="#B969EA"/>
<circle cx="1506.31" cy="45.8198" r="0.436379" fill="#9F32E2"/>
<circle cx="1508.05" cy="44.9471" r="0.436379" fill="#F5EAFC"/>
<circle cx="1506.75" cy="44.5107" r="0.872759" fill="#9F32E2"/>
<circle cx="1518.53" cy="16.1461" r="0.436379" fill="#9F32E2"/>
<circle cx="1519.4" cy="16.1461" r="0.436379" fill="#F5EAFC"/>
<circle cx="1516.78" cy="16.1461" r="0.436379" fill="#F5EAFC"/>
<circle cx="1516.78" cy="15.2733" r="0.436379" fill="#D7A7F1"/>
<circle cx="1516.78" cy="14.4005" r="0.436379" fill="#E7CCF8"/>
<circle cx="1517.65" cy="13.5278" r="0.436379" fill="#F5EAFC"/>
<circle cx="1518.53" cy="13.5278" r="0.436379" fill="#F5EAFC"/>
<circle cx="1519.4" cy="14.4005" r="0.436379" fill="#E7CCF8"/>
<circle cx="1519.4" cy="15.2733" r="0.436379" fill="#B969EA"/>
<circle cx="1517.65" cy="16.1461" r="0.436379" fill="#9F32E2"/>
<circle cx="1518.09" cy="14.8369" r="0.872759" fill="#9F32E2"/>
<circle cx="1518.53" cy="24.0008" r="0.436379" fill="#D7A7F1"/>
<circle cx="1517.65" cy="24.0008" r="0.436379" fill="#F5EAFC"/>
<circle cx="1542.96" cy="10.9095" r="0.436379" fill="#F1FBF7"/>
<circle cx="1543.84" cy="10.9095" r="0.436379" fill="#F1FBF7"/>
<circle cx="1549.07" cy="6.54575" r="0.436379" fill="#F1FBF7"/>
<circle cx="1549.07" cy="7.41844" r="0.436379" fill="#ACEACF"/>
<circle cx="1549.07" cy="8.29124" r="0.436379" fill="#BDF0D8"/>
<circle cx="1549.95" cy="9.16404" r="0.436379" fill="#E8F9F2"/>
<circle cx="1549.95" cy="6.54575" r="0.436379" fill="#BDF0D8"/>
<circle cx="1550.82" cy="6.54575" r="0.436379" fill="#D5F5E7"/>
<circle cx="1550.38" cy="7.85481" r="0.872759" fill="#A7EDB7"/>
<circle cx="1567.4" cy="22.2553" r="0.436379" fill="#F3FBE6"/>
<circle cx="1567.4" cy="23.1282" r="0.436379" fill="#F3FBE6"/>
<circle cx="1577" cy="25.7464" r="0.436379" fill="#DBF1A5"/>
<circle cx="1577" cy="24.0008" r="0.436379" fill="#DBF1A5"/>
<circle cx="1575.26" cy="24.0008" r="0.436379" fill="#DBF1A5"/>
<circle cx="1575.26" cy="24.8736" r="0.436379" fill="#CBEA8D"/>
<circle cx="1575.26" cy="25.7464" r="0.436379" fill="#DBF1A5"/>
<circle cx="1576.13" cy="24.0008" r="0.436379" fill="#CBEA8D"/>
<circle cx="1576.13" cy="24.8736" r="0.436379" fill="#CBEA8D"/>
<circle cx="1577" cy="24.8736" r="0.436379" fill="#CBEA8D"/>
<circle cx="1576.13" cy="25.7464" r="0.436379" fill="#CBEA8D"/>
<circle cx="1573.51" cy="48.4381" r="0.436379" fill="#CBF0E0"/>
<circle cx="1573.51" cy="49.3109" r="0.436379" fill="#F7FDFB"/>
<circle cx="1574.38" cy="48.4381" r="0.436379" fill="#F7FDFB"/>
<circle cx="1577.44" cy="56.7293" r="0.872759" fill="#2FCB90"/>
<circle cx="1577" cy="55.4201" r="0.436379" fill="#A0E5C8"/>
<circle cx="1577" cy="58.0384" r="0.436379" fill="#A0E5C8"/>
<circle cx="1576.13" cy="57.1657" r="0.436379" fill="#CBF0E0"/>
<circle cx="1578.75" cy="57.1657" r="0.436379" fill="#A0E5C8"/>
<circle cx="1576.13" cy="56.2929" r="0.436379" fill="#CBF0E0"/>
<circle cx="1578.75" cy="56.2929" r="0.436379" fill="#A0E5C8"/>
<circle cx="1577.88" cy="55.4201" r="0.436379" fill="#A0E5C8"/>
<circle cx="1577.88" cy="58.0384" r="0.436379" fill="#A0E5C8"/>
<circle cx="1557.8" cy="70.2571" r="0.436379" fill="#F6EBFD"/>
<circle cx="1557.8" cy="69.3844" r="0.436379" fill="#FDFAFF"/>
<circle cx="1552.13" cy="73.3117" r="0.872759" fill="#CD91F5"/>
<circle cx="1550.82" cy="72.0027" r="0.436379" fill="#D7A6F7"/>
<circle cx="1551.69" cy="74.6208" r="0.436379" fill="#EDD8FC"/>
<circle cx="1552.57" cy="74.6208" r="0.436379" fill="#DFB7F9"/>
<circle cx="1553.44" cy="74.6208" r="0.436379" fill="#FBF5FE"/>
<circle cx="1553.44" cy="73.7481" r="0.436379" fill="#DFB7F9"/>
<circle cx="1553.44" cy="72.8753" r="0.436379" fill="#F1DFFC"/>
<circle cx="1530.75" cy="70.2571" r="0.436379" fill="#E7CCF8"/>
<circle cx="1530.75" cy="71.1299" r="0.436379" fill="#F0DFF7"/>
<circle cx="1523.76" cy="72.0027" r="0.436379" fill="#FAF4FD"/>
<circle cx="1522.89" cy="71.1299" r="0.436379" fill="#F5EAFC"/>
<circle cx="1522.02" cy="71.1299" r="0.436379" fill="#F2E4FB"/>
<circle cx="1522.02" cy="73.7481" r="0.436379" fill="#B969EA"/>
<circle cx="1522.89" cy="73.7481" r="0.436379" fill="#D7A7F1"/>
<circle cx="1521.15" cy="72.0027" r="0.436379" fill="#B969EA"/>
<circle cx="1521.15" cy="73.7481" r="0.436379" fill="#E7CCF8"/>
<circle cx="1521.15" cy="72.8753" r="0.436379" fill="#9F32E2"/>
<circle cx="1522.46" cy="72.439" r="0.872759" fill="#9F32E2"/>
<circle cx="1523.76" cy="72.8753" r="0.436379" fill="#F5EAFC"/>
<path d="M2445.12 53.4406C2444.77 53.5721 2444.18 53.5721 2443.82 53.4406C2440.79 52.356 2434 47.8312 2434 40.162C2434 36.7766 2436.61 34.0376 2439.82 34.0376C2441.73 34.0376 2443.37 35.9604 2444.43 37.4504C2445.49 35.9604 2447.23 34.0376 2449.12 34.0376C2452.34 34.0376 2454.95 36.7766 2454.95 40.162C2454.95 47.8312 2448.16 52.356 2445.12 53.4406Z" fill="#E383A8"/>
<path d="M2437.04 49.9527C2439.23 52.2945 2441.82 53.7845 2443.48 54.3808C2443.8 54.4985 2444.16 54.5392 2444.47 54.5392C2444.78 54.5392 2445.14 54.4985 2445.46 54.3808C2447.13 53.7844 2449.72 52.2945 2451.9 49.9527C2454.1 47.5948 2455.95 44.3136 2455.95 40.162C2455.95 36.272 2452.94 33.0376 2449.12 33.0376C2447.84 33.0376 2446.71 33.6819 2445.82 34.4153C2445.31 34.8403 2444.84 35.3258 2444.43 35.8097C2444.04 35.3309 2443.59 34.8481 2443.09 34.4249C2442.23 33.6864 2441.12 33.0376 2439.82 33.0376C2436.01 33.0376 2433 36.272 2433 40.162C2433 44.3136 2434.84 47.5948 2437.04 49.9527Z" stroke="#904C21" stroke-opacity="0.3" stroke-width="2" stroke-linecap="round" stroke-linejoin="round"/>
<path d="M2545.12 52.7939C2544.77 52.921 2544.18 52.921 2543.82 52.7939C2540.79 51.7454 2534 47.3714 2534 39.9578C2534 36.6853 2536.61 34.0376 2539.82 34.0376C2541.73 34.0376 2543.37 35.8963 2544.43 37.3366C2545.49 35.8963 2547.23 34.0376 2549.12 34.0376C2552.34 34.0376 2554.95 36.6853 2554.95 39.9578C2554.95 47.3714 2548.16 51.7454 2545.12 52.7939Z" fill="#E383A8"/>
<path d="M2537.05 49.4572C2539.24 51.7232 2541.83 53.1625 2543.49 53.7377C2543.81 53.8502 2544.17 53.8892 2544.47 53.8892C2544.78 53.8892 2545.13 53.8502 2545.45 53.7377C2547.12 53.1625 2549.71 51.7232 2551.89 49.4572C2554.09 47.1765 2555.95 43.9933 2555.95 39.9578C2555.95 36.1483 2552.91 33.0376 2549.12 33.0376C2547.85 33.0376 2546.72 33.6556 2545.84 34.3666C2545.32 34.7815 2544.85 35.2563 2544.43 35.7291C2544.03 35.2613 2543.58 34.7893 2543.08 34.3759C2542.21 33.6597 2541.11 33.0376 2539.82 33.0376C2536.04 33.0376 2533 36.1483 2533 39.9578C2533 43.9933 2534.85 47.1765 2537.05 49.4572Z" stroke="#904C21" stroke-opacity="0.53" stroke-width="2" stroke-linecap="round" stroke-linejoin="round"/>
<path d="M2645.12 53.4406C2644.77 53.5721 2644.18 53.5721 2643.82 53.4406C2640.79 52.356 2634 47.8312 2634 40.162C2634 36.7766 2636.61 34.0376 2639.82 34.0376C2641.73 34.0376 2643.37 35.9604 2644.43 37.4504C2645.49 35.9604 2647.23 34.0376 2649.12 34.0376C2652.34 34.0376 2654.95 36.7766 2654.95 40.162C2654.95 47.8312 2648.16 52.356 2645.12 53.4406Z" fill="#E383A8"/>
<path d="M2637.04 49.9527C2639.23 52.2945 2641.82 53.7844 2643.48 54.3808C2643.8 54.4985 2644.16 54.5392 2644.47 54.5392C2644.78 54.5392 2645.14 54.4985 2645.46 54.3808C2647.13 53.7844 2649.72 52.2945 2651.9 49.9527C2654.1 47.5948 2655.95 44.3136 2655.95 40.162C2655.95 36.272 2652.94 33.0376 2649.12 33.0376C2647.84 33.0376 2646.71 33.6819 2645.82 34.4153C2645.31 34.8403 2644.84 35.3258 2644.43 35.8097C2644.04 35.3309 2643.59 34.8481 2643.09 34.4249C2642.23 33.6864 2641.12 33.0376 2639.82 33.0376C2636.01 33.0376 2633 36.272 2633 40.162C2633 44.3136 2634.84 47.5948 2637.04 49.9527Z" stroke="#904C21" stroke-opacity="0.7" stroke-width="2" stroke-linecap="round" stroke-linejoin="round"/>
<path d="M2745.12 52.8473C2744.77 52.9807 2744.18 52.9807 2743.82 52.8473C2740.79 51.747 2734 47.157 2734 39.3774C2734 35.9432 2736.61 33.1648 2739.82 33.1648C2741.73 33.1648 2743.37 35.1153 2744.43 36.6267C2745.49 35.1153 2747.23 33.1648 2749.12 33.1648C2752.34 33.1648 2754.95 35.9432 2754.95 39.3774C2754.95 47.157 2748.16 51.747 2745.12 52.8473Z" fill="#E383A8"/>
<path d="M2737.04 49.2941C2739.22 51.6686 2741.81 53.1804 2743.48 53.7859C2743.8 53.9059 2744.16 53.9473 2744.47 53.9473C2744.78 53.9473 2745.14 53.9059 2745.47 53.7859C2747.14 53.1804 2749.73 51.6686 2751.91 49.2941C2754.11 46.9029 2755.95 43.5795 2755.95 39.3774C2755.95 35.4525 2752.95 32.1648 2749.12 32.1648C2747.83 32.1648 2746.7 32.8206 2745.82 33.5636C2745.31 33.9928 2744.84 34.483 2744.43 34.9717C2744.04 34.488 2743.59 34.0007 2743.1 33.5733C2742.24 32.8252 2741.12 32.1648 2739.82 32.1648C2736 32.1648 2733 35.4525 2733 39.3774C2733 43.5795 2734.84 46.9029 2737.04 49.2941Z" stroke="#904C21" stroke-opacity="0.8" stroke-width="2" stroke-linecap="round" stroke-linejoin="round"/>
<circle cx="1225.53" cy="56.293" r="1.30914" fill="#96C291"/>
<circle cx="1223.78" cy="56.2931" r="0.436379" fill="#E0EFDE"/>
<circle cx="1227.28" cy="56.2931" r="0.436379" fill="#E0EFDE"/>
<circle cx="1223.78" cy="57.1659" r="0.436379" fill="#F7FBF4"/>
<circle cx="1227.28" cy="57.1659" r="0.436379" fill="#EFF8EE"/>
<circle cx="1226.4" cy="58.0386" r="0.436379" fill="#E0EFDE"/>
<circle cx="1225.53" cy="58.0386" r="0.436379" fill="#D8F3CE"/>
<circle cx="1224.66" cy="58.0386" r="0.436379" fill="#E0EFDE"/>
<circle cx="1221.17" cy="48.4382" r="0.436379" fill="#A0E5C8"/>
<circle cx="1222.04" cy="48.4382" r="0.436379" fill="#5FC595"/>
<circle cx="1222.04" cy="49.311" r="0.436379" fill="#CBF0E0"/>
<circle cx="1221.17" cy="49.311" r="0.436379" fill="#E5F6F1"/>
<circle cx="1181.02" cy="44.0743" r="0.436379" fill="#FEFCFE"/>
<path d="M1345.84 57.4564C1345.29 57.6506 1344.39 57.6506 1343.84 57.4564C1339.15 55.8546 1328.69 49.1721 1328.69 37.8458C1328.69 32.8461 1332.71 28.801 1337.67 28.801C1340.61 28.801 1343.14 31.6407 1344.77 33.8412C1346.4 31.6407 1349.08 28.801 1352.01 28.801C1356.96 28.801 1360.98 32.8461 1360.98 37.8458C1360.98 49.1721 1350.52 55.8546 1345.84 57.4564Z" fill="#E383A8"/>
<circle cx="1368.52" cy="23.2468" r="0.392741" transform="rotate(43.2452 1368.52 23.2468)" fill="#D4E068"/>
<circle cx="1367.65" cy="23.2468" r="0.392741" transform="rotate(43.2452 1367.65 23.2468)" fill="#DBF1A5"/>
<circle cx="1367.65" cy="22.374" r="0.392741" transform="rotate(43.2452 1367.65 22.374)" fill="#FDF9F0"/>
<circle cx="1368.52" cy="22.374" r="0.392741" transform="rotate(43.2452 1368.52 22.374)" fill="#F3FBE6"/>
<circle cx="1375.34" cy="23.9572" r="0.392741" fill="#F5E7AA"/>
<circle cx="1377.96" cy="23.9572" r="0.392741" fill="#FBF0D7"/>
<circle cx="1378" cy="24.8738" r="0.436379" fill="#E2D14C"/>
<circle cx="1375.38" cy="24.8738" r="0.436379" fill="#E2D14C"/>
<circle cx="1376.26" cy="25.7466" r="0.436379" fill="#E2D14C"/>
<circle cx="1375.38" cy="25.7466" r="0.436379" fill="#E8DB73"/>
<circle cx="1378" cy="25.7466" r="0.436379" fill="#E8DB73"/>
<circle cx="1377.13" cy="26.6192" r="0.436379" fill="#F5E7AA"/>
<circle cx="1376.26" cy="26.6192" r="0.436379" fill="#F5E7AA"/>
<circle cx="1377.13" cy="25.7466" r="0.436379" fill="#E2D14C"/>
<circle cx="1376.69" cy="24.4373" r="0.872759" fill="#E2D14C"/>
<circle cx="1357.93" cy="68.5116" r="0.436379" fill="#EEF0FD"/>
<circle cx="1357.93" cy="69.3844" r="0.436379" fill="#8B98F3"/>
<circle cx="1358.8" cy="69.3844" r="0.436379" fill="#B6B8F6"/>
<circle cx="1358.8" cy="70.2571" r="0.436379" fill="#F7F7FB"/>
<circle cx="1357.93" cy="70.2571" r="0.436379" fill="#EEF0FD"/>
<circle cx="1352.69" cy="72.0027" r="0.436379" fill="#97BBF1"/>
<circle cx="1352.69" cy="74.6208" r="0.436379" fill="#DCEBF9"/>
<circle cx="1353.57" cy="74.6208" r="0.436379" fill="#C7E1F9"/>
<circle cx="1353.57" cy="72.0027" r="0.436379" fill="#629CF3"/>
<circle cx="1354.44" cy="72.0027" r="0.436379" fill="#EEF0FD"/>
<circle cx="1354.44" cy="72.8753" r="0.436379" fill="#629CF3"/>
<circle cx="1351.82" cy="72.8753" r="0.436379" fill="#C7E1F9"/>
<circle cx="1354.44" cy="73.7481" r="0.436379" fill="#97BBF1"/>
<circle cx="1351.82" cy="73.7481" r="0.436379" fill="#DCEBF9"/>
<circle cx="1353.13" cy="73.3117" r="0.872759" fill="#629CF3"/>
<circle cx="1331.75" cy="69.3844" r="0.436379" fill="#DCC7EC"/>
<circle cx="1331.75" cy="70.2571" r="0.436379" fill="#A36CCE"/>
<circle cx="1331.75" cy="71.1299" r="0.436379" fill="#FAF4FD"/>
<circle cx="1332.62" cy="70.2571" r="0.436379" fill="#C6A4E0"/>
<circle cx="1332.62" cy="69.3844" r="0.436379" fill="#F5EAFC"/>
<circle cx="1322.15" cy="71.1299" r="0.436379" fill="#D8D4E3"/>
<circle cx="1324.76" cy="71.1299" r="0.436379" fill="#D8D4E3"/>
<circle cx="1322.15" cy="72.0027" r="0.436379" fill="#A8A0B7"/>
<circle cx="1324.76" cy="72.0027" r="0.436379" fill="#A8A0B7"/>
<circle cx="1322.15" cy="72.8753" r="0.436379" fill="#C2C4D1"/>
<circle cx="1324.76" cy="72.8753" r="0.436379" fill="#C2C4D1"/>
<circle cx="1323.46" cy="72.439" r="0.872759" fill="#A8A0B7"/>
<circle cx="1323.02" cy="71.1299" r="0.436379" fill="#A8A0B7"/>
<circle cx="1323.89" cy="71.1299" r="0.436379" fill="#A8A0B7"/>
<circle cx="1323.02" cy="70.2571" r="0.436379" fill="#F7F7FB"/>
<circle cx="1323.02" cy="73.7481" r="0.436379" fill="#D8D4E3"/>
<circle cx="1323.89" cy="70.2571" r="0.436379" fill="#F7F7FB"/>
<circle cx="1323.89" cy="73.7481" r="0.436379" fill="#D8D4E3"/>
<circle cx="1315.16" cy="49.3109" r="0.436379" fill="#E8F9F2"/>
<circle cx="1314.29" cy="49.3109" r="0.436379" fill="#F9FDFB"/>
<circle cx="1314.29" cy="50.1837" r="0.436379" fill="#D5F5E7"/>
<circle cx="1315.16" cy="50.1837" r="0.436379" fill="#79D9B0"/>
<circle cx="1315.16" cy="51.0564" r="0.436379" fill="#F1FBF7"/>
<circle cx="1306.44" cy="44.0743" r="0.436379" fill="#E5E5EE"/>
<circle cx="1309.05" cy="44.0743" r="0.436379" fill="#A8A0B7"/>
<circle cx="1306.44" cy="44.9471" r="0.436379" fill="#C2C4D1"/>
<circle cx="1309.05" cy="44.9471" r="0.436379" fill="#A8A0B7"/>
<circle cx="1306.44" cy="45.8198" r="0.436379" fill="#F1F2F5"/>
<circle cx="1309.05" cy="45.8198" r="0.436379" fill="#C2C4D1"/>
<circle cx="1307.75" cy="45.3835" r="0.872759" fill="#A8A0B7"/>
<circle cx="1307.31" cy="44.0743" r="0.436379" fill="#A8A0B7"/>
<circle cx="1308.18" cy="44.0743" r="0.436379" fill="#A8A0B7"/>
<circle cx="1307.31" cy="43.2015" r="0.436379" fill="#E5E5EE"/>
<circle cx="1307.31" cy="46.6926" r="0.436379" fill="#FCFDFC"/>
<circle cx="1308.18" cy="43.2015" r="0.436379" fill="#D8D4E3"/>
<circle cx="1309.05" cy="43.2015" r="0.436379" fill="#F7F7FB"/>
<circle cx="1309.93" cy="44.9471" r="0.436379" fill="#F7F7FB"/>
<circle cx="1308.18" cy="46.6926" r="0.436379" fill="#F7F7FB"/>
<circle cx="1319.53" cy="24.0008" r="0.436379" fill="#B342DE"/>
<circle cx="1320.4" cy="24.0008" r="0.436379" fill="#D7A7F1"/>
<circle cx="1319.53" cy="24.8736" r="0.436379" fill="#CB7FE9"/>
<circle cx="1320.4" cy="24.8736" r="0.436379" fill="#F0DFF7"/>
<circle cx="1319.09" cy="15.7097" r="0.872759" fill="#C661D3"/>
<circle cx="1319.53" cy="14.4005" r="0.436379" fill="#C661D3"/>
<circle cx="1319.53" cy="13.5278" r="0.436379" fill="#FAF4FD"/>
<circle cx="1320.4" cy="14.4005" r="0.436379" fill="#D085DA"/>
<circle cx="1321.27" cy="15.2733" r="0.436379" fill="#F6E2F3"/>
<circle cx="1320.4" cy="15.2733" r="0.436379" fill="#C661D3"/>
<circle cx="1320.4" cy="16.1461" r="0.436379" fill="#C661D3"/>
<circle cx="1321.27" cy="16.1461" r="0.436379" fill="#F9ECF7"/>
<circle cx="1320.4" cy="17.0188" r="0.436379" fill="#F1D0EC"/>
<circle cx="1319.53" cy="17.0188" r="0.436379" fill="#D085DA"/>
<circle cx="1318.66" cy="17.0188" r="0.436379" fill="#EABFE6"/>
<circle cx="1317.78" cy="16.1461" r="0.436379" fill="#F6E2F3"/>
<circle cx="1317.78" cy="15.2733" r="0.436379" fill="#F1D0EC"/>
<circle cx="1318.66" cy="14.4005" r="0.436379" fill="#C661D3"/>
<circle cx="1343.96" cy="12.655" r="0.436379" fill="#F6FCF9"/>
<circle cx="1343.96" cy="10.9095" r="0.436379" fill="#F6FCF9"/>
<circle cx="1343.96" cy="11.7822" r="0.436379" fill="#ADD7CB"/>
<circle cx="1344.84" cy="12.655" r="0.436379" fill="#F6FCF9"/>
<circle cx="1344.84" cy="10.9095" r="0.436379" fill="#F6FCF9"/>
<circle cx="1344.84" cy="11.7822" r="0.436379" fill="#ADD7CB"/>
<circle cx="1350.07" cy="6.54575" r="0.436379" fill="#F7F7FB"/>
<circle cx="1349.2" cy="7.41844" r="0.436379" fill="#FCFDFE"/>
<circle cx="1352.69" cy="7.41844" r="0.436379" fill="#F7FBFE"/>
<circle cx="1351.82" cy="7.41844" r="0.436379" fill="#BEBEDD"/>
<circle cx="1349.2" cy="8.29124" r="0.436379" fill="#F1F2F5"/>
<circle cx="1352.69" cy="8.29124" r="0.436379" fill="#E5E5EE"/>
<circle cx="1351.82" cy="8.29124" r="0.436379" fill="#BEBEDD"/>
<circle cx="1351.82" cy="9.16404" r="0.436379" fill="#BEBEDD"/>
<circle cx="1350.95" cy="9.16404" r="0.436379" fill="#BEBEDD"/>
<circle cx="1350.95" cy="10.0367" r="0.436379" fill="#F7FBFE"/>
<circle cx="1350.07" cy="9.16404" r="0.436379" fill="#BEBEDD"/>
<circle cx="1350.95" cy="6.54575" r="0.436379" fill="#ECDEEC"/>
<circle cx="1351.82" cy="6.54575" r="0.436379" fill="#F7FBFE"/>
<circle cx="1350.51" cy="7.85481" r="0.872759" fill="#BEBEDD"/>
<circle cx="1464.67" cy="44.0743" r="0.436379" fill="#F9FDFB"/>
<path d="M1644.99 55.3424C1644.53 55.5087 1643.77 55.5087 1643.31 55.3424C1639.36 53.9705 1630.54 48.247 1630.54 38.5462C1630.54 34.264 1633.93 30.7994 1638.11 30.7994C1640.58 30.7994 1642.72 33.2316 1644.09 35.1163C1645.47 33.2316 1647.73 30.7994 1650.19 30.7994C1654.37 30.7994 1657.76 34.264 1657.76 38.5462C1657.76 48.247 1648.94 53.9705 1644.99 55.3424Z" fill="#E383A8"/>
<circle cx="1618.61" cy="15.4883" r="0.850611" fill="#9F32E2"/>
<circle cx="1618.18" cy="14.2124" r="0.425305" fill="#F0DFF7"/>
<circle cx="1617.33" cy="15.063" r="0.425305" fill="#D7A7F1"/>
<circle cx="1617.33" cy="15.9137" r="0.425305" fill="#D7A7F1"/>
<circle cx="1618.18" cy="16.7643" r="0.425305" fill="#D7A7F1"/>
<circle cx="1619.04" cy="16.7643" r="0.425305" fill="#E7CCF8"/>
<circle cx="1619.89" cy="15.9137" r="0.425305" fill="#F5EAFC"/>
<circle cx="1619.89" cy="15.063" r="0.425305" fill="#FAF4FD"/>
<circle cx="1619.04" cy="14.2124" r="0.425305" fill="#FAF4FD"/>
<circle cx="1618.18" cy="24.4198" r="0.425305" fill="#FAF4FD"/>
<circle cx="1619.04" cy="24.4198" r="0.425305" fill="#FEFCFE"/>
<circle cx="1606.28" cy="44.8344" r="0.425305" fill="#9F32E2"/>
<circle cx="1605.43" cy="44.8344" r="0.425305" fill="#FAF4FD"/>
<circle cx="1607.13" cy="44.8344" r="0.425305" fill="#9F32E2"/>
<circle cx="1607.13" cy="45.6851" r="0.425305" fill="#9F32E2"/>
<circle cx="1607.98" cy="43.9838" r="0.425305" fill="#D7A7F1"/>
<circle cx="1606.28" cy="43.9838" r="0.425305" fill="#B969EA"/>
<circle cx="1607.98" cy="45.6851" r="0.425305" fill="#F0DFF7"/>
<circle cx="1607.98" cy="44.8344" r="0.425305" fill="#B969EA"/>
<circle cx="1606.28" cy="45.6851" r="0.425305" fill="#D7A7F1"/>
<circle cx="1607.13" cy="43.9838" r="0.425305" fill="#9F32E2"/>
<circle cx="1613.93" cy="49.9381" r="0.425305" fill="#F6FCF9"/>
<circle cx="1630.94" cy="70.3528" r="0.425305" fill="#F9ECF7"/>
<circle cx="1623.29" cy="72.054" r="0.425305" fill="#9F32E2"/>
<circle cx="1623.29" cy="71.2034" r="0.425305" fill="#D7A7F1"/>
<circle cx="1623.29" cy="72.9046" r="0.425305" fill="#D7A7F1"/>
<circle cx="1622.44" cy="72.054" r="0.425305" fill="#9F32E2"/>
<circle cx="1622.44" cy="71.2034" r="0.425305" fill="#9F32E2"/>
<circle cx="1622.44" cy="72.9046" r="0.425305" fill="#9F32E2"/>
<circle cx="1621.59" cy="72.054" r="0.425305" fill="#9F32E2"/>
<circle cx="1621.59" cy="71.2034" r="0.425305" fill="#D7A7F1"/>
<circle cx="1621.59" cy="72.9046" r="0.425305" fill="#D7A7F1"/>
<circle cx="1657.31" cy="69.5022" r="0.425305" fill="#FBF4F7"/>
<circle cx="1653.06" cy="72.9046" r="0.425305" fill="#E2C6E4"/>
<circle cx="1653.06" cy="72.054" r="0.425305" fill="#FCF8FE"/>
<circle cx="1653.06" cy="73.7551" r="0.425305" fill="#F7EFFE"/>
<circle cx="1652.21" cy="72.9046" r="0.425305" fill="#D69DF4"/>
<circle cx="1652.21" cy="72.054" r="0.425305" fill="#E2C6E4"/>
<circle cx="1652.21" cy="73.7551" r="0.425305" fill="#D396D3"/>
<circle cx="1651.36" cy="72.9046" r="0.425305" fill="#D69DF4"/>
<circle cx="1651.36" cy="72.054" r="0.425305" fill="#F6EBFD"/>
<circle cx="1651.36" cy="73.7551" r="0.425305" fill="#EDD8FC"/>
<circle cx="1649.66" cy="7.40748" r="0.425305" fill="#8CE8C3"/>
<circle cx="1650.51" cy="7.40748" r="0.425305" fill="#BDF0D8"/>
<circle cx="1650.51" cy="8.25819" r="0.425305" fill="#8CE8C3"/>
<circle cx="1650.51" cy="9.10878" r="0.425305" fill="#BDF0D8"/>
<circle cx="1649.66" cy="8.25819" r="0.425305" fill="#8CE8C3"/>
<circle cx="1648.81" cy="8.25819" r="0.425305" fill="#BDF0D8"/>
<circle cx="1648.81" cy="7.40748" r="0.425305" fill="#F1FBF7"/>
<circle cx="1649.66" cy="9.10878" r="0.425305" fill="#8CE8C3"/>
<circle cx="1648.81" cy="9.10878" r="0.425305" fill="#F1FBF7"/>
<circle cx="1676.03" cy="24.4197" r="0.425305" fill="#CBEA8D"/>
<circle cx="1676.88" cy="25.2703" r="0.425305" fill="#F7FBF4"/>
<circle cx="1676.03" cy="25.2703" r="0.425305" fill="#CBEA8D"/>
<circle cx="1676.03" cy="26.1209" r="0.425305" fill="#D8F3CE"/>
<circle cx="1675.18" cy="26.1209" r="0.425305" fill="#DBF1A5"/>
<circle cx="1674.32" cy="26.1209" r="0.425305" fill="#F7FBF4"/>
<circle cx="1675.18" cy="25.2703" r="0.425305" fill="#CBEA8D"/>
<circle cx="1674.32" cy="25.2703" r="0.425305" fill="#DBF1A5"/>
<circle cx="1675.18" cy="24.4197" r="0.425305" fill="#CBEA8D"/>
<circle cx="1674.32" cy="24.4197" r="0.425305" fill="#F3FBE6"/>
<circle cx="1676.88" cy="55.0416" r="0.425305" fill="#D2F1E4"/>
<circle cx="1676.88" cy="57.5935" r="0.425305" fill="#A0E5C8"/>
<circle cx="1676.03" cy="57.5935" r="0.425305" fill="#E5F6F1"/>
<circle cx="1677.73" cy="57.5935" r="0.425305" fill="#F7FDFB"/>
<circle cx="1676.03" cy="56.7429" r="0.425305" fill="#2FCB90"/>
<circle cx="1676.03" cy="55.8922" r="0.425305" fill="#2FCB90"/>
<circle cx="1676.88" cy="55.8922" r="0.425305" fill="#2FCB90"/>
<circle cx="1677.73" cy="55.8922" r="0.425305" fill="#A0E5C8"/>
<circle cx="1676.88" cy="56.7429" r="0.425305" fill="#2FCB90"/>
<circle cx="1677.73" cy="56.7429" r="0.425305" fill="#2FCB90"/>
<circle cx="1657.31" cy="69.5021" r="0.425305" fill="#FBF4F7"/>
<circle cx="1651.36" cy="73.755" r="0.425305" fill="#EDD8FC"/>
<circle cx="1651.36" cy="72.9044" r="0.425305" fill="#D69DF4"/>
<circle cx="1651.36" cy="72.0538" r="0.425305" fill="#F6EBFD"/>
<circle cx="1652.21" cy="73.755" r="0.425305" fill="#D396D3"/>
<circle cx="1652.21" cy="72.9044" r="0.425305" fill="#D69DF4"/>
<circle cx="1652.21" cy="72.0538" r="0.425305" fill="#E2C6E4"/>
<circle cx="1653.06" cy="73.755" r="0.425305" fill="#F7EFFE"/>
<circle cx="1653.06" cy="72.9044" r="0.425305" fill="#E2C6E4"/>
<circle cx="1653.06" cy="72.0538" r="0.425305" fill="#FCF8FE"/>
<circle cx="1630.94" cy="70.3527" r="0.425305" fill="#F9ECF7"/>
<circle cx="1621.59" cy="71.2033" r="0.425305" fill="#D7A7F1"/>
<circle cx="1622.44" cy="71.2033" r="0.425305" fill="#9F32E2"/>
<circle cx="1623.29" cy="71.2033" r="0.425305" fill="#D7A7F1"/>
<circle cx="1621.59" cy="72.0538" r="0.425305" fill="#9F32E2"/>
<circle cx="1622.44" cy="72.0538" r="0.425305" fill="#9F32E2"/>
<circle cx="1623.29" cy="72.0538" r="0.425305" fill="#9F32E2"/>
<circle cx="1621.59" cy="72.9044" r="0.425305" fill="#D7A7F1"/>
<circle cx="1622.44" cy="72.9044" r="0.425305" fill="#9F32E2"/>
<circle cx="1623.29" cy="72.9044" r="0.425305" fill="#D7A7F1"/>
<circle cx="1613.93" cy="49.9381" r="0.425305" fill="#F6FCF9"/>
<circle cx="1605.43" cy="44.8344" r="0.425305" fill="#FAF4FD"/>
<circle cx="1606.28" cy="44.8344" r="0.425305" fill="#9F32E2"/>
<circle cx="1607.13" cy="44.8344" r="0.425305" fill="#9F32E2"/>
<circle cx="1607.98" cy="44.8344" r="0.425305" fill="#B969EA"/>
<circle cx="1606.28" cy="45.6851" r="0.425305" fill="#D7A7F1"/>
<circle cx="1607.13" cy="45.6851" r="0.425305" fill="#9F32E2"/>
<circle cx="1607.98" cy="45.6851" r="0.425305" fill="#F0DFF7"/>
<circle cx="1606.28" cy="43.9838" r="0.425305" fill="#B969EA"/>
<circle cx="1607.13" cy="43.9838" r="0.425305" fill="#9F32E2"/>
<circle cx="1607.98" cy="43.9838" r="0.425305" fill="#D7A7F1"/>
<path d="M1743.07 54.5133C1742.63 54.6682 1741.92 54.6682 1741.49 54.5133C1737.79 53.236 1729.52 47.9072 1729.52 38.8755C1729.52 34.8886 1732.7 31.663 1736.61 31.663C1738.93 31.663 1740.93 33.9274 1742.22 35.6821C1743.51 33.9274 1745.63 31.663 1747.94 31.663C1751.86 31.663 1755.04 34.8886 1755.04 38.8755C1755.04 47.9072 1746.77 53.236 1743.07 54.5133Z" fill="#E383A8"/>
<circle cx="1751.21" cy="72.0669" r="0.425305" fill="#FBF4F7"/>
<circle cx="1751.21" cy="72.9176" r="0.425305" fill="#CAADC6"/>
<circle cx="1750.36" cy="72.9176" r="0.425305" fill="#E2C6E4"/>
<circle cx="1752.06" cy="72.9176" r="0.425305" fill="#ECDEEC"/>
<circle cx="1751.21" cy="73.7682" r="0.425305" fill="#CAADC6"/>
<circle cx="1750.36" cy="73.7682" r="0.425305" fill="#ECDEEC"/>
<circle cx="1752.06" cy="73.7682" r="0.425305" fill="#F5E8F4"/>
<circle cx="1721.44" cy="71.2163" r="0.425305" fill="#EABFE6"/>
<circle cx="1722.29" cy="71.2163" r="0.425305" fill="#FEFCFE"/>
<circle cx="1720.59" cy="71.2163" r="0.425305" fill="#F0DFF7"/>
<circle cx="1721.44" cy="72.0669" r="0.425305" fill="#C661D3"/>
<circle cx="1720.59" cy="72.0669" r="0.425305" fill="#C661D3"/>
<circle cx="1722.29" cy="72.0669" r="0.425305" fill="#EABFE6"/>
<circle cx="1721.44" cy="72.9176" r="0.425305" fill="#C661D3"/>
<circle cx="1720.59" cy="72.9176" r="0.425305" fill="#D085DA"/>
<circle cx="1722.29" cy="72.9176" r="0.425305" fill="#F0DFF7"/>
<circle cx="1705.28" cy="43.9967" r="0.425305" fill="#D085DA"/>
<circle cx="1705.28" cy="44.8474" r="0.425305" fill="#C661D3"/>
<circle cx="1704.43" cy="44.8474" r="0.425305" fill="#F9ECF7"/>
<circle cx="1705.28" cy="45.6981" r="0.425305" fill="#EABFE6"/>
<circle cx="1706.13" cy="43.9967" r="0.425305" fill="#D085DA"/>
<circle cx="1706.13" cy="44.8474" r="0.425305" fill="#C661D3"/>
<circle cx="1706.98" cy="44.8474" r="0.425305" fill="#F0DFF7"/>
<circle cx="1706.13" cy="45.6981" r="0.425305" fill="#E7ADDC"/>
<circle cx="1716.33" cy="15.0759" r="0.425305" fill="#C6A4E0"/>
<circle cx="1716.33" cy="15.9266" r="0.425305" fill="#DCC7EC"/>
<circle cx="1717.18" cy="15.0759" r="0.425305" fill="#A36CCE"/>
<circle cx="1717.18" cy="14.2254" r="0.425305" fill="#F0DFF7"/>
<circle cx="1717.18" cy="15.9266" r="0.425305" fill="#A36CCE"/>
<circle cx="1717.18" cy="16.7772" r="0.425305" fill="#FAF4FD"/>
<circle cx="1718.04" cy="15.0759" r="0.425305" fill="#A36CCE"/>
<circle cx="1718.04" cy="14.2254" r="0.425305" fill="#FAF4FD"/>
<circle cx="1718.04" cy="15.9266" r="0.425305" fill="#C6A4E0"/>
<circle cx="1747.81" cy="7.42054" r="0.425305" fill="#F6FCF9"/>
<circle cx="1747.81" cy="8.27125" r="0.425305" fill="#E3F7EC"/>
<circle cx="1748.66" cy="7.42054" r="0.425305" fill="#9BDBC5"/>
<circle cx="1748.66" cy="8.27125" r="0.425305" fill="#8CE8C3"/>
<circle cx="1748.66" cy="9.12184" r="0.425305" fill="#E3F7EC"/>
<circle cx="1749.51" cy="7.42054" r="0.425305" fill="#ACEACF"/>
<circle cx="1749.51" cy="8.27125" r="0.425305" fill="#8CE8C3"/>
<circle cx="1749.51" cy="9.12184" r="0.425305" fill="#F1FBF7"/>
<circle cx="1774.18" cy="24.4328" r="0.425305" fill="#CBEA8D"/>
<circle cx="1774.18" cy="25.2833" r="0.425305" fill="#CBEA8D"/>
<circle cx="1773.32" cy="25.2833" r="0.425305" fill="#F7FBF4"/>
<circle cx="1774.18" cy="26.134" r="0.425305" fill="#F3FBE6"/>
<circle cx="1775.03" cy="24.4328" r="0.425305" fill="#CBEA8D"/>
<circle cx="1775.03" cy="25.2833" r="0.425305" fill="#CBEA8D"/>
<circle cx="1775.88" cy="25.2833" r="0.425305" fill="#F6F6EF"/>
<circle cx="1775.03" cy="26.134" r="0.425305" fill="#F3FBE6"/>
<circle cx="1775.03" cy="55.9054" r="0.425305" fill="#CBF0E0"/>
<circle cx="1775.88" cy="55.9054" r="0.425305" fill="#5FC595"/>
<circle cx="1776.73" cy="55.9054" r="0.425305" fill="#7DC9CF"/>
<circle cx="1775.03" cy="56.756" r="0.425305" fill="#A0E5C8"/>
<circle cx="1775.88" cy="56.756" r="0.425305" fill="#5FC595"/>
<circle cx="1776.73" cy="56.756" r="0.425305" fill="#5FC595"/>
<circle cx="1775.03" cy="57.6066" r="0.425305" fill="#F7FDFB"/>
<circle cx="1775.88" cy="57.6066" r="0.425305" fill="#BEE8E7"/>
<circle cx="1776.73" cy="57.6066" r="0.425305" fill="#E5F6F1"/>
<g opacity="0.5">
<circle cx="1680.24" cy="43.2016" r="0.436379" fill="#F7D3D9"/>
<circle cx="1680.24" cy="44.0744" r="0.436379" fill="#E1A2A0"/>
<circle cx="1679.36" cy="44.0744" r="0.436379" fill="#F7D3D9"/>
<circle cx="1681.11" cy="44.0744" r="0.436379" fill="#F7E2E6"/>
<circle cx="1680.24" cy="44.9472" r="0.436379" fill="#F7E2E6"/>
</g>
<path d="M1845.07 54.5133C1844.63 54.6682 1843.92 54.6682 1843.49 54.5133C1839.79 53.236 1831.52 47.9072 1831.52 38.8755C1831.52 34.8886 1834.7 31.663 1838.61 31.663C1840.93 31.663 1842.93 33.9274 1844.22 35.6821C1845.51 33.9274 1847.63 31.663 1849.94 31.663C1853.86 31.663 1857.04 34.8886 1857.04 38.8755C1857.04 47.9072 1848.77 53.236 1845.07 54.5133Z" fill="#E383A8"/>
<circle cx="1850.66" cy="8.27125" r="0.425305" fill="#A6E1E2"/>
<circle cx="1850.66" cy="7.42054" r="0.425305" fill="#A6E1E2"/>
<circle cx="1851.51" cy="8.27125" r="0.425305" fill="#A6E1E2"/>
<circle cx="1851.51" cy="7.42054" r="0.425305" fill="#A6E1E2"/>
<circle cx="1819.18" cy="14.2254" r="0.425305" fill="#E5E5EE"/>
<circle cx="1819.18" cy="15.0759" r="0.425305" fill="#A8A0B7"/>
<circle cx="1820.04" cy="15.0759" r="0.425305" fill="#D8D4E3"/>
<circle cx="1820.04" cy="15.9266" r="0.425305" fill="#F7F7FB"/>
<circle cx="1818.33" cy="15.0759" r="0.425305" fill="#C2C4D1"/>
<circle cx="1818.33" cy="15.9266" r="0.425305" fill="#E5E5EE"/>
<circle cx="1819.18" cy="15.9266" r="0.425305" fill="#C2C4D1"/>
<circle cx="1807.28" cy="43.9967" r="0.425305" fill="#E7ADDC"/>
<circle cx="1807.28" cy="44.8474" r="0.425305" fill="#D391B6"/>
<circle cx="1806.43" cy="44.8474" r="0.425305" fill="#F6E2F3"/>
<circle cx="1807.28" cy="45.6981" r="0.425305" fill="#EABFE6"/>
<circle cx="1808.13" cy="43.9967" r="0.425305" fill="#F6E2F3"/>
<circle cx="1808.13" cy="44.8474" r="0.425305" fill="#D391B6"/>
<circle cx="1808.13" cy="45.6981" r="0.425305" fill="#F9ECF7"/>
<circle cx="1822.59" cy="72.0669" r="0.425305" fill="#D391B6"/>
<circle cx="1822.59" cy="72.9176" r="0.425305" fill="#D391B6"/>
<circle cx="1823.44" cy="72.0669" r="0.425305" fill="#D391B6"/>
<circle cx="1824.29" cy="72.0669" r="0.425305" fill="#FCF5FA"/>
<circle cx="1823.44" cy="71.2163" r="0.425305" fill="#FCF5FA"/>
<circle cx="1823.44" cy="72.9176" r="0.425305" fill="#D391B6"/>
<circle cx="1824.29" cy="72.9176" r="0.425305" fill="#FCF5FA"/>
<circle cx="1852.36" cy="72.9175" r="0.425305" fill="#F6F6EF"/>
<circle cx="1852.36" cy="73.7682" r="0.425305" fill="#ECF0E9"/>
<circle cx="1853.21" cy="72.9176" r="0.425305" fill="#D4CBBA"/>
<circle cx="1853.21" cy="73.7682" r="0.425305" fill="#D4CBBA"/>
<circle cx="1854.06" cy="72.9176" r="0.425305" fill="#F6F6EF"/>
<circle cx="1854.06" cy="73.7682" r="0.425305" fill="#ECF0E9"/>
<circle cx="1877.88" cy="55.9054" r="0.425305" fill="#7DC9CF"/>
<circle cx="1878.73" cy="55.9054" r="0.425305" fill="#7DC9CF"/>
<circle cx="1878.73" cy="56.756" r="0.425305" fill="#7DC9CF"/>
<circle cx="1877.88" cy="56.756" r="0.425305" fill="#7DC9CF"/>
<circle cx="1877.88" cy="57.6066" r="0.425305" fill="#DCEBF9"/>
<circle cx="1878.73" cy="57.6066" r="0.425305" fill="#DCEBF9"/>
<circle cx="1877.03" cy="56.756" r="0.425305" fill="#F4F9FD"/>
<circle cx="1877.03" cy="24.4326" r="0.425305" fill="#E0BE92"/>
<circle cx="1877.03" cy="25.2833" r="0.425305" fill="#E0BE92"/>
<circle cx="1877.88" cy="24.4326" r="0.425305" fill="#F8F1E7"/>
<circle cx="1877.88" cy="25.2833" r="0.425305" fill="#F8F1E7"/>
<circle cx="1876.18" cy="24.4326" r="0.425305" fill="#DED9BC"/>
<circle cx="1876.18" cy="25.2833" r="0.425305" fill="#EDCDAB"/>
<circle cx="1724.75" cy="43.2016" r="0.436379" fill="#96D8E9"/>
<circle cx="1724.75" cy="44.0744" r="0.436379" fill="#D9EFFC"/>
<circle cx="1725.62" cy="43.2016" r="0.436379" fill="#A5DAFA"/>
<circle cx="1725.62" cy="44.0744" r="0.436379" fill="#E6F4FD"/>
<path d="M1944.07 54.5133C1943.63 54.6682 1942.92 54.6682 1942.49 54.5133C1938.79 53.236 1930.52 47.9072 1930.52 38.8755C1930.52 34.8886 1933.7 31.663 1937.61 31.663C1939.93 31.663 1941.93 33.9274 1943.22 35.6821C1944.51 33.9274 1946.63 31.663 1948.94 31.663C1952.86 31.663 1956.04 34.8886 1956.04 38.8755C1956.04 47.9072 1947.77 53.236 1944.07 54.5133Z" fill="#E383A8"/>
<circle cx="1975.18" cy="24.4328" r="0.425305" fill="#F8F1E7"/>
<circle cx="1975.18" cy="25.2833" r="0.425305" fill="#FDF9F0"/>
<circle cx="1976.03" cy="24.4328" r="0.425305" fill="#F7C193"/>
<circle cx="1976.03" cy="25.2833" r="0.425305" fill="#E0BE92"/>
<circle cx="1976.88" cy="24.4328" r="0.425305" fill="#F7E8D8"/>
<circle cx="1976.88" cy="25.2833" r="0.425305" fill="#F8F1E7"/>
<circle cx="1977.73" cy="55.9054" r="0.425305" fill="#DDE1F9"/>
<circle cx="1977.73" cy="56.756" r="0.425305" fill="#699EDA"/>
<circle cx="1976.88" cy="56.756" r="0.425305" fill="#97BBF1"/>
<circle cx="1976.88" cy="57.6066" r="0.425305" fill="#F4F9FD"/>
<circle cx="1976.88" cy="55.9054" r="0.425305" fill="#F7F7FB"/>
<circle cx="1978.58" cy="56.756" r="0.425305" fill="#F4F9FD"/>
<circle cx="1977.73" cy="57.6066" r="0.425305" fill="#DCEBF9"/>
<circle cx="1951.36" cy="73.7682" r="0.425305" fill="#F7FBF4"/>
<circle cx="1952.21" cy="72.9176" r="0.425305" fill="#E4EEDC"/>
<circle cx="1952.21" cy="73.7682" r="0.425305" fill="#CBEA8D"/>
<circle cx="1952.21" cy="74.6188" r="0.425305" fill="#F7FBF4"/>
<circle cx="1953.06" cy="73.7682" r="0.425305" fill="#F3FBE6"/>
<circle cx="1921.59" cy="72.0669" r="0.425305" fill="#F2D3C6"/>
<circle cx="1921.59" cy="72.9176" r="0.425305" fill="#E1A2A0"/>
<circle cx="1922.44" cy="72.0669" r="0.425305" fill="#F7D3D9"/>
<circle cx="1922.44" cy="72.9176" r="0.425305" fill="#E1A2A0"/>
<circle cx="1906.28" cy="44.8474" r="0.425305" fill="#E1A2A0"/>
<circle cx="1905.43" cy="44.8474" r="0.425305" fill="#F7D3D9"/>
<circle cx="1906.28" cy="45.6981" r="0.425305" fill="#F7E2E6"/>
<circle cx="1907.13" cy="44.8474" r="0.425305" fill="#F7E2E6"/>
<circle cx="1906.28" cy="43.9967" r="0.425305" fill="#F7D3D9"/>
<circle cx="1917.33" cy="14.2254" r="0.425305" fill="#F7FBF4"/>
<circle cx="1917.33" cy="15.0759" r="0.425305" fill="#96C291"/>
<circle cx="1918.18" cy="15.0759" r="0.425305" fill="#96C291"/>
<circle cx="1918.18" cy="15.9266" r="0.425305" fill="#EFF8EE"/>
<circle cx="1918.18" cy="14.2254" r="0.425305" fill="#E0EFDE"/>
<circle cx="1949.66" cy="7.42054" r="0.425305" fill="#96D8E9"/>
<circle cx="1950.51" cy="7.42054" r="0.425305" fill="#A5DAFA"/>
<circle cx="1950.51" cy="8.27125" r="0.425305" fill="#E6F4FD"/>
<circle cx="1949.66" cy="8.27125" r="0.425305" fill="#D9EFFC"/>
<path d="M2044.9 54.7925C2044.46 54.9473 2043.75 54.9473 2043.31 54.7925C2039.61 53.5154 2031.35 48.1876 2031.35 39.1575C2031.35 35.1713 2034.52 31.9463 2038.44 31.9463C2040.76 31.9463 2042.76 34.2103 2044.05 35.9647C2045.34 34.2103 2047.46 31.9463 2049.77 31.9463C2053.69 31.9463 2056.87 35.1713 2056.87 39.1575C2056.87 48.1876 2048.6 53.5154 2044.9 54.7925Z" fill="#E383A8"/>
<circle cx="2049.63" cy="9.98744" r="0.386976" fill="#F1F7FE"/>
<circle cx="2049.63" cy="10.7615" r="0.386976" fill="#B4D6FB"/>
<circle cx="2050.41" cy="9.98744" r="0.386976" fill="#F7FBFE"/>
<circle cx="2050.41" cy="10.7615" r="0.386976" fill="#B4D6FB"/>
<circle cx="2020.22" cy="16.953" r="0.386976" fill="#E0EFDE"/>
<circle cx="2020.22" cy="17.7271" r="0.386976" fill="#C1F8B0"/>
<circle cx="2021" cy="16.953" r="0.386976" fill="#E0EFDE"/>
<circle cx="2021" cy="17.7271" r="0.386976" fill="#C7EFC4"/>
<circle cx="2009.39" cy="44.0414" r="0.386976" fill="#EDCDAB"/>
<circle cx="2010.16" cy="44.0414" r="0.386976" fill="#F7C193"/>
<circle cx="2009.39" cy="44.8153" r="0.386976" fill="#FEFCFA"/>
<circle cx="2010.16" cy="44.8153" r="0.386976" fill="#FDF9F0"/>
<circle cx="2009.39" cy="43.2673" r="0.386976" fill="#FEFCFA"/>
<circle cx="2010.16" cy="43.2673" r="0.386976" fill="#FDF9F0"/>
<circle cx="2024.09" cy="69.5818" r="0.386976" fill="#F8F1E7"/>
<circle cx="2024.09" cy="70.3557" r="0.386976" fill="#F7C193"/>
<circle cx="2024.09" cy="71.1297" r="0.386976" fill="#FDF9F0"/>
<circle cx="2024.87" cy="70.3557" r="0.386976" fill="#F2D3C6"/>
<circle cx="2024.87" cy="69.5818" r="0.386976" fill="#FEFCFA"/>
<circle cx="2024.87" cy="71.1297" r="0.386976" fill="#FEFEFC"/>
<circle cx="2051.95" cy="71.1297" r="0.386976" fill="#CBEA8D"/>
<circle cx="2051.95" cy="71.9037" r="0.386976" fill="#F3FBE6"/>
<circle cx="2052.73" cy="71.1297" r="0.386976" fill="#F3FBE6"/>
<circle cx="2073.62" cy="26.2405" r="0.386976" fill="#F7C193"/>
<circle cx="2074.4" cy="26.2405" r="0.386976" fill="#F2D3C6"/>
<circle cx="2074.4" cy="27.0144" r="0.386976" fill="#FDF9F0"/>
<circle cx="2073.62" cy="27.0144" r="0.386976" fill="#F7E8D8"/>
<circle cx="2075.17" cy="55.6508" r="0.386976" fill="#8B98F3"/>
<circle cx="2075.17" cy="56.4247" r="0.386976" fill="#DDE1F9"/>
<circle cx="2074.4" cy="55.6508" r="0.386976" fill="#EEF0FD"/>
<circle cx="2075.95" cy="55.6508" r="0.386976" fill="#EEF0FD"/>
<circle cx="2075.17" cy="54.8768" r="0.386976" fill="#F7F7FB"/>
<path d="M2145.07 54.5135C2144.63 54.6683 2143.92 54.6683 2143.49 54.5135C2139.79 53.2361 2131.52 47.9074 2131.52 38.8756C2131.52 34.8887 2134.7 31.6631 2138.61 31.6631C2140.93 31.6631 2142.93 33.9275 2144.22 35.6822C2145.51 33.9275 2147.63 31.6631 2149.94 31.6631C2153.86 31.6631 2157.04 34.8887 2157.04 38.8756C2157.04 47.9074 2148.77 53.2361 2145.07 54.5135Z" fill="#E383A8"/>
<circle cx="2150.66" cy="6.56996" r="0.425305" fill="#F1F7FE"/>
<circle cx="2150.66" cy="7.42067" r="0.425305" fill="#E6F4FD"/>
<circle cx="2151.51" cy="6.56996" r="0.425305" fill="#F1F7FE"/>
<circle cx="2151.51" cy="7.42067" r="0.425305" fill="#E6F4FD"/>
<circle cx="2118.33" cy="14.2255" r="0.425305" fill="#D8F3CE"/>
<circle cx="2119.18" cy="14.2255" r="0.425305" fill="#F7FBF4"/>
<circle cx="2118.33" cy="15.0761" r="0.425305" fill="#D8F3CE"/>
<circle cx="2119.18" cy="15.0761" r="0.425305" fill="#F7FBF4"/>
<circle cx="2106.43" cy="44.8475" r="0.425305" fill="#F7C193"/>
<circle cx="2106.43" cy="45.6983" r="0.425305" fill="#FEFCFA"/>
<circle cx="2107.28" cy="44.8475" r="0.425305" fill="#F7E8D8"/>
<circle cx="2122.59" cy="72.9177" r="0.425305" fill="#F7C193"/>
<circle cx="2122.59" cy="73.7684" r="0.425305" fill="#F8F1E7"/>
<circle cx="2123.44" cy="72.9179" r="0.425305" fill="#FDF9F0"/>
<circle cx="2177.03" cy="24.4328" r="0.425305" fill="#F7E8D8"/>
<circle cx="2177.88" cy="24.4328" r="0.425305" fill="#EDCDAB"/>
<circle cx="2178.73" cy="56.7561" r="0.425305" fill="#B6B8F6"/>
<circle cx="2178.73" cy="57.6067" r="0.425305" fill="#EEF0FD"/>
<circle cx="2179.58" cy="56.7561" r="0.425305" fill="#DDE1F9"/>
<path d="M2244.19 55.1383C2243.75 55.2931 2243.04 55.2931 2242.6 55.1383C2238.9 53.8612 2230.63 48.5334 2230.63 39.5033C2230.63 35.5171 2233.81 32.2921 2237.73 32.2921C2240.05 32.2921 2242.05 34.5561 2243.34 36.3105C2244.63 34.5561 2246.75 32.2921 2249.06 32.2921C2252.98 32.2921 2256.15 35.5171 2256.15 39.5033C2256.15 48.5334 2247.89 53.8612 2244.19 55.1383Z" fill="#E383A8"/>
<circle cx="2248.96" cy="8.29926" r="0.409119" fill="#F1F7FE"/>
<circle cx="2249.78" cy="8.29926" r="0.409119" fill="#E6F4FD"/>
<circle cx="2217.86" cy="15.6634" r="0.409119" fill="#C7EFC4"/>
<circle cx="2217.86" cy="16.4816" r="0.409119" fill="#F7FBF4"/>
<circle cx="2206.41" cy="45.1199" r="0.409119" fill="#F7C193"/>
<circle cx="2221.96" cy="72.1218" r="0.409119" fill="#F7E8D8"/>
<circle cx="2221.96" cy="72.9399" r="0.409119" fill="#F7E8D8"/>
<circle cx="2275.14" cy="25.4824" r="0.409119" fill="#F7C193"/>
<circle cx="2275.96" cy="56.5753" r="0.409119" fill="#EEF0FD"/>
<circle cx="2276.78" cy="57.3936" r="0.409119" fill="#F7F7FB"/>
<circle cx="2275.96" cy="57.3936" r="0.409119" fill="#FCFDFE"/>
<circle cx="2276.78" cy="56.5753" r="0.409119" fill="#DDE1F9"/>
<circle cx="2251.41" cy="72.9399" r="0.409119" fill="#FCFEF9"/>
<circle cx="2251.41" cy="73.7582" r="0.409119" fill="#F3FBE6"/>
<path d="M2344.18 54.0316C2343.77 54.179 2343.09 54.179 2342.67 54.0316C2339.15 52.816 2331.29 47.7448 2331.29 39.1494C2331.29 35.3552 2334.31 32.2854 2338.04 32.2854C2340.25 32.2854 2342.15 34.4404 2343.38 36.1103C2344.6 34.4404 2346.62 32.2854 2348.82 32.2854C2352.55 32.2854 2355.57 35.3552 2355.57 39.1494C2355.57 47.7448 2347.7 52.816 2344.18 54.0316Z" fill="#E383A8"/>
<circle cx="2350.31" cy="8.40475" r="0.404755" fill="#E6F4FD"/>
<circle cx="2375.4" cy="25.4045" r="0.404755" fill="#F7E8D8"/>
<circle cx="2318.74" cy="15.6904" r="0.404755" fill="#D8F3CE"/>
<circle cx="2307.4" cy="44.8326" r="0.404755" fill="#F7E8D8"/>
<circle cx="2323.59" cy="73.0053" r="0.425305" fill="#F8F1E7"/>
<circle cx="2380.58" cy="55.9931" r="0.425305" fill="#EEF0FD"/>
<circle cx="2380.58" cy="56.8436" r="0.425305" fill="#F7F7FB"/>
<path d="M2836.66 49.7233C2838.85 52.0301 2841.44 53.4966 2843.1 54.0831C2843.42 54.1984 2843.78 54.2383 2844.09 54.2383C2844.39 54.2383 2844.75 54.1984 2845.07 54.0831C2846.74 53.4966 2849.33 52.03 2851.51 49.7233C2853.71 47.401 2855.56 44.1653 2855.56 40.0675C2855.56 36.2148 2852.54 33.0376 2848.74 33.0376C2847.46 33.0376 2846.33 33.6697 2845.44 34.3928C2844.93 34.8131 2844.46 35.2937 2844.05 35.7724C2843.65 35.2987 2843.2 34.8209 2842.7 34.4022C2841.83 33.674 2840.72 33.0376 2839.44 33.0376C2835.64 33.0376 2832.61 36.2148 2832.61 40.0675C2832.61 44.1653 2834.46 47.401 2836.66 49.7233Z" fill="#E383A8" stroke="#904C21" stroke-width="2" stroke-linecap="round" stroke-linejoin="round"/>
<path d="M2843.27 48.7717C2843.27 49.7343 2843 50.6434 2842.52 51.4135C2841.63 52.9002 2840.01 53.9056 2838.13 53.9056C2836.26 53.9056 2834.63 52.9002 2833.75 51.4135C2833.28 50.6434 2833 49.7343 2833 48.7717C2833 45.9375 2835.3 43.6379 2838.13 43.6379C2840.97 43.6379 2843.27 45.9375 2843.27 48.7717Z" fill="#91D1E3" stroke="#904C21" stroke-width="1.75" stroke-miterlimit="10" stroke-linecap="round" stroke-linejoin="round"/>
<path d="M2836.13 48.7717L2837.4 50.0338L2840.13 47.5096" stroke="#904C21" stroke-width="1.75" stroke-linecap="round" stroke-linejoin="round"/>
<path d="M36.2119 49.7233C38.3978 52.0301 40.9872 53.4966 42.6527 54.0831C42.9727 54.1984 43.3302 54.2383 43.6379 54.2383C43.9456 54.2383 44.3031 54.1984 44.6232 54.0831C46.2887 53.4966 48.878 52.03 51.0639 49.7233C53.2645 47.401 55.111 44.1653 55.111 40.0675C55.111 36.2148 52.0877 33.0376 48.288 33.0376C47.0096 33.0376 45.8799 33.6697 44.9938 34.3928C44.4787 34.8131 44.0097 35.2937 43.5985 35.7724C43.2012 35.2987 42.7498 34.8209 42.252 34.4022C41.3862 33.674 40.2764 33.0376 38.9878 33.0376C35.1881 33.0376 32.1648 36.2148 32.1648 40.0675C32.1648 44.1653 34.0113 47.401 36.2119 49.7233Z" fill="#F3C3DA" stroke="#904C21" stroke-width="2" stroke-linecap="round" stroke-linejoin="round"/>
</svg>
