<svg width="2900" height="100" viewBox="0 0 2900 100" fill="none" xmlns="http://www.w3.org/2000/svg">
<path d="M50.744 59.8938C50.336 60.0354 49.664 60.0354 49.256 59.8938C45.776 58.7258 38 53.8534 38 45.5949C38 41.9494 40.988 39 44.672 39C46.856 39 48.7361 41.0705 49.9481 42.675C51.1601 41.0705 53.156 39 55.328 39C59.012 39 62 41.9494 62 45.5949C62 53.8534 54.224 58.7258 50.744 59.8938Z" fill="#FFDADA"/>
<circle cx="149.5" cy="48.5" r="2.5" fill="#E383A8"/>
<circle cx="249.5" cy="48.5" r="23.5" fill="#E383A8"/>
<circle cx="349.5" cy="48.5" r="27.5" fill="#A3D5CB"/>
<circle cx="450" cy="48" r="28" fill="#E0BCF8"/>
<path fill-rule="evenodd" clip-rule="evenodd" d="M550.5 77C566.24 77 579 64.2401 579 48.5C579 32.7599 566.24 20 550.5 20C534.76 20 522 32.7599 522 48.5C522 64.2401 534.76 77 550.5 77ZM550.5 69.875C562.305 69.875 571.875 60.3051 571.875 48.5C571.875 36.6949 562.305 27.125 550.5 27.125C538.695 27.125 529.125 36.6949 529.125 48.5C529.125 60.3051 538.695 69.875 550.5 69.875Z" fill="#E0BCF8"/>
<path fill-rule="evenodd" clip-rule="evenodd" d="M649.5 77.7422C665.792 77.7422 679 64.5346 679 48.2422C679 31.9498 665.792 18.7422 649.5 18.7422C633.208 18.7422 620 31.9498 620 48.2422C620 64.5346 633.208 77.7422 649.5 77.7422ZM649.5 75.7755C664.706 75.7755 677.033 63.4484 677.033 48.2422C677.033 33.036 664.706 20.7089 649.5 20.7089C634.294 20.7089 621.967 33.036 621.967 48.2422C621.967 63.4484 634.294 75.7755 649.5 75.7755Z" fill="#CC8FF5"/>
<circle cx="654.198" cy="22.1645" r="2.06234" transform="rotate(-93.6072 654.198 22.1645)" fill="#91D2FA"/>
<circle cx="650.036" cy="19.0364" r="1.91941" transform="rotate(-93.6072 650.036 19.0364)" fill="#91D2FA"/>
<circle cx="625.5" cy="31.2422" r="2.5" fill="#8CE8C3"/>
<circle cx="630.5" cy="28.2422" r="2.5" fill="#8CE8C3"/>
<circle cx="621.136" cy="56.188" r="2.06234" transform="rotate(-42.7651 621.136 56.188)" fill="#CC8EF5"/>
<circle cx="622.478" cy="50.507" r="2.16712" transform="rotate(-42.7651 622.478 50.507)" fill="#91D2FA"/>
<circle cx="676.199" cy="58.4857" r="2.06234" transform="rotate(-42.7651 676.199 58.4857)" fill="#8CE8C3"/>
<circle cx="679.062" cy="54.8047" r="2.16712" transform="rotate(-42.7651 679.062 54.8047)" fill="#8CE8C3"/>
<circle cx="673.914" cy="34.6567" r="2.06234" transform="rotate(-42.7651 673.914 34.6567)" fill="#CC8EF5"/>
<circle cx="673.712" cy="29.4546" r="1.91941" transform="rotate(-42.7651 673.712 29.4546)" fill="#CC8EF5"/>
<circle cx="637.948" cy="74.414" r="2.06234" transform="rotate(-106.312 637.948 74.414)" fill="#91D2FA"/>
<circle cx="634.477" cy="70.9267" r="2.16712" transform="rotate(-106.312 634.477 70.9267)" fill="#91D2FA"/>
<circle cx="663.158" cy="74.9005" r="2.54561" transform="rotate(-106.312 663.158 74.9005)" fill="#F48EA7"/>
<circle cx="657.689" cy="71.4308" r="2.16712" transform="rotate(-106.312 657.689 71.4308)" fill="#F48EA7"/>
<path d="M650.248 53.7068C650.112 53.754 649.888 53.754 649.752 53.7068C648.592 53.3175 646 51.6933 646 48.9405C646 47.7253 646.996 46.7422 648.224 46.7422C648.952 46.7422 649.579 47.4324 649.983 47.9672C650.387 47.4324 651.052 46.7422 651.776 46.7422C653.004 46.7422 654 47.7253 654 48.9405C654 51.6933 651.408 53.3175 650.248 53.7068Z" fill="#E383A8"/>
<circle cx="856.622" cy="13.6224" r="2.47175" transform="rotate(-93.6072 856.622 13.6224)" fill="#A0C7FA"/>
<circle cx="850.09" cy="14.0901" r="1.97" transform="rotate(-93.6072 850.09 14.0901)" fill="#B2B8FA"/>
<circle cx="881.528" cy="29.6253" r="2.47175" transform="rotate(-57.8563 881.528 29.6253)" fill="#D396D3"/>
<circle cx="875.954" cy="26.1882" r="1.97" transform="rotate(-57.8563 875.954 26.1882)" fill="#E1A2A0"/>
<circle cx="883.152" cy="61.1516" r="2.57333" transform="rotate(-15 883.152 61.1516)" fill="#9CDFBB"/>
<circle cx="882.843" cy="54.5569" r="1.97" transform="rotate(-15 882.843 54.5569)" fill="#B0D5A5"/>
<circle cx="859.19" cy="77.9263" r="2.33502" transform="rotate(60 859.19 77.9263)" fill="#D391B6"/>
<circle cx="864.908" cy="76.9083" r="2.12902" transform="rotate(60 864.908 76.9083)" fill="#9E98C7"/>
<circle cx="829.568" cy="77.9391" r="2.9609" transform="rotate(76.55 829.568 77.9391)" fill="#96D8E9"/>
<circle cx="836.542" cy="78.1" r="2.10903" transform="rotate(76.55 836.542 78.1)" fill="#A0E2CF"/>
<circle cx="813.573" cy="50.5726" r="2.61537" transform="rotate(120 813.573 50.5726)" fill="#96D8E9"/>
<circle cx="817.881" cy="55.881" r="2.10903" transform="rotate(120 817.881 55.881)" fill="#8B98F3"/>
<circle cx="824.67" cy="21.6698" r="2.61537" transform="rotate(178.794 824.67 21.6698)" fill="#9BDBC5"/>
<circle cx="823.298" cy="28.105" r="2.10903" transform="rotate(178.794 823.298 28.105)" fill="#B1C2C5"/>
<path d="M850.744 59.8888C850.336 60.0371 849.664 60.0371 849.256 59.8888C845.776 58.6652 838 53.5607 838 44.909C838 41.0899 840.988 38 844.672 38C846.856 38 848.736 40.1691 849.948 41.85C851.16 40.1691 853.156 38 855.328 38C859.012 38 862 41.0899 862 44.909C862 53.5607 854.224 58.6652 850.744 59.8888Z" fill="#E383A8"/>
<circle cx="765.158" cy="77.3814" r="2.54561" transform="rotate(-106.312 765.158 77.3814)" fill="#D391B6"/>
<circle cx="781.364" cy="60.5872" r="2.5" transform="rotate(-27.0781 781.364 60.5872)" fill="#8CE8C3"/>
<circle cx="782.194" cy="54.4173" r="2.37376" transform="rotate(-27.0781 782.194 54.4173)" fill="#9CDFBB"/>
<circle cx="779.849" cy="31.0725" r="2.51309" transform="rotate(-81.7049 779.849 31.0725)" fill="#CC8EF5"/>
<circle cx="775.576" cy="26.7992" r="2.27196" transform="rotate(-81.7049 775.576 26.7992)" fill="#D396D3"/>
<circle cx="737.077" cy="77.3001" r="2.48015" transform="rotate(-106.312 737.077 77.3001)" fill="#96D8E9"/>
<circle cx="731.246" cy="75.4693" r="2.61648" transform="rotate(-106.312 731.246 75.4693)" fill="#91D2FA"/>
<circle cx="755.622" cy="15.8455" r="2.47175" transform="rotate(-93.6072 755.622 15.8455)" fill="#91D2FA"/>
<circle cx="750.084" cy="14.4639" r="1.97" transform="rotate(-93.6072 750.084 14.4639)" fill="#91D2FA"/>
<circle cx="718.59" cy="56.1906" r="2.25" transform="rotate(-80.4979 718.59 56.1906)" fill="#B091F5"/>
<circle cx="716.273" cy="50.545" r="2.735" transform="rotate(-80.4979 716.273 50.545)" fill="#91D2FA"/>
<circle cx="723.364" cy="28.5342" r="2.5" transform="rotate(-27.0781 723.364 28.5342)" fill="#8CE8C3"/>
<circle cx="726.45" cy="23.5871" r="2.5" transform="rotate(-27.0781 726.45 23.5871)" fill="#8CE8C3"/>
<path d="M750.496 56.1524C750.224 56.2467 749.776 56.2467 749.504 56.1524C747.184 55.3737 742 52.1254 742 46.6198C742 44.1894 743.992 42.2231 746.448 42.2231C747.904 42.2231 749.157 43.6035 749.965 44.6731C750.773 43.6035 752.104 42.2231 753.552 42.2231C756.008 42.2231 758 44.1894 758 46.6198C758 52.1254 752.816 55.3737 750.496 56.1524Z" fill="#E383A8"/>
<path fill-rule="evenodd" clip-rule="evenodd" d="M750.5 78.2233C767.345 78.2233 781 64.568 781 47.7233C781 30.8786 767.345 17.2233 750.5 17.2233C733.655 17.2233 720 30.8786 720 47.7233C720 64.568 733.655 78.2233 750.5 78.2233ZM750.5 76.1899C766.222 76.1899 778.967 63.445 778.967 47.7233C778.967 32.0016 766.222 19.2566 750.5 19.2566C734.778 19.2566 722.033 32.0016 722.033 47.7233C722.033 63.445 734.778 76.1899 750.5 76.1899Z" fill="#FBF5FE"/>
<circle cx="758.689" cy="75.9118" r="2.16712" transform="rotate(-106.312 758.689 75.9118)" fill="#F48EA7"/>
<circle cx="956.622" cy="11.6224" r="2.47175" transform="rotate(-93.6072 956.622 11.6224)" fill="#B2B8FA"/>
<circle cx="950.125" cy="14.09" r="1.97" transform="rotate(-93.6072 950.125 14.09)" fill="#C4A4F8"/>
<path d="M950.93 61.8685C950.42 62.0438 949.58 62.0438 949.07 61.8685C944.72 60.4225 935 54.3899 935 44.1652C935 39.6517 938.735 36 943.34 36C946.07 36 948.42 38.5635 949.935 40.55C951.45 38.5635 953.945 36 956.66 36C961.265 36 965 39.6517 965 44.1652C965 54.3899 955.28 60.4225 950.93 61.8685Z" fill="#E383A8"/>
<circle cx="983.408" cy="29.408" r="2.47175" transform="rotate(-57.8563 983.408 29.408)" fill="#E1A2A0"/>
<circle cx="975.716" cy="26.7162" r="1.97" transform="rotate(-57.8563 975.716 26.7162)" fill="#EBAD6D"/>
<circle cx="985.151" cy="62.1516" r="2.57333" transform="rotate(-15 985.151 62.1516)" fill="#B0D5A5"/>
<circle cx="982.412" cy="54.4128" r="1.97" transform="rotate(-15 982.412 54.4128)" fill="#C8C6A0"/>
<circle cx="959.432" cy="79.658" r="1.9458" transform="rotate(60 959.432 79.658)" fill="#9E98C7"/>
<circle cx="965.319" cy="77.3196" r="1.69804" transform="rotate(60 965.319 77.3196)" fill="#699EDA"/>
<circle cx="928.615" cy="78.6147" r="2.16956" transform="rotate(76.55 928.615 78.6147)" fill="#A0E2CF"/>
<circle cx="936.061" cy="78.0613" r="1.71036" transform="rotate(76.55 936.061 78.0613)" fill="#A7EDB7"/>
<circle cx="911.573" cy="50.5728" r="2.61537" transform="rotate(120 911.573 50.5728)" fill="#A0E2CF"/>
<circle cx="917.881" cy="55.8811" r="2.10903" transform="rotate(120 917.881 55.8811)" fill="#629CF3"/>
<circle cx="923.67" cy="19.6699" r="2.61537" transform="rotate(178.794 923.67 19.6699)" fill="#B1C2C5"/>
<circle cx="922.298" cy="28.1051" r="2.10903" transform="rotate(178.794 922.298 28.1051)" fill="#CAADC6"/>
<circle cx="1022.49" cy="18.5908" r="2.53788" transform="rotate(178.794 1022.49 18.5908)" fill="#CAADC6"/>
<circle cx="1022.92" cy="26.9245" r="1.88516" transform="rotate(178.794 1022.92 26.9245)" fill="#E094C5"/>
<circle cx="1057.12" cy="10.021" r="1.90484" transform="rotate(-93.6072 1057.12 10.021)" fill="#C4A4F8"/>
<circle cx="1049.65" cy="13.5883" r="1.5003" transform="rotate(-93.6072 1049.65 13.5883)" fill="#D69DF4"/>
<circle cx="1085.41" cy="28.408" r="2.47175" transform="rotate(-57.8563 1085.41 28.408)" fill="#EBAD6D"/>
<circle cx="1076.72" cy="25.6762" r="1.97" transform="rotate(-57.8563 1076.72 25.6762)" fill="#F4BB33"/>
<path d="M1051.12 64.8382C1050.5 65.0539 1049.5 65.0539 1048.88 64.8382C1043.66 63.0584 1032 55.6337 1032 43.0494C1032 37.4944 1036.48 33 1042.01 33C1045.28 33 1048.1 36.1551 1049.92 38.6C1051.74 36.1551 1054.73 33 1057.99 33C1063.52 33 1068 37.4944 1068 43.0494C1068 55.6337 1056.34 63.0584 1051.12 64.8382Z" fill="#E383A8"/>
<circle cx="1010.2" cy="50.2041" r="2.34549" transform="rotate(120 1010.2 50.2041)" fill="#A7EDB7"/>
<circle cx="1017.1" cy="56.2054" r="1.53977" transform="rotate(120 1017.1 56.2054)" fill="#35A0EF"/>
<circle cx="1026.88" cy="80.1057" r="2.54759" transform="rotate(76.55 1026.88 80.1057)" fill="#A7EDB7"/>
<circle cx="1036.06" cy="78.0613" r="1.71036" transform="rotate(76.55 1036.06 78.0613)" fill="#B1F69B"/>
<circle cx="1059.85" cy="80.9439" r="2.46849" transform="rotate(60 1059.85 80.9439)" fill="#699EDA"/>
<circle cx="1065.32" cy="77.3196" r="1.69804" transform="rotate(60 1065.32 77.3196)" fill="#699EDA"/>
<circle cx="1087.15" cy="63.1516" r="2.57333" transform="rotate(-15 1087.15 63.1516)" fill="#C8C6A0"/>
<circle cx="1083.41" cy="54.7353" r="1.97" transform="rotate(-15 1083.41 54.7353)" fill="#E0BE92"/>
<path d="M1151.18 65.8281C1150.53 66.0573 1149.47 66.0573 1148.82 65.8281C1143.31 63.9371 1131 56.0483 1131 42.6775C1131 36.7753 1135.73 32 1141.56 32C1145.02 32 1148 35.3522 1149.92 37.95C1151.84 35.3522 1155 32 1158.44 32C1164.27 32 1169 36.7753 1169 42.6775C1169 56.0483 1156.69 63.9371 1151.18 65.8281Z" fill="#E383A8"/>
<circle cx="1150.25" cy="13.25" r="1.25" fill="#D69DF4"/>
<circle cx="1157.25" cy="9.25" r="2.25" fill="#D69DF4"/>
<circle cx="1122.25" cy="27.25" r="1.25" fill="#DA7BCB"/>
<circle cx="1122.25" cy="17.25" r="2.25" fill="#E094C5"/>
<circle cx="1116.77" cy="55.7674" r="1.25" transform="rotate(-46.2372 1116.77 55.7674)" fill="#38B1E3"/>
<circle cx="1109.18" cy="50.1813" r="2.25" transform="rotate(-46.2372 1109.18 50.1813)" fill="#B1F69B"/>
<circle cx="1136.32" cy="79.3176" r="1.25" transform="rotate(-93.1909 1136.32 79.3176)" fill="#B0D5A5"/>
<circle cx="1126.37" cy="81.3718" r="2.25" transform="rotate(-93.1909 1126.37 81.3718)" fill="#B1F69B"/>
<circle cx="1165.32" cy="78.3176" r="1.25" transform="rotate(-93.1909 1165.32 78.3176)" fill="#35A0EF"/>
<circle cx="1160.02" cy="82.061" r="1.92037" transform="rotate(-93.1909 1160.02 82.061)" fill="#35A0EF"/>
<circle cx="1187.77" cy="63.0174" r="2.40953" transform="rotate(-15 1187.77 63.0174)" fill="#E0BE92"/>
<circle cx="1183.57" cy="54.6271" r="1.2832" transform="rotate(-15 1183.57 54.6271)" fill="#C8BD90"/>
<circle cx="1186" cy="28.0003" r="2.17607" transform="rotate(-57.8563 1186 28.0003)" fill="#F4BB33"/>
<circle cx="1176.85" cy="25.8546" r="1.34509" transform="rotate(-57.8563 1176.85 25.8546)" fill="#F7D577"/>
<path d="M1251.71 66.823C1251.05 67.059 1249.95 67.059 1249.29 66.823C1243.64 64.8764 1231 56.7556 1231 42.9916C1231 36.9157 1235.86 32 1241.84 32C1245.39 32 1248.45 35.4508 1250.42 38.125C1252.39 35.4508 1255.63 32 1259.16 32C1265.14 32 1270 36.9157 1270 42.9916C1270 56.7556 1257.36 64.8764 1251.71 66.823Z" fill="#E383A8"/>
<circle cx="1222" cy="28" r="1" fill="#C661D3"/>
<circle cx="1222" cy="18" r="2" fill="#E094C5"/>
<circle cx="1250" cy="14" r="1" fill="#BEBEDD"/>
<circle cx="1258" cy="10" r="2" fill="#D69DF4"/>
<circle cx="1216.39" cy="57.3879" r="1" transform="rotate(-56.0738 1216.39 57.3879)" fill="#7DC9CF"/>
<circle cx="1208.78" cy="51.7758" r="2" transform="rotate(-56.0738 1208.78 51.7758)" fill="#B0D5A5"/>
<circle cx="1277.41" cy="26.4135" r="1" transform="rotate(43.2452 1277.41 26.4135)" fill="#E2D14C"/>
<circle cx="1286.83" cy="28.827" r="2" transform="rotate(43.2452 1286.83 28.827)" fill="#F4BB33"/>
<circle cx="1284.13" cy="56.1348" r="1" transform="rotate(98.3629 1284.13 56.1348)" fill="#96C291"/>
<circle cx="1288.27" cy="65.2698" r="2" transform="rotate(98.3629 1288.27 65.2698)" fill="#C8BD90"/>
<circle cx="1266.13" cy="79.1348" r="1" transform="rotate(98.3629 1266.13 79.1348)" fill="#629CF3"/>
<circle cx="1260.27" cy="83.2696" r="2" transform="rotate(98.3629 1260.27 83.2696)" fill="#35A0EF"/>
<circle cx="1236.13" cy="80.1348" r="1" transform="rotate(98.3629 1236.13 80.1348)" fill="#A8A0B7"/>
<circle cx="1226.27" cy="82.1716" r="2" transform="rotate(98.3629 1226.27 82.1716)" fill="#B0D5A5"/>
<circle cx="1422.5" cy="50.5" r="0.5" fill="#F5EAFC"/>
<path d="M1451.59 64.8433C1450.99 65.0522 1450.01 65.0522 1449.42 64.8433C1444.34 63.1191 1433 55.9264 1433 43.7354C1433 38.3539 1437.36 34 1442.73 34C1445.91 34 1448.66 37.0565 1450.42 39.425C1452.19 37.0565 1455.1 34 1458.27 34C1463.64 34 1468 38.3539 1468 43.7354C1468 55.9264 1456.66 63.1191 1451.59 64.8433Z" fill="#E383A8"/>
<circle cx="1415.5" cy="57.5" r="0.5" fill="#C7EFC4"/>
<circle cx="1416.5" cy="57.5" r="0.5" fill="#D8F3CE"/>
<circle cx="1407.5" cy="52.5" r="0.5" fill="#A36CCE"/>
<circle cx="1406.5" cy="52.5" r="0.5" fill="#DCC7EC"/>
<circle cx="1408.5" cy="52.5" r="0.5" fill="#A36CCE"/>
<circle cx="1409.5" cy="52.5" r="0.5" fill="#F0DFF7"/>
<circle cx="1409.5" cy="51.5" r="0.5" fill="#C6A4E0"/>
<circle cx="1409.5" cy="50.5" r="0.5" fill="#DCC7EC"/>
<circle cx="1406.5" cy="50.5" r="0.5" fill="#C6A4E0"/>
<circle cx="1407.5" cy="49.5" r="0.5" fill="#F0DFF7"/>
<circle cx="1408.5" cy="49.5" r="0.5" fill="#F0DFF7"/>
<circle cx="1406.5" cy="51.5" r="0.5" fill="#A36CCE"/>
<circle cx="1408" cy="51" r="1" fill="#A36CCE"/>
<circle cx="1421.5" cy="27.5" r="0.5" fill="#9F32E2"/>
<circle cx="1422.5" cy="27.5" r="0.5" fill="#FAF4FD"/>
<circle cx="1420.5" cy="27.5" r="0.5" fill="#FAF4FD"/>
<circle cx="1421.5" cy="28.5" r="0.5" fill="#F0DFF7"/>
<circle cx="1421" cy="18" r="1" fill="#B342DE"/>
<circle cx="1420.5" cy="16.5" r="0.5" fill="#B342DE"/>
<circle cx="1421.5" cy="16.5" r="0.5" fill="#B342DE"/>
<circle cx="1422.5" cy="16.5" r="0.5" fill="#CB7FE9"/>
<circle cx="1422.5" cy="17.5" r="0.5" fill="#B342DE"/>
<circle cx="1422.5" cy="18.5" r="0.5" fill="#CB7FE9"/>
<circle cx="1420.5" cy="19.5" r="0.5" fill="#F5EAFC"/>
<circle cx="1419.5" cy="18.5" r="0.5" fill="#F0DFF7"/>
<circle cx="1419.5" cy="17.5" r="0.5" fill="#D7A7F1"/>
<circle cx="1421.5" cy="15.5" r="0.5" fill="#FAF4FD"/>
<circle cx="1421.5" cy="19.5" r="0.5" fill="#F0DFF7"/>
<circle cx="1449.5" cy="13.5" r="0.5" fill="#D5F5E7"/>
<circle cx="1450.5" cy="13.5" r="0.5" fill="#D5F5E7"/>
<circle cx="1449.5" cy="12.5" r="0.5" fill="#F1FBF7"/>
<circle cx="1450.5" cy="12.5" r="0.5" fill="#F1FBF7"/>
<circle cx="1458" cy="9" r="1" fill="#ADD7CB"/>
<circle cx="1456.5" cy="8.5" r="0.5" transform="rotate(180 1456.5 8.5)" fill="#ADD7CB"/>
<circle cx="1456.5" cy="9.5" r="0.5" transform="rotate(180 1456.5 9.5)" fill="#ADD7CB"/>
<circle cx="1456.5" cy="10.5" r="0.5" transform="rotate(180 1456.5 10.5)" fill="#E8F9F2"/>
<circle cx="1457.5" cy="10.5" r="0.5" transform="rotate(180 1457.5 10.5)" fill="#BCCECE"/>
<circle cx="1458.5" cy="10.5" r="0.5" transform="rotate(180 1458.5 10.5)" fill="#D8E5E1"/>
<circle cx="1459.5" cy="8.5" r="0.5" transform="rotate(180 1459.5 8.5)" fill="#F6FCF9"/>
<circle cx="1458.5" cy="7.5" r="0.5" transform="rotate(180 1458.5 7.5)" fill="#E8F9F2"/>
<circle cx="1457.5" cy="7.5" r="0.5" transform="rotate(180 1457.5 7.5)" fill="#D8E5E1"/>
<circle cx="1456.5" cy="7.5" r="0.5" transform="rotate(180 1456.5 7.5)" fill="#F6FCF9"/>
<circle cx="1459.5" cy="9.5" r="0.5" transform="rotate(180 1459.5 9.5)" fill="#F1FBF7"/>
<circle cx="1477.5" cy="26.5" r="0.5" fill="#CBEA8D"/>
<circle cx="1477.5" cy="25.5" r="0.5" fill="#F3FBE6"/>
<circle cx="1485.5" cy="28.5" r="0.5" fill="#F5E7AA"/>
<circle cx="1488.5" cy="28.5" r="0.5" fill="#D4E068"/>
<circle cx="1485.5" cy="29.5" r="0.5" fill="#F3FBE6"/>
<circle cx="1488.5" cy="29.5" r="0.5" fill="#DBF1A5"/>
<circle cx="1486.5" cy="30.5" r="0.5" fill="#FDF9F0"/>
<circle cx="1487.5" cy="30.5" r="0.5" fill="#F3FBE6"/>
<circle cx="1485.5" cy="27.5" r="0.5" fill="#FDF9F0"/>
<circle cx="1486.5" cy="27.5" r="0.5" fill="#D4E068"/>
<circle cx="1487.5" cy="27.5" r="0.5" fill="#D4E068"/>
<circle cx="1488.5" cy="27.5" r="0.5" fill="#DBF1A5"/>
<circle cx="1487" cy="29" r="1" fill="#D4E068"/>
<circle cx="1484.5" cy="55.5" r="0.5" fill="#2FCB90"/>
<circle cx="1484.5" cy="56.5" r="0.5" fill="#CBF0E0"/>
<circle cx="1487.5" cy="64.5" r="0.5" transform="rotate(-180 1487.5 64.5)" fill="#5FC595"/>
<circle cx="1487.5" cy="65.5" r="0.5" transform="rotate(-180 1487.5 65.5)" fill="#5FC595"/>
<circle cx="1488.5" cy="66.5" r="0.5" transform="rotate(-180 1488.5 66.5)" fill="#A0E5C8"/>
<circle cx="1489.5" cy="66.5" r="0.5" transform="rotate(-180 1489.5 66.5)" fill="#CBF0E0"/>
<circle cx="1490.5" cy="64.5" r="0.5" transform="rotate(-180 1490.5 64.5)" fill="#A0E5C8"/>
<circle cx="1490.5" cy="63.5" r="0.5" transform="rotate(-180 1490.5 63.5)" fill="#F7FDFB"/>
<circle cx="1489.5" cy="63.5" r="0.5" transform="rotate(-180 1489.5 63.5)" fill="#5FC595"/>
<circle cx="1488.5" cy="63.5" r="0.5" transform="rotate(-180 1488.5 63.5)" fill="#5FC595"/>
<circle cx="1490.5" cy="65.5" r="0.5" transform="rotate(-180 1490.5 65.5)" fill="#CBF0E0"/>
<circle cx="1487.5" cy="63.5" r="0.5" transform="rotate(-180 1487.5 63.5)" fill="#E5F6F1"/>
<circle cx="1489" cy="65" r="1" fill="#5FC595"/>
<circle cx="1465.5" cy="79.5" r="0.5" fill="#EDD8FC"/>
<circle cx="1465.5" cy="80.5" r="0.5" fill="#F9F1FE"/>
<circle cx="1466.5" cy="79.5" r="0.5" fill="#E8CCFB"/>
<circle cx="1466.5" cy="80.5" r="0.5" fill="#F7EFFE"/>
<circle cx="1459.5" cy="82.5" r="0.5" fill="#EEF0FD"/>
<circle cx="1458.5" cy="83.5" r="0.5" fill="#F7F7FB"/>
<circle cx="1461.5" cy="83.5" r="0.5" fill="#B6B8F6"/>
<circle cx="1461.5" cy="84.5" r="0.5" fill="#B6B8F6"/>
<circle cx="1460.5" cy="85.5" r="0.5" fill="#B6B8F6"/>
<circle cx="1459.5" cy="85.5" r="0.5" fill="#DDE1F9"/>
<circle cx="1458.5" cy="84.5" r="0.5" fill="#F7F7FB"/>
<circle cx="1460.5" cy="82.5" r="0.5" fill="#DDE1F9"/>
<circle cx="1460" cy="84" r="1" fill="#8B98F3"/>
<circle cx="1435.5" cy="80.5" r="0.5" fill="#9F32E2"/>
<circle cx="1435.5" cy="81.5" r="0.5" fill="#F5EAFC"/>
<circle cx="1436.5" cy="80.5" r="0.5" fill="#F0DFF7"/>
<circle cx="1427.5" cy="82.5" r="0.5" fill="#DCC7EC"/>
<circle cx="1426.5" cy="81.5" r="0.5" fill="#C6A4E0"/>
<circle cx="1426.5" cy="84.5" r="0.5" fill="#C6A4E0"/>
<circle cx="1425.5" cy="84.5" r="0.5" fill="#C6A4E0"/>
<circle cx="1424.5" cy="84.5" r="0.5" fill="#FAF4FD"/>
<circle cx="1424.5" cy="83.5" r="0.5" fill="#A36CCE"/>
<circle cx="1426" cy="83" r="1" fill="#A36CCE"/>
<circle cx="1424.5" cy="82.5" r="0.5" fill="#A36CCE"/>
<circle cx="1424.5" cy="81.5" r="0.5" fill="#F0DFF7"/>
<circle cx="1425.5" cy="81.5" r="0.5" fill="#A36CCE"/>
<circle cx="1427.5" cy="83.5" r="0.5" fill="#DCC7EC"/>
<path d="M1550.99 63.8534C1550.45 64.0489 1549.55 64.0489 1549.01 63.8534C1544.37 62.2405 1534 55.5118 1534 44.1073C1534 39.073 1537.98 35 1542.9 35C1545.81 35 1548.31 37.8593 1549.93 40.075C1551.55 37.8593 1554.21 35 1557.1 35C1562.02 35 1566 39.073 1566 44.1073C1566 55.5118 1555.63 62.2405 1550.99 63.8534Z" fill="#E383A8"/>
<circle cx="1515.5" cy="57.5" r="0.5" fill="#C7EFC4"/>
<circle cx="1506.5" cy="52.5" r="0.5" fill="#D7A7F1"/>
<circle cx="1506.5" cy="51.5" r="0.5" fill="#9F32E2"/>
<circle cx="1506.5" cy="50.5" r="0.5" fill="#B969EA"/>
<circle cx="1507.5" cy="49.5" r="0.5" fill="#F5EAFC"/>
<circle cx="1508.5" cy="52.5" r="0.5" fill="#B969EA"/>
<circle cx="1507.5" cy="52.5" r="0.5" fill="#9F32E2"/>
<circle cx="1509.5" cy="51.5" r="0.5" fill="#F5EAFC"/>
<circle cx="1508" cy="51" r="1" fill="#9F32E2"/>
<circle cx="1521.5" cy="18.5" r="0.5" fill="#9F32E2"/>
<circle cx="1522.5" cy="18.5" r="0.5" fill="#F5EAFC"/>
<circle cx="1519.5" cy="18.5" r="0.5" fill="#F5EAFC"/>
<circle cx="1519.5" cy="17.5" r="0.5" fill="#D7A7F1"/>
<circle cx="1519.5" cy="16.5" r="0.5" fill="#E7CCF8"/>
<circle cx="1520.5" cy="15.5" r="0.5" fill="#F5EAFC"/>
<circle cx="1521.5" cy="15.5" r="0.5" fill="#F5EAFC"/>
<circle cx="1522.5" cy="16.5" r="0.5" fill="#E7CCF8"/>
<circle cx="1522.5" cy="17.5" r="0.5" fill="#B969EA"/>
<circle cx="1520.5" cy="18.5" r="0.5" fill="#9F32E2"/>
<circle cx="1521" cy="17" r="1" fill="#9F32E2"/>
<circle cx="1521.5" cy="27.5" r="0.5" fill="#D7A7F1"/>
<circle cx="1520.5" cy="27.5" r="0.5" fill="#F5EAFC"/>
<circle cx="1549.5" cy="12.5" r="0.5" fill="#F1FBF7"/>
<circle cx="1550.5" cy="12.5" r="0.5" fill="#F1FBF7"/>
<circle cx="1556.5" cy="7.5" r="0.5" fill="#F1FBF7"/>
<circle cx="1556.5" cy="8.5" r="0.5" fill="#ACEACF"/>
<circle cx="1556.5" cy="9.5" r="0.5" fill="#BDF0D8"/>
<circle cx="1557.5" cy="10.5" r="0.5" fill="#E8F9F2"/>
<circle cx="1557.5" cy="7.5" r="0.5" fill="#BDF0D8"/>
<circle cx="1558.5" cy="7.5" r="0.5" fill="#D5F5E7"/>
<circle cx="1558" cy="9" r="1" fill="#A7EDB7"/>
<circle cx="1577.5" cy="25.5" r="0.5" fill="#F3FBE6"/>
<circle cx="1577.5" cy="26.5" r="0.5" fill="#F3FBE6"/>
<circle cx="1588.5" cy="29.5" r="0.5" fill="#DBF1A5"/>
<circle cx="1588.5" cy="27.5" r="0.5" fill="#DBF1A5"/>
<circle cx="1586.5" cy="27.5" r="0.5" fill="#DBF1A5"/>
<circle cx="1586.5" cy="28.5" r="0.5" fill="#CBEA8D"/>
<circle cx="1586.5" cy="29.5" r="0.5" fill="#DBF1A5"/>
<circle cx="1587.5" cy="27.5" r="0.5" fill="#CBEA8D"/>
<circle cx="1587.5" cy="28.5" r="0.5" fill="#CBEA8D"/>
<circle cx="1588.5" cy="28.5" r="0.5" fill="#CBEA8D"/>
<circle cx="1587.5" cy="29.5" r="0.5" fill="#CBEA8D"/>
<circle cx="1584.5" cy="55.5" r="0.5" fill="#CBF0E0"/>
<circle cx="1584.5" cy="56.5" r="0.5" fill="#F7FDFB"/>
<circle cx="1585.5" cy="55.5" r="0.5" fill="#F7FDFB"/>
<circle cx="1589" cy="65" r="1" fill="#2FCB90"/>
<circle cx="1588.5" cy="63.5" r="0.5" fill="#A0E5C8"/>
<circle cx="1588.5" cy="66.5" r="0.5" fill="#A0E5C8"/>
<circle cx="1587.5" cy="65.5" r="0.5" fill="#CBF0E0"/>
<circle cx="1590.5" cy="65.5" r="0.5" fill="#A0E5C8"/>
<circle cx="1587.5" cy="64.5" r="0.5" fill="#CBF0E0"/>
<circle cx="1590.5" cy="64.5" r="0.5" fill="#A0E5C8"/>
<circle cx="1589.5" cy="63.5" r="0.5" fill="#A0E5C8"/>
<circle cx="1589.5" cy="66.5" r="0.5" fill="#A0E5C8"/>
<circle cx="1566.5" cy="80.5" r="0.5" fill="#F6EBFD"/>
<circle cx="1566.5" cy="79.5" r="0.5" fill="#FDFAFF"/>
<circle cx="1560" cy="84" r="1" fill="#CD91F5"/>
<circle cx="1558.5" cy="82.5" r="0.5" fill="#D7A6F7"/>
<circle cx="1559.5" cy="85.5" r="0.5" fill="#EDD8FC"/>
<circle cx="1560.5" cy="85.5" r="0.5" fill="#DFB7F9"/>
<circle cx="1561.5" cy="85.5" r="0.5" fill="#FBF5FE"/>
<circle cx="1561.5" cy="84.5" r="0.5" fill="#DFB7F9"/>
<circle cx="1561.5" cy="83.5" r="0.5" fill="#F1DFFC"/>
<circle cx="1535.5" cy="80.5" r="0.5" fill="#E7CCF8"/>
<circle cx="1535.5" cy="81.5" r="0.5" fill="#F0DFF7"/>
<circle cx="1527.5" cy="82.5" r="0.5" fill="#FAF4FD"/>
<circle cx="1526.5" cy="81.5" r="0.5" fill="#F5EAFC"/>
<circle cx="1525.5" cy="81.5" r="0.5" fill="#F2E4FB"/>
<circle cx="1525.5" cy="84.5" r="0.5" fill="#B969EA"/>
<circle cx="1526.5" cy="84.5" r="0.5" fill="#D7A7F1"/>
<circle cx="1524.5" cy="82.5" r="0.5" fill="#B969EA"/>
<circle cx="1524.5" cy="84.5" r="0.5" fill="#E7CCF8"/>
<circle cx="1524.5" cy="83.5" r="0.5" fill="#9F32E2"/>
<circle cx="1526" cy="83" r="1" fill="#9F32E2"/>
<circle cx="1527.5" cy="83.5" r="0.5" fill="#F5EAFC"/>
<path d="M2453.74 60.2318C2453.34 60.3825 2452.66 60.3825 2452.26 60.2318C2448.78 58.9891 2441 53.8046 2441 45.0173C2441 41.1383 2443.99 38 2447.67 38C2449.86 38 2451.74 40.2031 2452.95 41.9103C2454.16 40.2031 2456.16 38 2458.33 38C2462.01 38 2465 41.1383 2465 45.0173C2465 53.8046 2457.22 58.9891 2453.74 60.2318Z" fill="#E383A8"/>
<path d="M2444.59 56.1359C2447.08 58.8022 2450.03 60.4966 2451.92 61.172C2452.26 61.2993 2452.66 61.3448 2453 61.3448C2453.34 61.3448 2453.74 61.2993 2454.08 61.172C2455.97 60.4966 2458.92 58.8022 2461.41 56.1359C2463.91 53.4535 2466 49.728 2466 45.0173C2466 40.6338 2462.61 37 2458.33 37C2456.91 37 2455.64 37.7144 2454.64 38.545C2454.01 39.0648 2453.45 39.6658 2452.95 40.2592C2452.48 39.6712 2451.93 39.0729 2451.32 38.5546C2450.35 37.7189 2449.1 37 2447.67 37C2443.39 37 2440 40.6338 2440 45.0173C2440 49.728 2442.09 53.4535 2444.59 56.1359Z" stroke="#904C21" stroke-opacity="0.3" stroke-width="2" stroke-linecap="round" stroke-linejoin="round"/>
<path d="M2553.74 59.4908C2553.34 59.6364 2552.66 59.6364 2552.26 59.4908C2548.78 58.2894 2541 53.2778 2541 44.7834C2541 41.0337 2543.99 38 2547.67 38C2549.86 38 2551.74 40.1297 2552.95 41.78C2554.16 40.1297 2556.16 38 2558.33 38C2562.01 38 2565 41.0337 2565 44.7834C2565 53.2778 2557.22 58.2894 2553.74 59.4908Z" fill="#E383A8"/>
<path d="M2544.6 55.5664C2547.09 58.1459 2550.04 59.7828 2551.93 60.4345C2552.27 60.5564 2552.66 60.6 2553 60.6C2553.34 60.6 2553.73 60.5564 2554.07 60.4345C2555.96 59.7828 2558.91 58.1459 2561.4 55.5664C2563.9 52.9721 2566 49.3593 2566 44.7834C2566 40.4967 2562.58 37 2558.33 37C2556.92 37 2555.66 37.6857 2554.65 38.4907C2554.02 38.9974 2553.45 39.5839 2552.95 40.1625C2552.47 39.5894 2551.92 39.0053 2551.31 38.5001C2550.33 37.6899 2549.09 37 2547.67 37C2543.42 37 2540 40.4967 2540 44.7834C2540 49.3593 2542.1 52.9721 2544.6 55.5664Z" stroke="#904C21" stroke-opacity="0.53" stroke-width="2" stroke-linecap="round" stroke-linejoin="round"/>
<path d="M2653.74 60.2319C2653.34 60.3825 2652.66 60.3825 2652.26 60.2319C2648.78 58.9891 2641 53.8046 2641 45.0173C2641 41.1383 2643.99 38 2647.67 38C2649.86 38 2651.74 40.2031 2652.95 41.9103C2654.16 40.2031 2656.16 38 2658.33 38C2662.01 38 2665 41.1383 2665 45.0173C2665 53.8046 2657.22 58.9891 2653.74 60.2319Z" fill="#E383A8"/>
<path d="M2644.59 56.1359C2647.08 58.8023 2650.03 60.4967 2651.92 61.1721C2652.26 61.2994 2652.66 61.3448 2653 61.3448C2653.34 61.3448 2653.74 61.2994 2654.08 61.1721C2655.97 60.4967 2658.92 58.8023 2661.41 56.1359C2663.91 53.4536 2666 49.728 2666 45.0173C2666 40.6338 2662.61 37 2658.33 37C2656.91 37 2655.64 37.7144 2654.64 38.545C2654.01 39.0648 2653.45 39.6658 2652.95 40.2592C2652.48 39.6712 2651.93 39.0729 2651.32 38.5546C2650.35 37.7189 2649.1 37 2647.67 37C2643.39 37 2640 40.6338 2640 45.0173C2640 49.728 2642.09 53.4536 2644.59 56.1359Z" stroke="#904C21" stroke-opacity="0.7" stroke-width="2" stroke-linecap="round" stroke-linejoin="round"/>
<path d="M2753.74 59.5521C2753.34 59.7049 2752.66 59.7049 2752.26 59.5521C2748.78 58.2914 2741 53.0322 2741 44.1183C2741 40.1835 2743.99 37 2747.67 37C2749.86 37 2751.74 39.2348 2752.95 40.9667C2754.16 39.2348 2756.16 37 2758.33 37C2762.01 37 2765 40.1835 2765 44.1183C2765 53.0322 2757.22 58.2914 2753.74 59.5521Z" fill="#E383A8"/>
<path d="M2744.59 55.3821C2747.07 58.0857 2750.02 59.8049 2751.91 60.4907C2752.26 60.6204 2752.66 60.6667 2753 60.6667C2753.34 60.6667 2753.74 60.6204 2754.09 60.4907C2755.98 59.8049 2758.93 58.0857 2761.41 55.3821C2763.91 52.6618 2766 48.8875 2766 44.1183C2766 39.6928 2762.62 36 2758.33 36C2756.9 36 2755.64 36.7269 2754.63 37.5685C2754.01 38.0939 2753.44 38.7011 2752.95 39.3008C2752.48 38.7065 2751.93 38.102 2751.33 37.5782C2750.35 36.7314 2749.11 36 2747.67 36C2743.38 36 2740 39.6928 2740 44.1183C2740 48.8875 2742.09 52.6618 2744.59 55.3821Z" stroke="#904C21" stroke-opacity="0.8" stroke-width="2" stroke-linecap="round" stroke-linejoin="round"/>
<path d="M2843.6 55.8722C2846.09 58.4984 2849.03 60.1662 2850.92 60.8306C2851.27 60.9554 2851.66 61 2852 61C2852.34 61 2852.73 60.9554 2853.08 60.8306C2854.97 60.1662 2857.91 58.4984 2860.4 55.8722C2862.91 53.2306 2865 49.5572 2865 44.909C2865 40.5704 2861.6 37 2857.33 37C2855.91 37 2854.65 37.7011 2853.65 38.5199C2853.02 39.0336 2852.45 39.6279 2851.95 40.2145C2851.48 39.6334 2850.93 39.0416 2850.32 38.5294C2849.34 37.7054 2848.1 37 2846.67 37C2842.4 37 2839 40.5704 2839 44.909C2839 49.5572 2841.09 53.2306 2843.6 55.8722Z" fill="#E383A8" stroke="#904C21" stroke-width="2" stroke-linecap="round" stroke-linejoin="round"/>
<circle cx="1388.5" cy="64.5" r="1.5" fill="#96C291"/>
<circle cx="1386.5" cy="64.5" r="0.5" fill="#E0EFDE"/>
<circle cx="1390.5" cy="64.5" r="0.5" fill="#E0EFDE"/>
<circle cx="1386.5" cy="65.5" r="0.5" fill="#F7FBF4"/>
<circle cx="1390.5" cy="65.5" r="0.5" fill="#EFF8EE"/>
<circle cx="1389.5" cy="66.5" r="0.5" fill="#E0EFDE"/>
<circle cx="1388.5" cy="66.5" r="0.5" fill="#D8F3CE"/>
<circle cx="1387.5" cy="66.5" r="0.5" fill="#E0EFDE"/>
<circle cx="1383.5" cy="55.5" r="0.5" fill="#A0E5C8"/>
<circle cx="1384.5" cy="55.5" r="0.5" fill="#5FC595"/>
<circle cx="1384.5" cy="56.5" r="0.5" fill="#CBF0E0"/>
<circle cx="1383.5" cy="56.5" r="0.5" fill="#E5F6F1"/>
<circle cx="1337.5" cy="50.5" r="0.5" fill="#FEFCFE"/>
<path d="M1351.65 65.8331C1351.02 66.0556 1349.98 66.0556 1349.35 65.8331C1343.99 63.9978 1332 56.341 1332 43.3635C1332 37.6348 1336.61 33 1342.29 33C1345.65 33 1348.55 36.2537 1350.42 38.775C1352.29 36.2537 1355.37 33 1358.71 33C1364.39 33 1369 37.6348 1369 43.3635C1369 56.341 1357.01 63.9978 1351.65 65.8331Z" fill="#E383A8"/>
<circle cx="1377.64" cy="26.636" r="0.45" transform="rotate(43.2452 1377.64 26.636)" fill="#D4E068"/>
<circle cx="1376.64" cy="26.636" r="0.45" transform="rotate(43.2452 1376.64 26.636)" fill="#DBF1A5"/>
<circle cx="1376.64" cy="25.636" r="0.45" transform="rotate(43.2452 1376.64 25.636)" fill="#FDF9F0"/>
<circle cx="1377.64" cy="25.636" r="0.45" transform="rotate(43.2452 1377.64 25.636)" fill="#F3FBE6"/>
<circle cx="1385.45" cy="27.45" r="0.45" fill="#F5E7AA"/>
<circle cx="1388.45" cy="27.45" r="0.45" fill="#FBF0D7"/>
<circle cx="1388.5" cy="28.5001" r="0.5" fill="#E2D14C"/>
<circle cx="1385.5" cy="28.5001" r="0.5" fill="#E2D14C"/>
<circle cx="1386.5" cy="29.5001" r="0.5" fill="#E2D14C"/>
<circle cx="1385.5" cy="29.5001" r="0.5" fill="#E8DB73"/>
<circle cx="1388.5" cy="29.5001" r="0.5" fill="#E8DB73"/>
<circle cx="1387.5" cy="30.5001" r="0.5" fill="#F5E7AA"/>
<circle cx="1386.5" cy="30.5001" r="0.5" fill="#F5E7AA"/>
<circle cx="1387.5" cy="29.5001" r="0.5" fill="#E2D14C"/>
<circle cx="1387" cy="28.0001" r="1" fill="#E2D14C"/>
<circle cx="1365.5" cy="78.5" r="0.5" fill="#EEF0FD"/>
<circle cx="1365.5" cy="79.5" r="0.5" fill="#8B98F3"/>
<circle cx="1366.5" cy="79.5" r="0.5" fill="#B6B8F6"/>
<circle cx="1366.5" cy="80.5" r="0.5" fill="#F7F7FB"/>
<circle cx="1365.5" cy="80.5" r="0.5" fill="#EEF0FD"/>
<circle cx="1359.5" cy="82.5" r="0.5" fill="#97BBF1"/>
<circle cx="1359.5" cy="85.5" r="0.5" fill="#DCEBF9"/>
<circle cx="1360.5" cy="85.5" r="0.5" fill="#C7E1F9"/>
<circle cx="1360.5" cy="82.5" r="0.5" fill="#629CF3"/>
<circle cx="1361.5" cy="82.5" r="0.5" fill="#EEF0FD"/>
<circle cx="1361.5" cy="83.5" r="0.5" fill="#629CF3"/>
<circle cx="1358.5" cy="83.5" r="0.5" fill="#C7E1F9"/>
<circle cx="1361.5" cy="84.5" r="0.5" fill="#97BBF1"/>
<circle cx="1358.5" cy="84.5" r="0.5" fill="#DCEBF9"/>
<circle cx="1360" cy="84" r="1" fill="#629CF3"/>
<circle cx="1335.5" cy="79.5" r="0.5" fill="#DCC7EC"/>
<circle cx="1335.5" cy="80.5" r="0.5" fill="#A36CCE"/>
<circle cx="1335.5" cy="81.5" r="0.5" fill="#FAF4FD"/>
<circle cx="1336.5" cy="80.5" r="0.5" fill="#C6A4E0"/>
<circle cx="1336.5" cy="79.5" r="0.5" fill="#F5EAFC"/>
<circle cx="1324.5" cy="81.5" r="0.5" fill="#D8D4E3"/>
<circle cx="1327.5" cy="81.5" r="0.5" fill="#D8D4E3"/>
<circle cx="1324.5" cy="82.5" r="0.5" fill="#A8A0B7"/>
<circle cx="1327.5" cy="82.5" r="0.5" fill="#A8A0B7"/>
<circle cx="1324.5" cy="83.5" r="0.5" fill="#C2C4D1"/>
<circle cx="1327.5" cy="83.5" r="0.5" fill="#C2C4D1"/>
<circle cx="1326" cy="83" r="1" fill="#A8A0B7"/>
<circle cx="1325.5" cy="81.5" r="0.5" fill="#A8A0B7"/>
<circle cx="1326.5" cy="81.5" r="0.5" fill="#A8A0B7"/>
<circle cx="1325.5" cy="80.5" r="0.5" fill="#F7F7FB"/>
<circle cx="1325.5" cy="84.5" r="0.5" fill="#D8D4E3"/>
<circle cx="1326.5" cy="80.5" r="0.5" fill="#F7F7FB"/>
<circle cx="1326.5" cy="84.5" r="0.5" fill="#D8D4E3"/>
<circle cx="1316.5" cy="56.5" r="0.5" fill="#E8F9F2"/>
<circle cx="1315.5" cy="56.5" r="0.5" fill="#F9FDFB"/>
<circle cx="1315.5" cy="57.5" r="0.5" fill="#D5F5E7"/>
<circle cx="1316.5" cy="57.5" r="0.5" fill="#79D9B0"/>
<circle cx="1316.5" cy="58.5" r="0.5" fill="#F1FBF7"/>
<circle cx="1306.5" cy="50.5" r="0.5" fill="#E5E5EE"/>
<circle cx="1309.5" cy="50.5" r="0.5" fill="#A8A0B7"/>
<circle cx="1306.5" cy="51.5" r="0.5" fill="#C2C4D1"/>
<circle cx="1309.5" cy="51.5" r="0.5" fill="#A8A0B7"/>
<circle cx="1306.5" cy="52.5" r="0.5" fill="#F1F2F5"/>
<circle cx="1309.5" cy="52.5" r="0.5" fill="#C2C4D1"/>
<circle cx="1308" cy="52" r="1" fill="#A8A0B7"/>
<circle cx="1307.5" cy="50.5" r="0.5" fill="#A8A0B7"/>
<circle cx="1308.5" cy="50.5" r="0.5" fill="#A8A0B7"/>
<circle cx="1307.5" cy="49.5" r="0.5" fill="#E5E5EE"/>
<circle cx="1307.5" cy="53.5" r="0.5" fill="#FCFDFC"/>
<circle cx="1308.5" cy="49.5" r="0.5" fill="#D8D4E3"/>
<circle cx="1309.5" cy="49.5" r="0.5" fill="#F7F7FB"/>
<circle cx="1310.5" cy="51.5" r="0.5" fill="#F7F7FB"/>
<circle cx="1308.5" cy="53.5" r="0.5" fill="#F7F7FB"/>
<circle cx="1321.5" cy="27.5" r="0.5" fill="#B342DE"/>
<circle cx="1322.5" cy="27.5" r="0.5" fill="#D7A7F1"/>
<circle cx="1321.5" cy="28.5" r="0.5" fill="#CB7FE9"/>
<circle cx="1322.5" cy="28.5" r="0.5" fill="#F0DFF7"/>
<circle cx="1321" cy="18" r="1" fill="#C661D3"/>
<circle cx="1321.5" cy="16.5" r="0.5" fill="#C661D3"/>
<circle cx="1321.5" cy="15.5" r="0.5" fill="#FAF4FD"/>
<circle cx="1322.5" cy="16.5" r="0.5" fill="#D085DA"/>
<circle cx="1323.5" cy="17.5" r="0.5" fill="#F6E2F3"/>
<circle cx="1322.5" cy="17.5" r="0.5" fill="#C661D3"/>
<circle cx="1322.5" cy="18.5" r="0.5" fill="#C661D3"/>
<circle cx="1323.5" cy="18.5" r="0.5" fill="#F9ECF7"/>
<circle cx="1322.5" cy="19.5" r="0.5" fill="#F1D0EC"/>
<circle cx="1321.5" cy="19.5" r="0.5" fill="#D085DA"/>
<circle cx="1320.5" cy="19.5" r="0.5" fill="#EABFE6"/>
<circle cx="1319.5" cy="18.5" r="0.5" fill="#F6E2F3"/>
<circle cx="1319.5" cy="17.5" r="0.5" fill="#F1D0EC"/>
<circle cx="1320.5" cy="16.5" r="0.5" fill="#C661D3"/>
<circle cx="1349.5" cy="14.5" r="0.5" fill="#F6FCF9"/>
<circle cx="1349.5" cy="12.5" r="0.5" fill="#F6FCF9"/>
<circle cx="1349.5" cy="13.5" r="0.5" fill="#ADD7CB"/>
<circle cx="1350.5" cy="14.5" r="0.5" fill="#F6FCF9"/>
<circle cx="1350.5" cy="12.5" r="0.5" fill="#F6FCF9"/>
<circle cx="1350.5" cy="13.5" r="0.5" fill="#ADD7CB"/>
<circle cx="1356.5" cy="7.5" r="0.5" fill="#F7F7FB"/>
<circle cx="1355.5" cy="8.5" r="0.5" fill="#FCFDFE"/>
<circle cx="1359.5" cy="8.5" r="0.5" fill="#F7FBFE"/>
<circle cx="1358.5" cy="8.5" r="0.5" fill="#BEBEDD"/>
<circle cx="1355.5" cy="9.5" r="0.5" fill="#F1F2F5"/>
<circle cx="1359.5" cy="9.5" r="0.5" fill="#E5E5EE"/>
<circle cx="1358.5" cy="9.5" r="0.5" fill="#BEBEDD"/>
<circle cx="1358.5" cy="10.5" r="0.5" fill="#BEBEDD"/>
<circle cx="1357.5" cy="10.5" r="0.5" fill="#BEBEDD"/>
<circle cx="1357.5" cy="11.5" r="0.5" fill="#F7FBFE"/>
<circle cx="1356.5" cy="10.5" r="0.5" fill="#BEBEDD"/>
<circle cx="1357.5" cy="7.5" r="0.5" fill="#ECDEEC"/>
<circle cx="1358.5" cy="7.5" r="0.5" fill="#F7FBFE"/>
<circle cx="1357" cy="9" r="1" fill="#BEBEDD"/>
<circle cx="1662.5" cy="50.5" r="0.5" fill="#F9FDFB"/>
<path d="M1649.82 63.4107C1649.29 63.6013 1648.42 63.6013 1647.89 63.4107C1643.37 61.8387 1633.26 55.2808 1633.26 44.1657C1633.26 39.2592 1637.15 35.2896 1641.93 35.2896C1644.77 35.2896 1647.22 38.0763 1648.79 40.2358C1650.37 38.0763 1652.96 35.2896 1655.78 35.2896C1660.57 35.2896 1664.45 39.2592 1664.45 44.1657C1664.45 55.2808 1654.35 61.8387 1649.82 63.4107Z" fill="#E383A8"/>
<circle cx="1620.59" cy="17.7462" r="0.974623" fill="#9F32E2"/>
<circle cx="1620.11" cy="16.2843" r="0.487312" fill="#F0DFF7"/>
<circle cx="1619.13" cy="17.2589" r="0.487312" fill="#D7A7F1"/>
<circle cx="1619.13" cy="18.2337" r="0.487312" fill="#D7A7F1"/>
<circle cx="1620.11" cy="19.2083" r="0.487312" fill="#D7A7F1"/>
<circle cx="1621.08" cy="19.2083" r="0.487312" fill="#E7CCF8"/>
<circle cx="1622.06" cy="18.2337" r="0.487312" fill="#F5EAFC"/>
<circle cx="1622.06" cy="17.2589" r="0.487312" fill="#FAF4FD"/>
<circle cx="1621.08" cy="16.2843" r="0.487312" fill="#FAF4FD"/>
<circle cx="1620.11" cy="27.9799" r="0.487312" fill="#FAF4FD"/>
<circle cx="1621.08" cy="27.9799" r="0.487312" fill="#FEFCFE"/>
<circle cx="1606.46" cy="51.3707" r="0.487312" fill="#9F32E2"/>
<circle cx="1605.49" cy="51.3707" r="0.487312" fill="#FAF4FD"/>
<circle cx="1607.44" cy="51.3707" r="0.487312" fill="#9F32E2"/>
<circle cx="1607.44" cy="52.3455" r="0.487312" fill="#9F32E2"/>
<circle cx="1608.41" cy="50.3961" r="0.487312" fill="#D7A7F1"/>
<circle cx="1606.46" cy="50.3961" r="0.487312" fill="#B969EA"/>
<circle cx="1608.41" cy="52.3455" r="0.487312" fill="#F0DFF7"/>
<circle cx="1608.41" cy="51.3707" r="0.487312" fill="#B969EA"/>
<circle cx="1606.46" cy="52.3455" r="0.487312" fill="#D7A7F1"/>
<circle cx="1607.44" cy="50.3961" r="0.487312" fill="#9F32E2"/>
<circle cx="1615.23" cy="57.2185" r="0.487312" fill="#F6FCF9"/>
<circle cx="1634.73" cy="80.6095" r="0.487312" fill="#F9ECF7"/>
<circle cx="1625.95" cy="82.5587" r="0.487312" fill="#9F32E2"/>
<circle cx="1625.95" cy="81.5841" r="0.487312" fill="#D7A7F1"/>
<circle cx="1625.95" cy="83.5333" r="0.487312" fill="#D7A7F1"/>
<circle cx="1624.98" cy="82.5587" r="0.487312" fill="#9F32E2"/>
<circle cx="1624.98" cy="81.5841" r="0.487312" fill="#9F32E2"/>
<circle cx="1624.98" cy="83.5333" r="0.487312" fill="#9F32E2"/>
<circle cx="1624.01" cy="82.5587" r="0.487312" fill="#9F32E2"/>
<circle cx="1624.01" cy="81.5841" r="0.487312" fill="#D7A7F1"/>
<circle cx="1624.01" cy="83.5333" r="0.487312" fill="#D7A7F1"/>
<circle cx="1664.94" cy="79.6349" r="0.487312" fill="#FBF4F7"/>
<circle cx="1660.07" cy="83.5333" r="0.487312" fill="#E2C6E4"/>
<circle cx="1660.07" cy="82.5587" r="0.487312" fill="#FCF8FE"/>
<circle cx="1660.07" cy="84.5079" r="0.487312" fill="#F7EFFE"/>
<circle cx="1659.09" cy="83.5333" r="0.487312" fill="#D69DF4"/>
<circle cx="1659.09" cy="82.5587" r="0.487312" fill="#E2C6E4"/>
<circle cx="1659.09" cy="84.5079" r="0.487312" fill="#D396D3"/>
<circle cx="1658.12" cy="83.5333" r="0.487312" fill="#D69DF4"/>
<circle cx="1658.12" cy="82.5587" r="0.487312" fill="#F6EBFD"/>
<circle cx="1658.12" cy="84.5079" r="0.487312" fill="#EDD8FC"/>
<circle cx="1656.17" cy="8.48731" r="0.487312" fill="#8CE8C3"/>
<circle cx="1657.14" cy="8.48731" r="0.487312" fill="#BDF0D8"/>
<circle cx="1657.14" cy="9.46204" r="0.487312" fill="#8CE8C3"/>
<circle cx="1657.14" cy="10.4367" r="0.487312" fill="#BDF0D8"/>
<circle cx="1656.17" cy="9.46204" r="0.487312" fill="#8CE8C3"/>
<circle cx="1655.19" cy="9.46204" r="0.487312" fill="#BDF0D8"/>
<circle cx="1655.19" cy="8.48731" r="0.487312" fill="#F1FBF7"/>
<circle cx="1656.17" cy="10.4367" r="0.487312" fill="#8CE8C3"/>
<circle cx="1655.19" cy="10.4367" r="0.487312" fill="#F1FBF7"/>
<circle cx="1686.38" cy="27.9797" r="0.487312" fill="#CBEA8D"/>
<circle cx="1687.36" cy="28.9544" r="0.487312" fill="#F7FBF4"/>
<circle cx="1686.38" cy="28.9544" r="0.487312" fill="#CBEA8D"/>
<circle cx="1686.38" cy="29.929" r="0.487312" fill="#D8F3CE"/>
<circle cx="1685.41" cy="29.929" r="0.487312" fill="#DBF1A5"/>
<circle cx="1684.43" cy="29.929" r="0.487312" fill="#F7FBF4"/>
<circle cx="1685.41" cy="28.9544" r="0.487312" fill="#CBEA8D"/>
<circle cx="1684.43" cy="28.9544" r="0.487312" fill="#DBF1A5"/>
<circle cx="1685.41" cy="27.9797" r="0.487312" fill="#CBEA8D"/>
<circle cx="1684.43" cy="27.9797" r="0.487312" fill="#F3FBE6"/>
<circle cx="1687.36" cy="63.0662" r="0.487312" fill="#D2F1E4"/>
<circle cx="1687.36" cy="65.99" r="0.487312" fill="#A0E5C8"/>
<circle cx="1686.38" cy="65.99" r="0.487312" fill="#E5F6F1"/>
<circle cx="1688.33" cy="65.99" r="0.487312" fill="#F7FDFB"/>
<circle cx="1686.38" cy="65.0154" r="0.487312" fill="#2FCB90"/>
<circle cx="1686.38" cy="64.0408" r="0.487312" fill="#2FCB90"/>
<circle cx="1687.36" cy="64.0408" r="0.487312" fill="#2FCB90"/>
<circle cx="1688.33" cy="64.0408" r="0.487312" fill="#A0E5C8"/>
<circle cx="1687.36" cy="65.0154" r="0.487312" fill="#2FCB90"/>
<circle cx="1688.33" cy="65.0154" r="0.487312" fill="#2FCB90"/>
<circle cx="1664.94" cy="79.6348" r="0.487312" fill="#FBF4F7"/>
<circle cx="1658.12" cy="84.5078" r="0.487312" fill="#EDD8FC"/>
<circle cx="1658.12" cy="83.5332" r="0.487312" fill="#D69DF4"/>
<circle cx="1658.12" cy="82.5586" r="0.487312" fill="#F6EBFD"/>
<circle cx="1659.09" cy="84.5078" r="0.487312" fill="#D396D3"/>
<circle cx="1659.09" cy="83.5332" r="0.487312" fill="#D69DF4"/>
<circle cx="1659.09" cy="82.5586" r="0.487312" fill="#E2C6E4"/>
<circle cx="1660.07" cy="84.5078" r="0.487312" fill="#F7EFFE"/>
<circle cx="1660.07" cy="83.5332" r="0.487312" fill="#E2C6E4"/>
<circle cx="1660.07" cy="82.5586" r="0.487312" fill="#FCF8FE"/>
<circle cx="1634.73" cy="80.6094" r="0.487312" fill="#F9ECF7"/>
<circle cx="1624.01" cy="81.584" r="0.487312" fill="#D7A7F1"/>
<circle cx="1624.98" cy="81.584" r="0.487312" fill="#9F32E2"/>
<circle cx="1625.95" cy="81.584" r="0.487312" fill="#D7A7F1"/>
<circle cx="1624.01" cy="82.5586" r="0.487312" fill="#9F32E2"/>
<circle cx="1624.98" cy="82.5586" r="0.487312" fill="#9F32E2"/>
<circle cx="1625.95" cy="82.5586" r="0.487312" fill="#9F32E2"/>
<circle cx="1624.01" cy="83.5332" r="0.487312" fill="#D7A7F1"/>
<circle cx="1624.98" cy="83.5332" r="0.487312" fill="#9F32E2"/>
<circle cx="1625.95" cy="83.5332" r="0.487312" fill="#D7A7F1"/>
<circle cx="1615.23" cy="57.2185" r="0.487312" fill="#F6FCF9"/>
<circle cx="1605.49" cy="51.3707" r="0.487312" fill="#FAF4FD"/>
<circle cx="1606.46" cy="51.3707" r="0.487312" fill="#9F32E2"/>
<circle cx="1607.44" cy="51.3707" r="0.487312" fill="#9F32E2"/>
<circle cx="1608.41" cy="51.3707" r="0.487312" fill="#B969EA"/>
<circle cx="1606.46" cy="52.3455" r="0.487312" fill="#D7A7F1"/>
<circle cx="1607.44" cy="52.3455" r="0.487312" fill="#9F32E2"/>
<circle cx="1608.41" cy="52.3455" r="0.487312" fill="#F0DFF7"/>
<circle cx="1606.46" cy="50.3961" r="0.487312" fill="#B969EA"/>
<circle cx="1607.44" cy="50.3961" r="0.487312" fill="#9F32E2"/>
<circle cx="1608.41" cy="50.3961" r="0.487312" fill="#D7A7F1"/>
<path d="M1751.23 62.461C1750.73 62.6384 1749.91 62.6384 1749.41 62.461C1745.17 60.9974 1735.7 54.8917 1735.7 44.5432C1735.7 39.9751 1739.34 36.2792 1743.83 36.2792C1746.49 36.2792 1748.78 38.8737 1750.26 40.8843C1751.73 38.8737 1754.17 36.2792 1756.81 36.2792C1761.3 36.2792 1764.94 39.9751 1764.94 44.5432C1764.94 54.8917 1755.47 60.9974 1751.23 62.461Z" fill="#E383A8"/>
<circle cx="1760.55" cy="82.5737" r="0.487312" fill="#FBF4F7"/>
<circle cx="1760.55" cy="83.5483" r="0.487312" fill="#CAADC6"/>
<circle cx="1759.58" cy="83.5483" r="0.487312" fill="#E2C6E4"/>
<circle cx="1761.53" cy="83.5483" r="0.487312" fill="#ECDEEC"/>
<circle cx="1760.55" cy="84.523" r="0.487312" fill="#CAADC6"/>
<circle cx="1759.58" cy="84.523" r="0.487312" fill="#ECDEEC"/>
<circle cx="1761.53" cy="84.523" r="0.487312" fill="#F5E8F4"/>
<circle cx="1726.44" cy="81.5991" r="0.487312" fill="#EABFE6"/>
<circle cx="1727.42" cy="81.5991" r="0.487312" fill="#FEFCFE"/>
<circle cx="1725.47" cy="81.5991" r="0.487312" fill="#F0DFF7"/>
<circle cx="1726.44" cy="82.5737" r="0.487312" fill="#C661D3"/>
<circle cx="1725.47" cy="82.5737" r="0.487312" fill="#C661D3"/>
<circle cx="1727.42" cy="82.5737" r="0.487312" fill="#EABFE6"/>
<circle cx="1726.44" cy="83.5483" r="0.487312" fill="#C661D3"/>
<circle cx="1725.47" cy="83.5483" r="0.487312" fill="#D085DA"/>
<circle cx="1727.42" cy="83.5483" r="0.487312" fill="#F0DFF7"/>
<circle cx="1707.92" cy="50.4111" r="0.487312" fill="#D085DA"/>
<circle cx="1707.92" cy="51.3857" r="0.487312" fill="#C661D3"/>
<circle cx="1706.95" cy="51.3857" r="0.487312" fill="#F9ECF7"/>
<circle cx="1707.92" cy="52.3605" r="0.487312" fill="#EABFE6"/>
<circle cx="1708.9" cy="50.4111" r="0.487312" fill="#D085DA"/>
<circle cx="1708.9" cy="51.3857" r="0.487312" fill="#C661D3"/>
<circle cx="1709.87" cy="51.3857" r="0.487312" fill="#F0DFF7"/>
<circle cx="1708.9" cy="52.3605" r="0.487312" fill="#E7ADDC"/>
<circle cx="1720.59" cy="17.2739" r="0.487312" fill="#C6A4E0"/>
<circle cx="1720.59" cy="18.2487" r="0.487312" fill="#DCC7EC"/>
<circle cx="1721.57" cy="17.2739" r="0.487312" fill="#A36CCE"/>
<circle cx="1721.57" cy="16.2993" r="0.487312" fill="#F0DFF7"/>
<circle cx="1721.57" cy="18.2487" r="0.487312" fill="#A36CCE"/>
<circle cx="1721.57" cy="19.2233" r="0.487312" fill="#FAF4FD"/>
<circle cx="1722.54" cy="17.2739" r="0.487312" fill="#A36CCE"/>
<circle cx="1722.54" cy="16.2993" r="0.487312" fill="#FAF4FD"/>
<circle cx="1722.54" cy="18.2487" r="0.487312" fill="#C6A4E0"/>
<circle cx="1756.66" cy="8.50233" r="0.487312" fill="#F6FCF9"/>
<circle cx="1756.66" cy="9.47706" r="0.487312" fill="#E3F7EC"/>
<circle cx="1757.63" cy="8.50233" r="0.487312" fill="#9BDBC5"/>
<circle cx="1757.63" cy="9.47706" r="0.487312" fill="#8CE8C3"/>
<circle cx="1757.63" cy="10.4517" r="0.487312" fill="#E3F7EC"/>
<circle cx="1758.6" cy="8.50233" r="0.487312" fill="#ACEACF"/>
<circle cx="1758.6" cy="9.47706" r="0.487312" fill="#8CE8C3"/>
<circle cx="1758.6" cy="10.4517" r="0.487312" fill="#F1FBF7"/>
<circle cx="1786.87" cy="27.9949" r="0.487312" fill="#CBEA8D"/>
<circle cx="1786.87" cy="28.9695" r="0.487312" fill="#CBEA8D"/>
<circle cx="1785.89" cy="28.9695" r="0.487312" fill="#F7FBF4"/>
<circle cx="1786.87" cy="29.9441" r="0.487312" fill="#F3FBE6"/>
<circle cx="1787.84" cy="27.9949" r="0.487312" fill="#CBEA8D"/>
<circle cx="1787.84" cy="28.9695" r="0.487312" fill="#CBEA8D"/>
<circle cx="1788.82" cy="28.9695" r="0.487312" fill="#F6F6EF"/>
<circle cx="1787.84" cy="29.9441" r="0.487312" fill="#F3FBE6"/>
<circle cx="1787.84" cy="64.0559" r="0.487312" fill="#CBF0E0"/>
<circle cx="1788.82" cy="64.0559" r="0.487312" fill="#5FC595"/>
<circle cx="1789.79" cy="64.0559" r="0.487312" fill="#7DC9CF"/>
<circle cx="1787.84" cy="65.0305" r="0.487312" fill="#A0E5C8"/>
<circle cx="1788.82" cy="65.0305" r="0.487312" fill="#5FC595"/>
<circle cx="1789.79" cy="65.0305" r="0.487312" fill="#5FC595"/>
<circle cx="1787.84" cy="66.0051" r="0.487312" fill="#F7FDFB"/>
<circle cx="1788.82" cy="66.0051" r="0.487312" fill="#BEE8E7"/>
<circle cx="1789.79" cy="66.0051" r="0.487312" fill="#E5F6F1"/>
<g opacity="0.5">
<circle cx="1909.5" cy="49.5" r="0.5" fill="#F7D3D9"/>
<circle cx="1909.5" cy="50.5" r="0.5" fill="#E1A2A0"/>
<circle cx="1908.5" cy="50.5" r="0.5" fill="#F7D3D9"/>
<circle cx="1910.5" cy="50.5" r="0.5" fill="#F7E2E6"/>
<circle cx="1909.5" cy="51.5" r="0.5" fill="#F7E2E6"/>
</g>
<path d="M1850.69 62.461C1850.19 62.6384 1849.37 62.6384 1848.88 62.461C1844.64 60.9974 1835.16 54.8917 1835.16 44.5432C1835.16 39.9751 1838.8 36.2792 1843.29 36.2792C1845.95 36.2792 1848.24 38.8737 1849.72 40.8843C1851.2 38.8737 1853.63 36.2792 1856.27 36.2792C1860.76 36.2792 1864.4 39.9751 1864.4 44.5432C1864.4 54.8917 1854.93 60.9974 1850.69 62.461Z" fill="#E383A8"/>
<circle cx="1857.09" cy="9.47706" r="0.487312" fill="#A6E1E2"/>
<circle cx="1857.09" cy="8.50233" r="0.487312" fill="#A6E1E2"/>
<circle cx="1858.07" cy="9.47706" r="0.487312" fill="#A6E1E2"/>
<circle cx="1858.07" cy="8.50233" r="0.487312" fill="#A6E1E2"/>
<circle cx="1821.03" cy="16.2993" r="0.487312" fill="#E5E5EE"/>
<circle cx="1821.03" cy="17.2739" r="0.487312" fill="#A8A0B7"/>
<circle cx="1822.01" cy="17.2739" r="0.487312" fill="#D8D4E3"/>
<circle cx="1822.01" cy="18.2487" r="0.487312" fill="#F7F7FB"/>
<circle cx="1820.06" cy="17.2739" r="0.487312" fill="#C2C4D1"/>
<circle cx="1820.06" cy="18.2487" r="0.487312" fill="#E5E5EE"/>
<circle cx="1821.03" cy="18.2487" r="0.487312" fill="#C2C4D1"/>
<circle cx="1807.39" cy="50.4111" r="0.487312" fill="#E7ADDC"/>
<circle cx="1807.39" cy="51.3857" r="0.487312" fill="#D391B6"/>
<circle cx="1806.41" cy="51.3857" r="0.487312" fill="#F6E2F3"/>
<circle cx="1807.39" cy="52.3605" r="0.487312" fill="#EABFE6"/>
<circle cx="1808.36" cy="50.4111" r="0.487312" fill="#F6E2F3"/>
<circle cx="1808.36" cy="51.3857" r="0.487312" fill="#D391B6"/>
<circle cx="1808.36" cy="52.3605" r="0.487312" fill="#F9ECF7"/>
<circle cx="1824.93" cy="82.5737" r="0.487312" fill="#D391B6"/>
<circle cx="1824.93" cy="83.5483" r="0.487312" fill="#D391B6"/>
<circle cx="1825.9" cy="82.5737" r="0.487312" fill="#D391B6"/>
<circle cx="1826.88" cy="82.5737" r="0.487312" fill="#FCF5FA"/>
<circle cx="1825.9" cy="81.5991" r="0.487312" fill="#FCF5FA"/>
<circle cx="1825.9" cy="83.5483" r="0.487312" fill="#D391B6"/>
<circle cx="1826.88" cy="83.5483" r="0.487312" fill="#FCF5FA"/>
<circle cx="1859.04" cy="83.5483" r="0.487312" fill="#F6F6EF"/>
<circle cx="1859.04" cy="84.523" r="0.487312" fill="#ECF0E9"/>
<circle cx="1860.02" cy="83.5483" r="0.487312" fill="#D4CBBA"/>
<circle cx="1860.02" cy="84.523" r="0.487312" fill="#D4CBBA"/>
<circle cx="1860.99" cy="83.5483" r="0.487312" fill="#F6F6EF"/>
<circle cx="1860.99" cy="84.523" r="0.487312" fill="#ECF0E9"/>
<circle cx="1888.28" cy="64.0559" r="0.487312" fill="#7DC9CF"/>
<circle cx="1889.26" cy="64.0559" r="0.487312" fill="#7DC9CF"/>
<circle cx="1889.26" cy="65.0305" r="0.487312" fill="#7DC9CF"/>
<circle cx="1888.28" cy="65.0305" r="0.487312" fill="#7DC9CF"/>
<circle cx="1888.28" cy="66.0051" r="0.487312" fill="#DCEBF9"/>
<circle cx="1889.26" cy="66.0051" r="0.487312" fill="#DCEBF9"/>
<circle cx="1887.31" cy="65.0305" r="0.487312" fill="#F4F9FD"/>
<circle cx="1887.31" cy="27.9948" r="0.487312" fill="#E0BE92"/>
<circle cx="1887.31" cy="28.9694" r="0.487312" fill="#E0BE92"/>
<circle cx="1888.28" cy="27.9948" r="0.487312" fill="#F8F1E7"/>
<circle cx="1888.28" cy="28.9694" r="0.487312" fill="#F8F1E7"/>
<circle cx="1886.33" cy="27.9948" r="0.487312" fill="#DED9BC"/>
<circle cx="1886.33" cy="28.9694" r="0.487312" fill="#EDCDAB"/>
<circle cx="1960.5" cy="49.5" r="0.5" fill="#96D8E9"/>
<circle cx="1960.5" cy="50.5" r="0.5" fill="#D9EFFC"/>
<circle cx="1961.5" cy="49.5" r="0.5" fill="#A5DAFA"/>
<circle cx="1961.5" cy="50.5" r="0.5" fill="#E6F4FD"/>
<path d="M1951.15 62.461C1950.65 62.6384 1949.84 62.6384 1949.34 62.461C1945.1 60.9974 1935.63 54.8917 1935.63 44.5432C1935.63 39.9751 1939.27 36.2792 1943.75 36.2792C1946.41 36.2792 1948.71 38.8737 1950.18 40.8843C1951.66 38.8737 1954.09 36.2792 1956.74 36.2792C1961.22 36.2792 1964.86 39.9751 1964.86 44.5432C1964.86 54.8917 1955.39 60.9974 1951.15 62.461Z" fill="#E383A8"/>
<circle cx="1986.79" cy="27.9949" r="0.487312" fill="#F8F1E7"/>
<circle cx="1986.79" cy="28.9695" r="0.487312" fill="#FDF9F0"/>
<circle cx="1987.77" cy="27.9949" r="0.487312" fill="#F7C193"/>
<circle cx="1987.77" cy="28.9695" r="0.487312" fill="#E0BE92"/>
<circle cx="1988.74" cy="27.9949" r="0.487312" fill="#F7E8D8"/>
<circle cx="1988.74" cy="28.9695" r="0.487312" fill="#F8F1E7"/>
<circle cx="1989.72" cy="64.0559" r="0.487312" fill="#DDE1F9"/>
<circle cx="1989.72" cy="65.0305" r="0.487312" fill="#699EDA"/>
<circle cx="1988.74" cy="65.0305" r="0.487312" fill="#97BBF1"/>
<circle cx="1988.74" cy="66.0051" r="0.487312" fill="#F4F9FD"/>
<circle cx="1988.74" cy="64.0559" r="0.487312" fill="#F7F7FB"/>
<circle cx="1990.69" cy="65.0305" r="0.487312" fill="#F4F9FD"/>
<circle cx="1989.72" cy="66.0051" r="0.487312" fill="#DCEBF9"/>
<circle cx="1959.5" cy="84.523" r="0.487312" fill="#F7FBF4"/>
<circle cx="1960.48" cy="83.5483" r="0.487312" fill="#E4EEDC"/>
<circle cx="1960.48" cy="84.523" r="0.487312" fill="#CBEA8D"/>
<circle cx="1960.48" cy="85.4976" r="0.487312" fill="#F7FBF4"/>
<circle cx="1961.45" cy="84.523" r="0.487312" fill="#F3FBE6"/>
<circle cx="1925.39" cy="82.5737" r="0.487312" fill="#F2D3C6"/>
<circle cx="1925.39" cy="83.5483" r="0.487312" fill="#E1A2A0"/>
<circle cx="1926.37" cy="82.5737" r="0.487312" fill="#F7D3D9"/>
<circle cx="1926.37" cy="83.5483" r="0.487312" fill="#E1A2A0"/>
<circle cx="1907.85" cy="51.3857" r="0.487312" fill="#E1A2A0"/>
<circle cx="1906.87" cy="51.3857" r="0.487312" fill="#F7D3D9"/>
<circle cx="1907.85" cy="52.3605" r="0.487312" fill="#F7E2E6"/>
<circle cx="1908.82" cy="51.3857" r="0.487312" fill="#F7E2E6"/>
<circle cx="1907.85" cy="50.4111" r="0.487312" fill="#F7D3D9"/>
<circle cx="1920.52" cy="16.2993" r="0.487312" fill="#F7FBF4"/>
<circle cx="1920.52" cy="17.2739" r="0.487312" fill="#96C291"/>
<circle cx="1921.49" cy="17.2739" r="0.487312" fill="#96C291"/>
<circle cx="1921.49" cy="18.2487" r="0.487312" fill="#EFF8EE"/>
<circle cx="1921.49" cy="16.2993" r="0.487312" fill="#E0EFDE"/>
<circle cx="1957.55" cy="8.50233" r="0.487312" fill="#96D8E9"/>
<circle cx="1958.53" cy="8.50233" r="0.487312" fill="#A5DAFA"/>
<circle cx="1958.53" cy="9.47706" r="0.487312" fill="#E6F4FD"/>
<circle cx="1957.55" cy="9.47706" r="0.487312" fill="#D9EFFC"/>
<path d="M2051.13 62.7806C2050.63 62.958 2049.81 62.958 2049.32 62.7806C2045.08 61.3173 2035.6 55.2128 2035.6 44.8661C2035.6 40.2989 2039.24 36.6036 2043.73 36.6036C2046.39 36.6036 2048.68 39.1977 2050.16 41.2079C2051.64 39.1977 2054.07 36.6036 2056.71 36.6036C2061.2 36.6036 2064.84 40.2989 2064.84 44.8661C2064.84 55.2128 2055.37 61.3173 2051.13 62.7806Z" fill="#E383A8"/>
<circle cx="2056.56" cy="11.4434" r="0.443394" fill="#F1F7FE"/>
<circle cx="2056.56" cy="12.3302" r="0.443394" fill="#B4D6FB"/>
<circle cx="2057.44" cy="11.4434" r="0.443394" fill="#F7FBFE"/>
<circle cx="2057.44" cy="12.3302" r="0.443394" fill="#B4D6FB"/>
<circle cx="2022.86" cy="19.4245" r="0.443394" fill="#E0EFDE"/>
<circle cx="2022.86" cy="20.3113" r="0.443394" fill="#C1F8B0"/>
<circle cx="2023.75" cy="19.4245" r="0.443394" fill="#E0EFDE"/>
<circle cx="2023.75" cy="20.3113" r="0.443394" fill="#C7EFC4"/>
<circle cx="2010.44" cy="50.4621" r="0.443394" fill="#EDCDAB"/>
<circle cx="2011.33" cy="50.4621" r="0.443394" fill="#F7C193"/>
<circle cx="2010.44" cy="51.3489" r="0.443394" fill="#FEFCFA"/>
<circle cx="2011.33" cy="51.3489" r="0.443394" fill="#FDF9F0"/>
<circle cx="2010.44" cy="49.5752" r="0.443394" fill="#FEFCFA"/>
<circle cx="2011.33" cy="49.5752" r="0.443394" fill="#FDF9F0"/>
<circle cx="2027.29" cy="79.7261" r="0.443394" fill="#F8F1E7"/>
<circle cx="2027.29" cy="80.613" r="0.443394" fill="#F7C193"/>
<circle cx="2027.29" cy="81.4997" r="0.443394" fill="#FDF9F0"/>
<circle cx="2028.18" cy="80.613" r="0.443394" fill="#F2D3C6"/>
<circle cx="2028.18" cy="79.7261" r="0.443394" fill="#FEFCFA"/>
<circle cx="2028.18" cy="81.4997" r="0.443394" fill="#FEFEFC"/>
<circle cx="2059.22" cy="81.4997" r="0.443394" fill="#CBEA8D"/>
<circle cx="2059.22" cy="82.3865" r="0.443394" fill="#F3FBE6"/>
<circle cx="2060.1" cy="81.4997" r="0.443394" fill="#F3FBE6"/>
<circle cx="2084.05" cy="30.066" r="0.443394" fill="#F7C193"/>
<circle cx="2084.93" cy="30.066" r="0.443394" fill="#F2D3C6"/>
<circle cx="2084.93" cy="30.9528" r="0.443394" fill="#FDF9F0"/>
<circle cx="2084.05" cy="30.9528" r="0.443394" fill="#F7E8D8"/>
<circle cx="2085.82" cy="63.7641" r="0.443394" fill="#8B98F3"/>
<circle cx="2085.82" cy="64.6508" r="0.443394" fill="#DDE1F9"/>
<circle cx="2084.93" cy="63.7641" r="0.443394" fill="#EEF0FD"/>
<circle cx="2086.71" cy="63.7641" r="0.443394" fill="#EEF0FD"/>
<circle cx="2085.82" cy="62.8772" r="0.443394" fill="#F7F7FB"/>
<path d="M2151.08 62.461C2150.58 62.6384 2149.76 62.6384 2149.26 62.461C2145.02 60.9974 2135.55 54.8917 2135.55 44.5432C2135.55 39.9751 2139.19 36.2792 2143.68 36.2792C2146.34 36.2792 2148.63 38.8737 2150.11 40.8843C2151.58 38.8737 2154.01 36.2792 2156.66 36.2792C2161.15 36.2792 2164.79 39.9751 2164.79 44.5432C2164.79 54.8917 2155.32 60.9974 2151.08 62.461Z" fill="#E383A8"/>
<circle cx="2157.48" cy="7.52772" r="0.487312" fill="#F1F7FE"/>
<circle cx="2157.48" cy="8.50233" r="0.487312" fill="#E6F4FD"/>
<circle cx="2158.45" cy="7.52772" r="0.487312" fill="#F1F7FE"/>
<circle cx="2158.45" cy="8.50233" r="0.487312" fill="#E6F4FD"/>
<circle cx="2120.44" cy="16.2993" r="0.487312" fill="#D8F3CE"/>
<circle cx="2121.42" cy="16.2993" r="0.487312" fill="#F7FBF4"/>
<circle cx="2120.44" cy="17.2739" r="0.487312" fill="#D8F3CE"/>
<circle cx="2121.42" cy="17.2739" r="0.487312" fill="#F7FBF4"/>
<circle cx="2106.8" cy="51.3857" r="0.487312" fill="#F7C193"/>
<circle cx="2106.8" cy="52.3605" r="0.487312" fill="#FEFCFA"/>
<circle cx="2107.77" cy="51.3857" r="0.487312" fill="#F7E8D8"/>
<circle cx="2125.32" cy="83.5483" r="0.487312" fill="#F7C193"/>
<circle cx="2125.32" cy="84.523" r="0.487312" fill="#F8F1E7"/>
<circle cx="2126.29" cy="83.5483" r="0.487312" fill="#FDF9F0"/>
<circle cx="2187.69" cy="27.9948" r="0.487312" fill="#F7E8D8"/>
<circle cx="2188.67" cy="27.9948" r="0.487312" fill="#EDCDAB"/>
<circle cx="2189.64" cy="65.0305" r="0.487312" fill="#B6B8F6"/>
<circle cx="2189.64" cy="66.0051" r="0.487312" fill="#EEF0FD"/>
<circle cx="2190.62" cy="65.0305" r="0.487312" fill="#DDE1F9"/>
<path d="M2250.83 62.3517C2250.36 62.5224 2249.57 62.5224 2249.09 62.3517C2245.01 60.9438 2235.9 55.0706 2235.9 45.1159C2235.9 40.7216 2239.4 37.1664 2243.72 37.1664C2246.28 37.1664 2248.48 39.6622 2249.9 41.5962C2251.32 39.6622 2253.66 37.1664 2256.21 37.1664C2260.52 37.1664 2264.03 40.7216 2264.03 45.1159C2264.03 55.0706 2254.91 60.9438 2250.83 62.3517Z" fill="#E383A8"/>
<circle cx="2256.99" cy="9.50917" r="0.468765" fill="#F1F7FE"/>
<circle cx="2257.93" cy="9.50917" r="0.468765" fill="#E6F4FD"/>
<circle cx="2221.37" cy="17.947" r="0.468765" fill="#C7EFC4"/>
<circle cx="2221.37" cy="18.8845" r="0.468765" fill="#F7FBF4"/>
<circle cx="2208.24" cy="51.698" r="0.468765" fill="#F7C193"/>
<circle cx="2226.06" cy="82.6365" r="0.468765" fill="#F7E8D8"/>
<circle cx="2226.06" cy="83.574" r="0.468765" fill="#F7E8D8"/>
<circle cx="2287" cy="29.1974" r="0.468765" fill="#F7C193"/>
<circle cx="2287.93" cy="64.8235" r="0.468765" fill="#EEF0FD"/>
<circle cx="2288.87" cy="65.7611" r="0.468765" fill="#F7F7FB"/>
<circle cx="2287.93" cy="65.7611" r="0.468765" fill="#FCFDFE"/>
<circle cx="2288.87" cy="64.8235" r="0.468765" fill="#DDE1F9"/>
<circle cx="2259.81" cy="83.574" r="0.468765" fill="#FCFEF9"/>
<circle cx="2259.81" cy="84.5116" r="0.468765" fill="#F3FBE6"/>
<path d="M2350.84 61.7831C2350.36 61.952 2349.59 61.952 2349.11 61.7831C2345.08 60.3903 2336.06 54.5797 2336.06 44.7312C2336.06 40.3838 2339.53 36.8665 2343.8 36.8665C2346.33 36.8665 2348.51 39.3356 2349.91 41.249C2351.32 39.3356 2353.63 36.8665 2356.15 36.8665C2360.42 36.8665 2363.89 40.3838 2363.89 44.7312C2363.89 54.5797 2354.87 60.3903 2350.84 61.7831Z" fill="#E383A8"/>
<circle cx="2357.86" cy="9.50417" r="0.463765" fill="#E6F4FD"/>
<circle cx="2386.61" cy="28.9823" r="0.463765" fill="#F7E8D8"/>
<circle cx="2321.69" cy="17.8521" r="0.463765" fill="#D8F3CE"/>
<circle cx="2308.7" cy="51.2429" r="0.463765" fill="#F7E8D8"/>
<circle cx="2327.24" cy="83.523" r="0.487312" fill="#F8F1E7"/>
<circle cx="2392.54" cy="64.0305" r="0.487312" fill="#EEF0FD"/>
<circle cx="2392.54" cy="65.0051" r="0.487312" fill="#F7F7FB"/>
</svg>
