<svg width="34" height="34" viewBox="0 0 34 34" fill="none" xmlns="http://www.w3.org/2000/svg">
<g clip-path="url(#clip0_18_418)">
<circle cx="17" cy="17" r="12" fill="white"/>
<path d="M25.4559 8.48528C20.7418 3.77124 13.1993 3.77124 8.4853 8.48528C3.77125 13.1993 3.77125 20.7418 8.4853 25.4558C13.1993 30.1699 20.7418 30.1699 25.4559 25.4558C30.1699 20.7418 30.1699 13.1993 25.4559 8.48528ZM16.9706 23.3817C16.2163 23.3817 15.6506 22.816 15.6506 22.0617L15.6506 18.2905H11.8794C11.5023 18.2905 11.2194 18.1962 10.9366 17.9134C10.3709 17.3477 10.3709 16.5934 10.9366 16.0278C11.2194 15.7449 11.5023 15.6506 11.8794 15.6506L15.6506 15.6506L15.6506 11.8794C15.6506 11.5023 15.7449 11.2194 16.0278 10.9366C16.3106 10.6537 16.5935 10.5595 16.9706 10.5595C17.7248 10.5595 18.2905 11.1251 18.2905 11.8794L18.2905 15.6506L22.0617 15.6506C22.816 15.6506 23.3817 16.2163 23.3817 16.9706C23.3817 17.7248 22.816 18.2905 22.0617 18.2905H18.2905L18.2905 22.0617C18.2905 22.816 17.7248 23.3817 16.9706 23.3817Z" fill="#E383A8"/>
</g>
<defs>
<clipPath id="clip0_18_418">
<rect width="24" height="24" fill="white" transform="translate(16.9706) rotate(45)"/>
</clipPath>
</defs>
</svg>
