<?xml version="1.0" encoding="UTF-8"?><svg xmlns="http://www.w3.org/2000/svg" viewBox="0 0 600 297"><rect x="5.6667" y="6.2852" width="588" height="285" rx="5" ry="5" fill="#fff"/><rect width="600" height="297" rx="10" ry="10" fill="none"/><rect x="1" y="1" width="598" height="295" rx="9" ry="9" fill="none" stroke="#e383a8" stroke-dasharray="0 0 0 0 0 0 0 5" stroke-linecap="round" stroke-width="2"/><path d="M299.6667,28.5383c102.7592,0,201.6105,18.0076,294,51.227V11.2852c0-2.7614-2.2386-5-5-5H10.6667c-2.7614,0-5,2.2386-5,5V79.7652C98.0562,46.5459,196.9075,28.5383,299.6667,28.5383Z" fill="#e383a8"/><path d="M122.7425,81.5705c-.1541,.0034-.2821-.118-.287-.272l-.027-.41-.123-1.91c-.021-.318-.041-.636-.062-.954-.009-.139,.029-.3-.114-.365-.2-.087-.416,.106-.554,.22l-.628,.52-.775,.64c-.1295,.0914-.3086,.0606-.4-.0688-.0701-.0993-.0701-.2319,0-.3312l.744-.886c.127-.151,1.071-1.106,.427-1.189-.134-.017-.27-.023-.4-.035l-.901-.087-1.086-.1c-.1582-.0094-.2789-.1452-.2696-.3034,.0086-.1452,.1244-.261,.2696-.2696l1.136-.087,.91-.073c.124-.01,.271,.006,.391-.014,.139-.022,.179-.14,.187-.266,.008-.142-.059-.2-.148-.311l-.551-.667-.715-.863c-.0975-.125-.0753-.3053,.0497-.4028,.1027-.0802,.2466-.0811,.3503-.0022l.787,.66c.162,.136,.311,.287,.476,.42,.146,.117,.421,.374,.63,.34,.245-.039,.194-.484,.208-.665,.029-.362,.058-1.041,.087-1.4,.033-.4,.065-1.177,.1-1.581,.0132-.158,.152-.2753,.3099-.2621,.1396,.0117,.2504,.1225,.2621,.2621,.028,.372,.056,1.115,.083,1.487,.024,.315,.047,.948,.071,1.264,.022,.293-.031,.675,.281,.837,.244,.127,.578-.306,.763-.459,.362-.3,.726-.6,1.085-.9,.1262-.096,.3062-.0715,.4022,.0547,.0789,.1037,.078,.2476-.0022,.3503l-.661,.797c-.175,.21-.352,.418-.527,.628-.141,.171-.255,.544,.014,.65,.1442,.033,.2921,.0475,.44,.043l.513,.046,1.349,.122c.158,.0132,.2753,.152,.2621,.3099-.0117,.1396-.1225,.2504-.2621,.2621l-1.1,.092-.894,.074c-.212,.018-.618,.016-.564,.342,.039,.236,.4,.534,.554,.716l.881,1.055c.0914,.1295,.0606,.3086-.0688,.4-.0993,.0701-.2319,.0701-.3312,0l-.828-.7-.645-.542c-.111-.093-.191-.176-.346-.12-.1209,.0493-.2073,.1581-.228,.287-.115,.674-.1,1.4-.145,2.083-.03,.418-.0593,.8357-.088,1.253-.0049,.154-.1329,.2754-.287,.272" fill="#f1b05a"/><path d="M103.1195,96.0885c-.2052,.0045-.3759-.1568-.383-.362-.012-.185-.023-.369-.035-.553l-.165-2.548c-.0273-.424-.0547-.8483-.082-1.273-.012-.186,.038-.405-.152-.488-.264-.115-.555,.142-.74,.3l-.838,.692-1.034,.855c-.1608,.1375-.4025,.1186-.54-.0422-.1226-.1433-.1226-.3545,0-.4978,.3333-.394,.664-.7883,.992-1.183,.169-.2,1.429-1.475,.57-1.586-.179-.023-.361-.031-.54-.047l-1.189-.1-1.449-.128c-.211-.0153-.3696-.1987-.3543-.4097,.0137-.1897,.1646-.3406,.3543-.3543l1.513-.122,1.213-.1c.167-.013,.362,.008,.523-.017,.185-.03,.239-.188,.249-.356,.011-.189-.079-.272-.2-.415l-.735-.889-.952-1.153c-.1355-.1624-.1138-.4039,.0486-.5395,.1423-.1188,.3493-.1186,.4914,.0005l1.049,.88c.216,.182,.415,.382,.636,.56,.194,.156,.561,.5,.841,.454,.326-.052,.258-.645,.277-.887,.039-.483,.077-1.389,.116-1.872,.043-.538,.087-1.571,.13-2.109,.0153-.211,.1987-.3696,.4097-.3543,.1897,.0137,.3406,.1646,.3543,.3543,.037,.5,.074,1.487,.111,1.984,.031,.42,.062,1.265,.094,1.685,.029,.391-.041,.9,.375,1.118,.325,.169,.771-.408,1.018-.613,.482-.4,.969-.793,1.447-1.2,.1608-.1375,.4025-.1186,.54,.0422,.1226,.1433,.1226,.3545,0,.4978-.296,.354-.5927,.7077-.89,1.061-.234,.279-.47,.557-.7,.837-.189,.228-.34,.726,.018,.868,.1925,.0437,.3897,.0629,.587,.057l.684,.061,1.8,.162c.211,.0153,.3696,.1987,.3543,.4097-.0137,.1897-.1646,.3406-.3543,.3543l-1.472,.123-1.193,.1c-.282,.023-.825,.021-.753,.455,.053,.316,.537,.713,.74,.955l1.179,1.412c.1375,.1608,.1186,.4025-.0422,.54-.1433,.1226-.3545,.1226-.4978,0l-1.1-.927-.862-.724c-.148-.124-.254-.234-.461-.16-.1596,.0671-.273,.212-.3,.383-.154,.9-.13,1.869-.194,2.78l-.117,1.672c-.0071,.2052-.1778,.3665-.383,.362" fill="#f1b05a"/><path d="M102.2785,79.0195c-.1798,.321-.1511,.7182,.073,1.01,.3257,.3411,.8663,.3536,1.2074,.0278,.0731-.0698,.1332-.152,.1776-.2428,.0783-.1805,.1083-.3784,.087-.574-.0011-.113-.0292-.2241-.082-.324-.3-.485-1.21-.332-1.463,.1" fill="#f1b05a"/><path d="M110.2325,88.2325c-.1798,.321-.1511,.7182,.073,1.01,.3257,.3411,.8663,.3536,1.2074,.0278,.0731-.0698,.1332-.152,.1776-.2428,.0783-.1805,.1083-.3784,.087-.574-.0011-.113-.0292-.2241-.082-.324-.3-.485-1.21-.332-1.463,.1" fill="#f1b05a"/><path d="M102.5435,98.1085c-.1798,.321-.1511,.7182,.073,1.01,.3257,.3411,.8663,.3536,1.2074,.0278,.0731-.0698,.1332-.152,.1776-.2428,.0783-.1805,.1083-.3784,.087-.574-.0011-.113-.0292-.2241-.082-.324-.3-.485-1.21-.332-1.463,.1" fill="#f1b05a"/><path d="M108.1115,93.5345c-.1798,.321-.1511,.7182,.073,1.01,.3257,.3411,.8663,.3536,1.2074,.0278,.0731-.0698,.1332-.152,.1776-.2428,.0783-.1805,.1083-.3784,.087-.574-.0011-.113-.0292-.2241-.082-.324-.3-.485-1.21-.332-1.463,.1" fill="#f1b05a"/><path d="M96.5785,82.8635c-.1798,.321-.1511,.7182,.073,1.01,.3257,.3411,.8663,.3536,1.2074,.0278,.0731-.0698,.1332-.152,.1776-.2428,.0783-.1805,.1083-.3784,.087-.574-.0011-.113-.0292-.2241-.082-.324-.3-.485-1.21-.332-1.463,.1" fill="#f1b05a"/><path d="M94.1795,88.3375c-.1798,.321-.1511,.7182,.073,1.01,.3257,.3411,.8663,.3536,1.2074,.0278,.0731-.0698,.1332-.152,.1776-.2428,.0783-.1805,.1083-.3784,.087-.574-.0011-.113-.0292-.2241-.082-.324-.3-.485-1.21-.332-1.463,.1" fill="#f1b05a"/><path d="M96.8435,93.8005c-.1798,.321-.1511,.7182,.073,1.01,.3257,.3411,.8663,.3536,1.2074,.0278,.0731-.0698,.1332-.152,.1776-.2428,.0783-.1805,.1083-.3784,.087-.574-.0011-.113-.0292-.2241-.082-.324-.3-.485-1.21-.332-1.463,.1" fill="#f1b05a"/><path d="M107.9125,82.8635c-.1798,.321-.1511,.7182,.073,1.01,.3257,.3411,.8663,.3536,1.2074,.0278,.0731-.0698,.1332-.152,.1776-.2428,.0783-.1805,.1083-.3784,.087-.574-.0011-.113-.0292-.2241-.082-.324-.3-.485-1.21-.332-1.463,.1" fill="#f1b05a"/><path d="M478.3815,81.5705c.1541,.0034,.2821-.118,.287-.272l.027-.414,.127-1.91c.021-.318,.041-.636,.062-.954,.009-.139-.029-.3,.114-.365,.2-.087,.416,.106,.554,.22l.628,.52,.775,.64c.1192,.1045,.3005,.0925,.405-.0267,.0949-.1083,.0949-.27,0-.3783l-.748-.886c-.127-.151-1.071-1.106-.427-1.189,.134-.017,.27-.023,.405-.035l.891-.078,1.086-.1c.1582-.0094,.2789-.1452,.2696-.3034-.0086-.1452-.1244-.261-.2696-.2696l-1.134-.087-.911-.073c-.124-.01-.271,.006-.391-.014-.139-.022-.179-.14-.187-.266-.008-.142,.059-.2,.148-.311l.551-.667,.714-.863c.0975-.125,.0753-.3053-.0497-.4028-.1027-.0802-.2466-.0811-.3503-.0022l-.787,.66c-.162,.136-.311,.287-.476,.42-.146,.117-.421,.374-.63,.34-.245-.039-.194-.484-.208-.665-.029-.362-.058-1.041-.087-1.4-.033-.4-.065-1.177-.1-1.581-.0132-.158-.152-.2753-.3099-.2621-.1396,.0117-.2504,.1225-.2621,.2621-.028,.372-.056,1.115-.083,1.487-.024,.315-.047,.948-.071,1.264-.022,.293,.031,.675-.281,.837-.244,.127-.578-.306-.763-.459-.362-.3-.726-.6-1.085-.9-.1192-.1045-.3005-.0925-.405,.0267-.0949,.1083-.0949,.27,0,.3783l.668,.794c.175,.21,.352,.418,.527,.628,.141,.171,.255,.544-.014,.65-.1442,.033-.2921,.0475-.44,.043l-.513,.046-1.351,.122c-.158,.0132-.2753,.152-.2621,.3099,.0117,.1396,.1225,.2504,.2621,.2621l1.1,.092,.894,.074c.212,.018,.618,.016,.564,.342-.039,.236-.4,.534-.554,.716l-.881,1.058c-.096,.1262-.0715,.3062,.0547,.4022,.1037,.0789,.2476,.078,.3503-.0022l.828-.7,.645-.542c.111-.093,.191-.176,.346-.12,.1209,.0493,.2073,.1581,.228,.287,.115,.674,.1,1.4,.145,2.083,.03,.418,.0593,.8357,.088,1.253,.0049,.154,.1329,.2754,.287,.272" fill="#f1b05a"/><path d="M498.0045,96.0885c.2052,.0045,.3759-.1568,.383-.362,.012-.185,.023-.369,.035-.553l.165-2.548c.0273-.424,.0547-.8483,.082-1.273,.012-.186-.038-.405,.152-.488,.264-.115,.555,.142,.74,.3l.838,.692,1.034,.855c.1608,.1375,.4025,.1186,.54-.0422,.1226-.1433,.1226-.3545,0-.4978-.3333-.394-.664-.7883-.992-1.183-.169-.2-1.429-1.475-.57-1.586,.179-.023,.361-.031,.54-.047l1.189-.1,1.449-.128c.211-.0153,.3696-.1987,.3543-.4097-.0137-.1897-.1646-.3406-.3543-.3543l-1.513-.122-1.213-.1c-.167-.013-.362,.008-.523-.017-.185-.03-.239-.188-.249-.356-.011-.189,.079-.272,.2-.415l.735-.889,.952-1.153c.1355-.1624,.1138-.4039-.0486-.5395-.1423-.1188-.3493-.1186-.4914,.0005l-1.049,.88c-.216,.182-.415,.382-.636,.56-.194,.156-.561,.5-.841,.454-.326-.052-.258-.645-.277-.887-.039-.483-.077-1.389-.116-1.872-.043-.538-.087-1.571-.13-2.109-.0153-.211-.1987-.3696-.4097-.3543-.1897,.0137-.3406,.1646-.3543,.3543-.037,.5-.074,1.487-.111,1.984-.031,.42-.062,1.265-.094,1.685-.029,.391,.041,.9-.375,1.118-.325,.169-.771-.408-1.018-.613-.482-.4-.969-.793-1.447-1.2-.1608-.1375-.4025-.1186-.54,.0422-.1226,.1433-.1226,.3545,0,.4978,.296,.354,.5927,.7077,.89,1.061,.234,.279,.47,.557,.7,.837,.189,.228,.34,.726-.018,.868-.1925,.0437-.3897,.0629-.587,.057l-.684,.061-1.8,.162c-.211,.0153-.3696,.1987-.3543,.4097,.0137,.1897,.1646,.3406,.3543,.3543l1.472,.123,1.193,.1c.282,.023,.825,.021,.753,.455-.053,.316-.537,.713-.74,.955l-1.179,1.412c-.1375,.1608-.1186,.4025,.0422,.54,.1433,.1226,.3545,.1226,.4978,0l1.1-.927,.862-.724c.148-.124,.254-.234,.461-.16,.1596,.0671,.273,.212,.3,.383,.154,.9,.13,1.869,.194,2.78l.117,1.672c.0071,.2052,.1778,.3665,.383,.362" fill="#f1b05a"/><path d="M498.8455,79.0195c.1798,.321,.1511,.7182-.073,1.01-.3257,.3411-.8663,.3536-1.2074,.0278-.0731-.0698-.1332-.152-.1776-.2428-.0783-.1805-.1083-.3784-.087-.574,.0011-.113,.0292-.2241,.082-.324,.3-.485,1.21-.332,1.463,.1" fill="#f1b05a"/><path d="M490.8915,88.2325c.1798,.321,.1511,.7182-.073,1.01-.3257,.3411-.8663,.3536-1.2074,.0278-.0731-.0698-.1332-.152-.1776-.2428-.0783-.1805-.1083-.3784-.087-.574,.0011-.113,.0292-.2241,.082-.324,.3-.485,1.21-.332,1.463,.1" fill="#f1b05a"/><path d="M498.5805,98.1085c.1798,.321,.1511,.7182-.073,1.01-.3257,.3411-.8663,.3536-1.2074,.0278-.0731-.0698-.1332-.152-.1776-.2428-.0783-.1805-.1083-.3784-.087-.574,.0011-.113,.0292-.2241,.082-.324,.3-.485,1.21-.332,1.463,.1" fill="#f1b05a"/><path d="M493.0125,93.5345c.1798,.321,.1511,.7182-.073,1.01-.3257,.3411-.8663,.3536-1.2074,.0278-.0731-.0698-.1332-.152-.1776-.2428-.0783-.1805-.1083-.3784-.087-.574,.0011-.113,.0292-.2241,.082-.324,.3-.485,1.21-.332,1.463,.1" fill="#f1b05a"/><path d="M504.5455,82.8635c.1798,.321,.1511,.7182-.073,1.01-.3257,.3411-.8663,.3536-1.2074,.0278-.0731-.0698-.1332-.152-.1776-.2428-.0783-.1805-.1083-.3784-.087-.574,.0011-.113,.0292-.2241,.082-.324,.3-.485,1.21-.332,1.463,.1" fill="#f1b05a"/><path id="aa" d="M506.9445,88.3375c.1798,.321,.1511,.7182-.073,1.01-.3257,.3411-.8663,.3536-1.2074,.0278-.0731-.0698-.1332-.152-.1776-.2428-.0783-.1805-.1083-.3784-.087-.574,.0011-.113,.0292-.2241,.082-.324,.3-.485,1.21-.332,1.463,.1" fill="#f1b05a"/><path id="ab" d="M504.2805,93.8005c.1798,.321,.1511,.7182-.073,1.01-.3257,.3411-.8663,.3536-1.2074,.0278-.0731-.0698-.1332-.152-.1776-.2428-.0783-.1805-.1083-.3784-.087-.574,.0011-.113,.0292-.2241,.082-.324,.3-.485,1.21-.332,1.463,.1" fill="#f1b05a"/><path id="ac" d="M493.2115,82.8635c.1798,.321,.1511,.7182-.073,1.01-.3257,.3411-.8663,.3536-1.2074,.0278-.0731-.0698-.1332-.152-.1776-.2428-.0783-.1805-.1083-.3784-.087-.574,.0011-.113,.0292-.2241,.082-.324,.3-.485,1.21-.332,1.463,.1" fill="#f1b05a"/></svg>
