<svg width="11" height="12" viewBox="0 0 11 12" fill="none" xmlns="http://www.w3.org/2000/svg">
<path d="M3.27778 2.13889H2.82234C2.1845 2.13889 1.86534 2.13889 1.62172 2.26302C1.40742 2.37221 1.23332 2.54631 1.12413 2.76061C1 3.00423 1 3.32338 1 3.96122V4.41667M3.27778 2.13889H7.83333M3.27778 2.13889V1M1 4.41667V9.42789C1 10.0657 1 10.3845 1.12413 10.6281C1.23332 10.8424 1.40742 11.0168 1.62172 11.126C1.8651 11.25 2.18387 11.25 2.82046 11.25H8.29065C8.92724 11.25 9.24556 11.25 9.48894 11.126C9.70322 11.0168 9.87792 10.8424 9.98709 10.6281C10.1111 10.3847 10.1111 10.0664 10.1111 9.42983V4.41667M1 4.41667H10.1111M7.83333 2.13889H8.289C8.92684 2.13889 9.24533 2.13889 9.48894 2.26302C9.70322 2.37221 9.87792 2.54631 9.98709 2.76061C10.1111 3.00399 10.1111 3.32276 10.1111 3.95935V4.41667M7.83333 2.13889V1M7.83333 8.97222H7.83447V8.97336H7.83333V8.97222ZM5.55556 8.97222H5.55669V8.97336H5.55556V8.97222ZM3.27778 8.97222H3.27892L3.27889 8.97336H3.27778V8.97222ZM7.83447 6.69444V6.69558H7.83333V6.69444H7.83447ZM5.55556 6.69444H5.55669V6.69558H5.55556V6.69444ZM3.27778 6.69444H3.27892L3.27889 6.69558H3.27778V6.69444Z" stroke="white" stroke-linecap="round" stroke-linejoin="round"/>
</svg>
