<svg width="161" height="115" viewBox="0 0 161 115" fill="none" xmlns="http://www.w3.org/2000/svg">
<path d="M160.993 56.0854C161 52.4568 160.171 48.8753 158.57 45.619C156.969 42.3627 154.639 39.519 151.762 37.3088C148.884 35.0986 145.535 33.5812 141.976 32.8745C138.417 32.1678 134.743 32.2907 131.239 33.2337C128.564 18.9931 117.777 13.5096 107.409 13.5096C102.89 13.5107 98.4493 14.6947 94.5295 16.944C90.6096 19.1932 87.3467 22.4294 85.0653 26.3306C82.6967 22.7933 79.4928 19.8943 75.737 17.8902C71.9812 15.8861 67.7893 14.8386 63.5322 14.8405C50.048 14.8405 38.6849 22.6232 37.572 36.0607C35.2161 35.0924 33.0293 33.2245 26.7443 33.2245C16.0305 33.5733 10.2618 39.3253 7.30395 47.6464C5.53937 52.9899 5.37612 58.7329 6.83432 64.168C9.85791 72.997 17.5947 76.7128 23.0606 78.8844C23.0208 79.4504 22.9742 80.0118 22.9742 80.5847C22.9742 91.2166 28.7804 100.548 38.4883 103.592C47.0742 106.286 55.4267 103.668 59.3697 100.668C61.1766 104.728 64.1376 108.168 67.8845 110.559C71.6313 112.95 75.9986 114.187 80.4427 114.115C84.8869 114.043 89.2118 112.666 92.8794 110.155C96.5469 107.644 99.3952 104.11 101.07 99.9929C105.271 106.321 112.363 108.119 119.962 108.114C125.979 108.114 131.748 105.724 136.003 101.47C140.257 97.2163 142.647 91.4464 142.647 85.4302C142.642 83.3665 142.355 81.3132 141.794 79.3272C147.198 78.2912 152.072 75.4039 155.578 71.1622C159.083 66.9205 161.001 61.5897 161 56.0869" fill="#E2F2F7"/>
<path d="M156.292 43.7233C156.299 40.0947 155.47 36.5133 153.869 33.2569C152.268 30.0006 149.938 27.1569 147.061 24.9467C144.183 22.7365 140.834 21.2192 137.275 20.5124C133.716 19.8057 130.042 19.9286 126.538 20.8716C123.862 6.63098 113.076 1.14752 102.708 1.14752C98.1887 1.14862 93.7483 2.33266 89.8284 4.58191C85.9085 6.83117 82.6457 10.0673 80.3642 13.9685C77.9957 10.4312 74.7918 7.53222 71.036 5.52811C67.2801 3.52399 63.0882 2.47654 58.8312 2.47843C45.347 2.47843 33.9839 10.2611 32.871 23.6986C30.5151 22.7303 28.3283 20.8625 22.0433 20.8625C11.3295 21.2112 5.56074 26.9632 2.60293 35.2844C0.838352 40.6279 0.675106 46.3708 2.1333 51.8059C5.15689 60.635 12.8937 64.3508 18.3596 66.5223C18.3198 67.0883 18.2731 67.6497 18.2731 68.2226C18.2731 78.8545 24.0794 88.1861 33.7873 91.2296C42.3732 93.9243 50.7257 91.3061 54.6687 88.3054C56.4755 92.3664 59.4366 95.8063 63.1835 98.1974C66.9303 100.588 71.2975 101.825 75.7417 101.753C80.1859 101.681 84.5108 100.304 88.1784 97.793C91.8459 95.282 94.6941 91.7481 96.3687 87.6308C100.57 93.9587 107.662 95.7569 115.261 95.7524C121.278 95.7524 127.047 93.3624 131.302 89.1083C135.556 84.8542 137.946 79.0844 137.946 73.0681C137.941 71.0044 137.654 68.9511 137.093 66.9651C142.497 65.9291 147.371 63.0419 150.877 58.8002C154.382 54.5585 156.3 49.2276 156.299 43.7249" fill="white"/>
<path d="M75.3841 102.909C71.0104 102.91 66.7209 101.707 62.9858 99.431C59.2508 97.1554 56.2144 93.8953 54.2098 90.0081C50.2648 92.3346 45.7604 93.542 41.1807 93.5006C38.5569 93.5033 35.9479 93.1058 33.4439 92.3219C28.5013 90.7719 24.2544 87.5462 21.4352 83.2006C20.0193 81.0391 18.9394 78.6752 18.2326 76.1897C17.4935 73.5977 17.122 70.9148 17.1289 68.2196C17.1289 67.8968 17.1427 67.5809 17.161 67.2711C14.1219 66.0882 11.2534 64.5066 8.63103 62.5678C6.98943 61.3169 5.5206 59.8542 4.26276 58.2179C2.87452 56.3892 1.7898 54.3489 1.05025 52.1753L1.03801 52.1386L1.02806 52.1011C-0.49254 46.4512 -0.323142 40.4795 1.51529 34.9249L1.52371 34.9004C2.25014 32.8058 3.22329 30.805 4.42262 28.9404C5.5879 27.1405 7.03073 25.5363 8.69756 24.1874C10.4434 22.7988 12.4163 21.7228 14.529 21.007C16.9434 20.2078 19.4633 19.7724 22.0058 19.7151L22.0433 19.7151C25.475 19.586 28.8796 20.3688 31.9103 21.9838C32.2978 19.244 33.1721 16.5956 34.4918 14.1636C35.9912 11.434 38.0388 9.04392 40.5061 7.14347C43.0233 5.21148 45.865 3.74412 48.8976 2.8104C52.1139 1.81317 55.4639 1.31429 58.8312 1.33111L58.8434 1.33111C62.9923 1.33109 67.0855 2.28557 70.8064 4.12069C74.5273 5.95581 77.7761 8.62237 80.3015 11.9141C82.7765 8.24647 86.1136 5.24229 90.0202 3.16509C93.9269 1.08789 98.2836 0.00114314 102.708 0.000198481C105.429 -0.00962076 108.138 0.369515 110.752 1.12611C113.419 1.89446 115.933 3.11793 118.182 4.74248C120.564 6.4795 122.581 8.66714 124.12 11.1813C125.669 13.7462 126.784 16.5495 127.419 19.478C129.146 19.103 130.908 18.9137 132.675 18.9135L132.724 18.9135C138.786 18.9347 144.631 21.1746 149.154 25.2104C153.678 29.2462 156.567 34.7986 157.277 40.8191C157.987 46.8397 156.468 52.9118 153.007 57.8889C149.546 62.866 144.382 66.4037 138.491 67.834C138.882 69.5504 139.082 71.3048 139.086 73.0651L139.086 73.0697C139.089 76.2 138.474 79.3001 137.277 82.1926C136.08 85.0851 134.325 87.7133 132.112 89.9267C129.898 92.1402 127.27 93.8955 124.377 95.0923C121.485 96.289 118.385 96.9037 115.255 96.9012L115.229 96.9012C111.448 96.9983 107.681 96.3997 104.116 95.1351C102.396 94.4869 100.779 93.5912 99.3166 92.4764C98.3211 91.7084 97.4122 90.8343 96.6058 89.8696C94.6147 93.7885 91.5787 97.0806 87.8336 99.382C84.0884 101.683 79.7798 102.904 75.3841 102.91L75.3841 102.909ZM55.1238 86.5141L55.7135 87.8389C57.4289 91.6942 60.2401 94.96 63.7972 97.23C67.3544 99.5 71.5005 100.674 75.7196 100.606C79.9388 100.537 84.0448 99.2301 87.5267 96.8463C91.0086 94.4625 93.7127 91.1074 95.3025 87.1987L96.1201 85.1885L97.321 86.9967C98.2441 88.3954 99.3912 89.6324 100.716 90.6582C102.002 91.6368 103.423 92.4227 104.935 92.9911C108.239 94.1539 111.727 94.7012 115.228 94.6058L115.253 94.6058C118.578 94.6138 121.859 93.8501 124.838 92.3748C127.818 90.8996 130.414 88.7531 132.424 86.1041C134.433 83.4552 135.8 80.3761 136.417 77.1092C137.035 73.8423 136.885 70.4767 135.981 67.2772L135.641 66.074L136.869 65.8385C142.375 64.7968 147.295 61.7391 150.666 57.2631C154.038 52.7871 155.618 47.2146 155.099 41.6351C154.581 36.0556 151.999 30.8701 147.861 27.0925C143.722 23.3149 138.323 21.2167 132.719 21.2082L132.675 21.2082C130.702 21.2084 128.739 21.4682 126.834 21.9807L125.637 22.3027L125.408 21.0843C124.868 18.0102 123.769 15.0613 122.164 12.3845C120.782 10.1251 118.97 8.15917 116.83 6.5981C114.793 5.12905 112.518 4.02306 110.105 3.32898C107.7 2.63418 105.209 2.28647 102.707 2.29638C98.3875 2.29749 94.144 3.42907 90.3979 5.57862C86.6518 7.72816 83.5336 10.8208 81.3533 14.5491L80.4285 16.1301L79.4097 14.608C77.1474 11.229 74.0875 8.45933 70.5005 6.54389C66.9135 4.62845 62.9098 3.62621 58.8434 3.62576L58.832 3.62576C55.6985 3.60891 52.5809 4.07193 49.5876 4.99873C46.8162 5.85128 44.219 7.19117 41.9181 8.95549C39.623 10.7261 37.7314 12.9652 36.369 15.5238C35.0067 18.0823 34.2048 20.9017 34.0168 23.7943L33.8868 25.3562L32.4335 24.7603C31.9218 24.55 31.4391 24.3098 30.9228 24.0551C28.2054 22.5917 25.1448 21.8853 22.0609 22.0098C19.7534 22.0607 17.4662 22.4538 15.274 23.1762C13.4112 23.8065 11.6714 24.7544 10.1317 25.978C8.65374 27.1757 7.37459 28.5996 6.34172 30.1971C5.24487 31.9049 4.35468 33.7369 3.68986 35.6546C1.99808 40.7694 1.83856 46.2673 3.23093 51.4716C3.89144 53.3972 4.85564 55.2048 6.08702 56.8258C7.22193 58.3008 8.54699 59.6192 10.0277 60.7466C12.7149 62.7099 15.6602 64.2929 18.7803 65.4507L19.5597 65.7605L19.4832 66.8221C19.4488 67.3048 19.4159 67.7614 19.4159 68.2173C19.409 70.6978 19.7505 73.167 20.4301 75.5525C21.0728 77.8149 22.0549 79.9668 23.3428 81.9347C25.874 85.8388 29.6882 88.7371 34.1277 90.1297C36.4098 90.843 38.7874 91.2041 41.1784 91.2005C43.7201 91.198 46.2461 90.802 48.6667 90.0264C50.5653 89.4406 52.3557 88.549 53.9673 87.3868L55.1238 86.5141Z" fill="#E2F2F7"/>
</svg>
