<svg width="24" height="22" viewBox="0 0 24 22" fill="none" xmlns="http://www.w3.org/2000/svg">
<path d="M22.16 15.9206C22.16 18.7248 19.8854 21 17.0817 21C15.5794 21 14.2358 20.3439 13.3047 19.3069C12.5007 18.4074 12.0034 17.2222 12.0034 15.9206C12.0034 13.1163 14.2781 10.8412 17.0817 10.8412C18.5311 10.8412 19.843 11.4549 20.7741 12.4391C20.7635 12.4391 20.7635 12.4391 20.7741 12.4496C21.631 13.3597 22.16 14.5767 22.16 15.9206Z" fill="#FFD46C" stroke="#904C21" stroke-width="1.75" stroke-miterlimit="10" stroke-linecap="round" stroke-linejoin="round"/>
<path d="M18.4346 17.3387L15.7579 14.6508" stroke="#904C21" stroke-width="1.75" stroke-miterlimit="10" stroke-linecap="round" stroke-linejoin="round"/>
<path d="M18.4038 14.6829L15.727 17.3707" stroke="#904C21" stroke-width="1.75" stroke-miterlimit="10" stroke-linecap="round" stroke-linejoin="round"/>
<path d="M22.1596 6.91543C22.1596 9.00008 21.62 10.8414 20.7736 12.4393C19.8426 11.4551 18.5307 10.8414 17.0813 10.8414C14.2776 10.8414 12.003 13.1165 12.003 15.9208C12.003 17.2224 12.5002 18.4076 13.3043 19.3071C12.9128 19.487 12.5531 19.6351 12.2357 19.7409C11.876 19.8679 11.2836 19.8679 10.9238 19.7409C7.85571 18.6933 1 14.3229 1 6.91543C1 3.64555 3.63437 1 6.88236 1C8.79731 1 10.5112 1.93127 11.5798 3.35986C12.6484 1.93127 14.3623 1 16.2772 1C19.5252 1 22.1596 3.64555 22.1596 6.91543Z" fill="#E383A8" stroke="#904C21" stroke-width="1.75" stroke-linecap="round" stroke-linejoin="round"/>
</svg>
