<svg width="24" height="90" viewBox="0 0 24 90" fill="none" xmlns="http://www.w3.org/2000/svg">
<path d="M12 20V88" stroke="#E383A8" stroke-width="2.5" stroke-linecap="round"/>
<path d="M22.1647 15.9206C22.1647 16.873 21.9001 17.7724 21.4239 18.5344C20.5456 20.0053 18.9371 21 17.0853 21C15.2334 21 13.6143 20.0053 12.7466 18.5344C12.281 17.7724 12.0059 16.873 12.0059 15.9206C12.0059 13.1163 14.281 10.8412 17.0853 10.8412C19.8895 10.8412 22.1647 13.1163 22.1647 15.9206Z" fill="#91D1E3" stroke="#904C21" stroke-width="1.75" stroke-miterlimit="10" stroke-linecap="round" stroke-linejoin="round"/>
<path d="M15.1061 15.9207L16.3548 17.1694L19.0638 14.672" stroke="#904C21" stroke-width="1.75" stroke-linecap="round" stroke-linejoin="round"/>
<path d="M22.1642 6.91543C22.1642 9.00008 21.6246 10.8414 20.778 12.4393C19.8468 11.4551 18.5346 10.8414 17.0848 10.8414C14.2806 10.8414 12.0054 13.1165 12.0054 15.9208C12.0054 17.2224 12.5028 18.4076 13.307 19.3071C12.9155 19.487 12.5557 19.6351 12.2382 19.7409C11.8784 19.8679 11.2858 19.8679 10.926 19.7409C7.85722 18.6933 1 14.3229 1 6.91543C1 3.64555 3.63495 1 6.88366 1C8.79903 1 10.5133 1.93127 11.5821 3.35986C12.6509 1.93127 14.3652 1 16.2806 1C19.5293 1 22.1642 3.64555 22.1642 6.91543Z" fill="#E383A8" stroke="#904C21" stroke-width="1.75" stroke-linecap="round" stroke-linejoin="round"/>
</svg>
