<svg width="17" height="17" viewBox="0 0 17 17" fill="none" xmlns="http://www.w3.org/2000/svg">
<path fill-rule="evenodd" clip-rule="evenodd" d="M16.1148 0.740528C15.1275 -0.246838 13.5267 -0.246847 12.5393 0.740528L11.1236 2.15622L4.46068 8.81913C4.35267 8.92717 4.27606 9.06252 4.23901 9.21068L3.39624 12.5818C3.32444 12.869 3.40859 13.1728 3.61791 13.3821C3.82724 13.5914 4.13105 13.6756 4.41825 13.6038L7.78929 12.761C7.93754 12.7239 8.0728 12.6473 8.18084 12.5393L14.7953 5.92486L16.2595 4.4607C17.2468 3.47333 17.2468 1.87249 16.2595 0.885122L16.1148 0.740528ZM13.7312 1.93238C14.0603 1.60327 14.5939 1.60327 14.923 1.93238L15.0676 2.07698C15.3967 2.40611 15.3967 2.93972 15.0676 3.26884L14.2109 4.12554L12.9001 2.76346L13.7312 1.93238ZM11.708 3.95553L13.0188 5.31761L7.1541 11.1824L5.37212 11.6279L5.8176 9.84596L11.708 3.95553ZM1.68554 5.20123C1.68554 4.73578 2.06286 4.35845 2.52831 4.35845H6.74215C7.20761 4.35845 7.58492 3.98114 7.58492 3.51568C7.58492 3.05024 7.20761 2.67291 6.74215 2.67291H2.52831C1.13197 2.67291 0 3.80488 0 5.20123V14.4717C0 15.8681 1.13197 17 2.52831 17H11.7988C13.1952 17 14.3271 15.8681 14.3271 14.4717V10.2578C14.3271 9.79245 13.9498 9.41505 13.4843 9.41505C13.0188 9.41505 12.6415 9.79245 12.6415 10.2578V14.4717C12.6415 14.9371 12.2642 15.3145 11.7988 15.3145H2.52831C2.06286 15.3145 1.68554 14.9371 1.68554 14.4717V5.20123Z" fill="#904C21"/>
</svg>
