<svg width="25" height="25" viewBox="0 0 25 25" fill="none" xmlns="http://www.w3.org/2000/svg">
<path d="M21.4559 4.48528C16.7418 -0.228764 9.19935 -0.228764 4.4853 4.48528C-0.228746 9.19933 -0.228746 16.7418 4.4853 21.4558C9.19935 26.1699 16.7418 26.1699 21.4559 21.4558C26.1699 16.7418 26.1699 9.19933 21.4559 4.48528ZM12.9706 19.3817C12.2163 19.3817 11.6506 18.816 11.6506 18.0617L11.6506 14.2905H7.87941C7.50229 14.2905 7.21945 14.1962 6.9366 13.9134C6.37092 13.3477 6.37092 12.5934 6.9366 12.0278C7.21945 11.7449 7.50229 11.6506 7.87941 11.6506L11.6506 11.6506L11.6506 7.87939C11.6506 7.50227 11.7449 7.21943 12.0278 6.93659C12.3106 6.65374 12.5935 6.55946 12.9706 6.55946C13.7248 6.55946 14.2905 7.12515 14.2905 7.87939L14.2905 11.6506L18.0617 11.6506C18.816 11.6506 19.3817 12.2163 19.3817 12.9706C19.3817 13.7248 18.816 14.2905 18.0617 14.2905H14.2905L14.2905 18.0617C14.2905 18.816 13.7248 19.3817 12.9706 19.3817Z" fill="#ED6C9D"/>
</svg>
