<?xml version="1.0" encoding="UTF-8"?><svg xmlns="http://www.w3.org/2000/svg" viewBox="0 0 1499 292.002"><g isolation="isolate"><g id="b"><g id="c"><path d="M1499,292.002v-116.1064c-2.8076,.7826-5.5776,1.7114-8.2839,2.8251-12.9282-39.3-54.7001-75.4777-104.2411-75.4777-12.9976-.0237-25.917,2.0112-38.278,6.0291-13.556-38.4351-54.8361-66.3931-103.663-66.3931-11.3196-.0149-22.5876,1.5234-33.489,4.572-22.016-28.6001-59.6-47.4509-102.2791-47.4509-47.868,0-89.337,23.7119-109.6,58.3059-9.9489-2.8943-20.2596-4.3555-30.621-4.3391-22.769,0-43.6751,6.8999-60.092,18.408-18.9987-9.2158-39.8542-13.9619-60.97-13.875-31.751,0-60.708,10.3469-82.631,27.354-22.457-27.3059-59.318-45.115-100.983-45.115-31.405,0-60.074,10.1221-81.9091,26.8-18.8323-9.0122-39.4584-13.6504-60.3359-13.5681-35.563,0-67.621,12.978-90.214,33.761-21.21-32.739-61.674-54.8679-108.114-54.8679-64.4,0-117.322,42.552-123.311,96.958-10.4822-2.8013-21.287-4.2131-32.137-4.2-41.1,0-76.855,19.8091-95.228,49-10.7991-5.8733-22.9073-8.9219-35.2-8.863-13.9087,0-26.7994,3.7522-37.4199,10.1367v116.1064H1499Z" fill="#fff" mix-blend-mode="multiply"/></g></g></g></svg>