<svg xmlns="http://www.w3.org/2000/svg" width="80" height="60" viewBox="0 0 80 60"><g><path d="M56.84 2.812H42.283a1.28 1.28 0 00-1.28 1.28v7.82a1.28 1.28 0 001.28 1.28l3.417-.134v4.379l4.868-4.245h6.272a1.28 1.28 0 001.28-1.28v-7.82a1.28 1.28 0 00-1.28-1.28z" fill="#fff"/><path d="M42.783 2H57.34a1.782 1.782 0 011.78 1.78v7.82a1.782 1.782 0 01-1.78 1.78h-6.084l-4.727 4.122a.5.5 0 01-.829-.377v-3.859l-2.9.114h-.02a1.782 1.782 0 01-1.777-1.78V3.78A1.782 1.782 0 0142.783 2zM57.34 12.38a.781.781 0 00.78-.78V3.78a.781.781 0 00-.78-.78H42.783a.781.781 0 00-.78.78v7.82a.781.781 0 00.772.78l3.406-.134a.5.5 0 01.52.5v3.28l4.039-3.522a.5.5 0 01.329-.123z" fill="#ff8ba5"/></g><g><g transform="translate(2.322 2.177)"><circle cx="8" cy="8" r="8" transform="translate(-.322 -.177)" fill="#ff8ba5"/><path d="M10.489 7.859a.762.762 0 01-.224.546l-3.287 3.287a.763.763 0 11-1.077-1.082l2.743-2.743-2.743-2.743a.762.762 0 011.077-1.077l3.287 3.275a.762.762 0 01.224.538z" fill="#fff"/></g></g><g fill="#ff8ba5"><path d="M74.552 5.142v7.726H63.144V5.142h11.41M75.7 4H62v10.014h13.694V4z"/><path d="M76.729 6.174v8.872H64.174v1.135h13.694V6.174z"/></g><g><g><circle cx="8" cy="8" r="8" transform="translate(22 2)" fill="#ff8ba5"/></g><path d="M30.482 13.864a.761.761 0 010-1.077l1.987-1.986H25.8a.8.8 0 010-1.6h6.581l-1.9-1.9a.762.762 0 111.077-1.077l3.287 3.274a.767.767 0 010 1.084l-3.287 3.282a.761.761 0 01-1.077 0z" fill="#fff"/></g><g><path d="M56.84 22.812H42.283a1.28 1.28 0 00-1.28 1.28v7.82a1.28 1.28 0 001.28 1.28l3.417-.134v4.379l4.868-4.245h6.272a1.28 1.28 0 001.28-1.28v-7.82a1.28 1.28 0 00-1.28-1.28z" fill="#fff"/><path d="M42.783 22H57.34a1.782 1.782 0 011.78 1.78v7.82a1.782 1.782 0 01-1.78 1.78h-6.084l-4.727 4.122a.5.5 0 01-.829-.377v-3.859l-2.9.114h-.02a1.782 1.782 0 01-1.777-1.78v-7.82a1.782 1.782 0 011.78-1.78zM57.34 32.38a.781.781 0 00.78-.78v-7.82a.781.781 0 00-.78-.78H42.783a.781.781 0 00-.78.78v7.82a.781.781 0 00.772.78l3.406-.134a.5.5 0 01.52.5v3.28l4.039-3.522a.5.5 0 01.329-.123z" fill="#4c3c36"/></g><g><g transform="translate(2.322 22.177)"><circle cx="8" cy="8" r="8" transform="translate(-.322 -.177)" fill="#4c3c36"/><path d="M10.489 7.859a.762.762 0 01-.224.546l-3.287 3.287a.763.763 0 11-1.077-1.082l2.743-2.743-2.743-2.743a.762.762 0 011.077-1.077l3.287 3.275a.762.762 0 01.224.538z" fill="#fff"/></g></g><g fill="#4c3c36"><path d="M74.552 25.142v7.726H63.144v-7.726h11.41M75.7 24H62v10.014h13.694V24z"/><path d="M76.729 26.174v8.872H64.174v1.135h13.694V26.174z"/></g><g><g><circle cx="8" cy="8" r="8" transform="translate(22 22)" fill="#4c3c36"/></g><path d="M30.482 33.864a.761.761 0 010-1.077l1.987-1.986H25.8a.8.8 0 010-1.6h6.581l-1.9-1.9a.762.762 0 111.077-1.077l3.287 3.274a.767.767 0 010 1.084l-3.287 3.282a.761.761 0 01-1.077 0z" fill="#fff"/></g><g><path d="M56.84 42.812H42.283a1.28 1.28 0 00-1.28 1.28v7.82a1.28 1.28 0 001.28 1.28l3.417-.134v4.379l4.868-4.245h6.272a1.28 1.28 0 001.28-1.28v-7.82a1.28 1.28 0 00-1.28-1.28z" fill="#fff"/><path d="M42.783 42H57.34a1.782 1.782 0 011.78 1.78v7.82a1.782 1.782 0 01-1.78 1.78h-6.084l-4.727 4.122a.5.5 0 01-.829-.377v-3.859l-2.9.114h-.02a1.782 1.782 0 01-1.777-1.78v-7.82a1.782 1.782 0 011.78-1.78zM57.34 52.38a.781.781 0 00.78-.78v-7.82a.781.781 0 00-.78-.78H42.783a.781.781 0 00-.78.78v7.82a.781.781 0 00.772.78l3.406-.134a.5.5 0 01.52.5v3.28l4.039-3.522a.5.5 0 01.329-.123z" fill="#c090c9"/></g><g><g transform="translate(2.322 42.177)"><circle cx="8" cy="8" r="8" transform="translate(-.322 -.177)" fill="#c090c9"/><path d="M10.489 7.859a.762.762 0 01-.224.546l-3.287 3.287a.763.763 0 11-1.077-1.082l2.743-2.743-2.743-2.743a.762.762 0 011.077-1.077l3.287 3.275a.762.762 0 01.224.538z" fill="#fff"/></g></g><g fill="#c090c9"><path d="M74.552 45.142v7.726H63.144v-7.726h11.41M75.7 44H62v10.014h13.694V44z"/><path d="M76.729 46.174v8.872H64.174v1.135h13.694V46.174z"/></g><g><g><circle cx="8" cy="8" r="8" transform="translate(22 42)" fill="#c090c9"/></g><path d="M30.482 53.864a.761.761 0 010-1.077l1.987-1.986H25.8a.8.8 0 010-1.6h6.581l-1.9-1.9a.762.762 0 111.077-1.077l3.287 3.274a.767.767 0 010 1.084l-3.287 3.282a.761.761 0 01-1.077 0z" fill="#fff"/></g></svg>