<svg xmlns="http://www.w3.org/2000/svg" width="504" height="144" viewBox="0 0 504 144"><g fill="#fff"><path d="M29 10H7a1 1 0 01-1-1 1 1 0 011-1h22a1 1 0 011 1 1 1 0 01-1 1z"/><path d="M20 19H7a1 1 0 01-1-1 1 1 0 011-1h13a1 1 0 011 1 1 1 0 01-1 1z"/><path d="M29 28H7a1 1 0 01-1-1 1 1 0 011-1h22a1 1 0 011 1 1 1 0 01-1 1z"/></g><g fill="#fff"><path d="M327.643 11.135a1 1 0 011-1h4.115a1 1 0 011 1 1 1 0 01-1 1h-4.115a1 1 0 01-1-1z"/><path d="M336.902 11.135a1 1 0 011-1h15.432a1 1 0 011 1 1 1 0 01-1 1h-15.432a1 1 0 01-1-1z"/><path d="M327.643 25.538a1 1 0 011-1h10.288a1 1 0 011 1 1 1 0 01-1 1h-10.288a1 1 0 01-1-1z"/><path d="M342.046 25.538a1 1 0 011-1h10.288a1 1 0 011 1 1 1 0 01-1 1h-10.288a1 1 0 01-1-1z"/><path d="M350.276 18.336a1 1 0 011-1h2.058a1 1 0 011 1 1 1 0 01-1 1h-2.058a1 1 0 01-1-1z"/><path d="M327.642 18.336a1 1 0 011-1h17.49a1 1 0 011 1 1 1 0 01-1 1h-17.49a1 1 0 01-1-1z"/><path d="M331.758 13.192V9.077a1 1 0 011-1 1 1 0 011 1v4.115a1 1 0 01-1 1 1 1 0 01-1-1z"/><path d="M345.132 20.394v-4.115a1 1 0 011-1 1 1 0 011 1v4.115a1 1 0 01-1 1 1 1 0 01-1-1z"/><path d="M337.931 27.595V23.48a1 1 0 011-1 1 1 0 011 1v4.115a1 1 0 01-1 1 1 1 0 01-1-1z"/></g><g transform="translate(149 6)" clip-path="url(#clip-path)"><path d="M12.725.116a1.515 1.515 0 011.395.92l2.747 6.425a.018.018 0 00.014.011l7.052.581a1.518 1.518 0 01.857 2.669l-5.336 4.521a.019.019 0 00-.005.019l1.618 6.749a1.5 1.5 0 01-.281 1.288 1.537 1.537 0 01-1.2.583 1.518 1.518 0 01-.774-.215l-6.081-3.613a.032.032 0 00-.016 0l-6.082 3.613a1.518 1.518 0 01-.774.215 1.537 1.537 0 01-1.192-.582 1.5 1.5 0 01-.282-1.289l1.612-6.751a.018.018 0 00-.006-.018l-5.337-4.52a1.518 1.518 0 01.856-2.67l7.052-.585a.019.019 0 00.015-.012l2.754-6.424a1.514 1.514 0 011.394-.915zm.01 1.5a.12.12 0 00-.022 0v.008L9.955 8.052a1.516 1.516 0 01-1.27.915l-7.051.581h-.011a.05.05 0 00-.006.019l.007.006 5.334 4.52a1.51 1.51 0 01.494 1.511l-1.611 6.755a.04.04 0 000 .011.045.045 0 00.019.013h.008l6.083-3.616a1.515 1.515 0 011.55 0l6.08 3.612h.01a.048.048 0 00.017-.014v-.009l-1.612-6.75a1.513 1.513 0 01.5-1.511l5.335-4.521.008-.008a.049.049 0 00-.008-.022h-.01l-7.054-.577a1.514 1.514 0 01-1.27-.915l-2.756-6.425a.046.046 0 00-.005-.01z" fill="#fff"/></g><g transform="translate(149 42)" clip-path="url(#clip-path-2)"><path d="M12.725.116a1.515 1.515 0 011.395.92l2.747 6.425a.018.018 0 00.014.011l7.052.581a1.518 1.518 0 01.857 2.669l-5.336 4.521a.019.019 0 00-.005.019l1.618 6.749a1.5 1.5 0 01-.281 1.288 1.537 1.537 0 01-1.2.583 1.518 1.518 0 01-.774-.215l-6.081-3.613a.032.032 0 00-.016 0l-6.082 3.613a1.518 1.518 0 01-.774.215 1.537 1.537 0 01-1.192-.582 1.5 1.5 0 01-.282-1.289l1.612-6.751a.018.018 0 00-.006-.018l-5.337-4.52a1.518 1.518 0 01.856-2.67l7.052-.585a.019.019 0 00.015-.012l2.754-6.424a1.514 1.514 0 011.394-.915zm.01 1.5a.12.12 0 00-.022 0v.008L9.955 8.052a1.516 1.516 0 01-1.27.915l-7.051.581h-.011a.05.05 0 00-.006.019l.007.006 5.334 4.52a1.51 1.51 0 01.494 1.511l-1.611 6.755a.04.04 0 000 .011.045.045 0 00.019.013h.008l6.083-3.616a1.515 1.515 0 011.55 0l6.08 3.612h.01a.048.048 0 00.017-.014v-.009l-1.612-6.75a1.513 1.513 0 01.5-1.511l5.335-4.521.008-.008a.049.049 0 00-.008-.022h-.01l-7.054-.577a1.514 1.514 0 01-1.27-.915l-2.756-6.425a.046.046 0 00-.005-.01z" fill="#999"/></g><g transform="translate(149 78)" clip-path="url(#clip-path-3)"><path d="M12.725.116a1.515 1.515 0 011.395.92l2.747 6.425a.018.018 0 00.014.011l7.052.581a1.518 1.518 0 01.857 2.669l-5.336 4.521a.019.019 0 00-.005.019l1.618 6.749a1.5 1.5 0 01-.281 1.288 1.537 1.537 0 01-1.2.583 1.518 1.518 0 01-.774-.215l-6.081-3.613a.032.032 0 00-.016 0l-6.082 3.613a1.518 1.518 0 01-.774.215 1.537 1.537 0 01-1.192-.582 1.5 1.5 0 01-.282-1.289l1.612-6.751a.018.018 0 00-.006-.018l-5.337-4.52a1.518 1.518 0 01.856-2.67l7.052-.585a.019.019 0 00.015-.012l2.754-6.424a1.514 1.514 0 011.394-.915zm.01 1.5a.12.12 0 00-.022 0v.008L9.955 8.052a1.516 1.516 0 01-1.27.915l-7.051.581h-.011a.05.05 0 00-.006.019l.007.006 5.334 4.52a1.51 1.51 0 01.494 1.511l-1.611 6.755a.04.04 0 000 .011.045.045 0 00.019.013h.008l6.083-3.616a1.515 1.515 0 011.55 0l6.08 3.612h.01a.048.048 0 00.017-.014v-.009l-1.612-6.75a1.513 1.513 0 01.5-1.511l5.335-4.521.008-.008a.049.049 0 00-.008-.022h-.01l-7.054-.577a1.514 1.514 0 01-1.27-.915l-2.756-6.425a.046.046 0 00-.005-.01z" fill="#ffaabd"/></g><g transform="translate(184 7)" clip-path="url(#clip-path-4)" fill="#fff"><path d="M25.814 14.879a.715.715 0 01-.447-1.273 6.215 6.215 0 000-9.684.715.715 0 11.894-1.117 7.646 7.646 0 010 11.918.712.712 0 01-.447.156z"/><path d="M23.151 12.795a.715.715 0 01-.405-1.3 3.314 3.314 0 00-.032-5.477.715.715 0 01.795-1.189 4.744 4.744 0 01.047 7.845.712.712 0 01-.405.121z"/><path d="M18.218.093a.715.715 0 01.712.715v15.91a.715.715 0 01-1.089.61l-6.678-4.093H7.64a.715.715 0 01-.715-.715V5.007a.715.715 0 01.715-.715h3.526L17.844.199a.715.715 0 01.374-.106zm-.715 15.35V2.085l-5.761 3.531a.715.715 0 01-.374.105H8.355v6.083h3.012a.715.715 0 01.374.105z"/><path d="M.809 2.648h6.835a.715.715 0 01.715.715v9.918a.715.715 0 01-.715.717H.809a.715.715 0 01-.715-.717V3.363a.715.715 0 01.715-.715zm6.117 1.43H1.524v8.488h5.4z"/><path d="M6.87 22.906a.715.715 0 01-.691-.532l-2.25-8.495a.715.715 0 01.508-.874.715.715 0 01.874.508l2.25 8.495a.716.716 0 01-.692.9z"/></g><g transform="translate(184 43)" clip-path="url(#clip-path-5)" fill="#999"><path d="M25.814 14.879a.715.715 0 01-.447-1.273 6.215 6.215 0 000-9.684.715.715 0 11.894-1.117 7.646 7.646 0 010 11.918.712.712 0 01-.447.156z"/><path d="M23.151 12.795a.715.715 0 01-.405-1.3 3.314 3.314 0 00-.032-5.477.715.715 0 01.795-1.189 4.744 4.744 0 01.047 7.845.712.712 0 01-.405.121z"/><path d="M18.218.093a.715.715 0 01.712.715v15.91a.715.715 0 01-1.089.61l-6.678-4.093H7.64a.715.715 0 01-.715-.715V5.007a.715.715 0 01.715-.715h3.526L17.844.199a.715.715 0 01.374-.106zm-.715 15.35V2.085l-5.761 3.531a.715.715 0 01-.374.105H8.355v6.083h3.012a.715.715 0 01.374.105z"/><path d="M.809 2.648h6.835a.715.715 0 01.715.715v9.918a.715.715 0 01-.715.717H.809a.715.715 0 01-.715-.717V3.363a.715.715 0 01.715-.715zm6.117 1.43H1.524v8.488h5.4z"/><path d="M6.87 22.906a.715.715 0 01-.691-.532l-2.25-8.495a.715.715 0 01.508-.874.715.715 0 01.874.508l2.25 8.495a.716.716 0 01-.692.9z"/></g><g transform="translate(184 79)" clip-path="url(#clip-path-6)" fill="#ffaabd"><path d="M25.814 14.879a.715.715 0 01-.447-1.273 6.215 6.215 0 000-9.684.715.715 0 11.894-1.117 7.646 7.646 0 010 11.918.712.712 0 01-.447.156z"/><path d="M23.151 12.795a.715.715 0 01-.405-1.3 3.314 3.314 0 00-.032-5.477.715.715 0 01.795-1.189 4.744 4.744 0 01.047 7.845.712.712 0 01-.405.121z"/><path d="M18.218.093a.715.715 0 01.712.715v15.91a.715.715 0 01-1.089.61l-6.678-4.093H7.64a.715.715 0 01-.715-.715V5.007a.715.715 0 01.715-.715h3.526L17.844.199a.715.715 0 01.374-.106zm-.715 15.35V2.085l-5.761 3.531a.715.715 0 01-.374.105H8.355v6.083h3.012a.715.715 0 01.374.105z"/><path d="M.809 2.648h6.835a.715.715 0 01.715.715v9.918a.715.715 0 01-.715.717H.809a.715.715 0 01-.715-.717V3.363a.715.715 0 01.715-.715zm6.117 1.43H1.524v8.488h5.4z"/><path d="M6.87 22.906a.715.715 0 01-.691-.532l-2.25-8.495a.715.715 0 01.508-.874.715.715 0 01.874.508l2.25 8.495a.716.716 0 01-.692.9z"/></g><g transform="translate(220.6 7)" clip-path="url(#clip-path-7)" fill="#fff"><path d="M18.221 3.514a2.332 2.332 0 11-2.332 2.332 2.335 2.335 0 012.332-2.332zm0 3.413a1.08 1.08 0 10-1.082-1.081 1.082 1.082 0 001.082 1.081z"/><path d="M15.087 7.827a6.222 6.222 0 01-2.39-.432 2.354 2.354 0 01-1.281-1.321 4.284 4.284 0 01.277-3.062A6.7 6.7 0 0113.325.489a2.509 2.509 0 012.336-.5 4.134 4.134 0 012.181 2.085 9.418 9.418 0 01.692 1.536.626.626 0 01-1.19.39c-.222-.673-1.024-2.491-2.061-2.817a1.313 1.313 0 00-1.207.313 6.429 6.429 0 00-1.24 2.031 2.988 2.988 0 00-.252 2.1 1.1 1.1 0 00.619.626 5.527 5.527 0 003.138.173.626.626 0 01.347 1.201 5.929 5.929 0 01-1.601.2z"/><path d="M21.119 10.36a2.2 2.2 0 01-.506-.061 3.5 3.5 0 01-2.471-2.742.626.626 0 011.238-.184 2.267 2.267 0 001.52 1.708.6.6 0 00.719-.251 8.227 8.227 0 001.637-3.683c-.007-.37-.136-.447-.185-.476-.559-.333-2.226.243-3.176.736a.626.626 0 01-.578-1.11 11.464 11.464 0 011.565-.65 3.472 3.472 0 012.831-.052 1.687 1.687 0 01.8 1.529c.029 1.548-1.293 3.61-1.863 4.424a1.818 1.818 0 01-1.531.812z"/><path d="M12.301 21.549a15.822 15.822 0 01-5.542-.875 8.407 8.407 0 01-4.17-3.242 8.516 8.516 0 01-.984-5.362 15.248 15.248 0 01.731-2.933c.016-.046.041-.1.119-.273.051-.112.156-.346.232-.526a3.991 3.991 0 01-.344-3.5 7.213 7.213 0 01.894-1.859.626.626 0 01.36-.245 5.253 5.253 0 014.341.636 4.936 4.936 0 01.919.8 6.751 6.751 0 012.964-.841.626.626 0 01.067 1.25c-.67.037-2.19.3-2.612.881a.626.626 0 01-1.052-.062 3.711 3.711 0 00-4.087-1.5c-.37.614-1.388 2.569-.272 3.933.26.318.114.671-.016.983-.078.189-.178.41-.251.572l-.082.184a13.994 13.994 0 00-.668 2.682 7.242 7.242 0 00.829 4.554 7.094 7.094 0 003.517 2.693c2.745 1.007 5.527.875 8.619.617a10.668 10.668 0 005.238-1.479c3.332-2.369 2.39-7.142.945-9.772a.626.626 0 011.1-.6 11.705 11.705 0 011.462 5.932 6.757 6.757 0 01-2.778 5.463 11.753 11.753 0 01-5.859 1.706c-1.22.099-2.42.183-3.62.183z"/><path d="M21.947 4.764a.626.626 0 01-.608-.776 2.213 2.213 0 00-.621-2.171 2.909 2.909 0 00-2.681.991.626.626 0 11-1.034-.705 4.184 4.184 0 014.06-1.506.626.626 0 01.287.116 3.464 3.464 0 011.2 3.574.626.626 0 01-.603.477z"/><path d="M16.378 6.476a2.3 2.3 0 01-1.945-.907 1.717 1.717 0 010-1.8 1.428 1.428 0 011.1-.842 2.8 2.8 0 012.145 1.125.626.626 0 11-.932.835 1.868 1.868 0 00-1.053-.718c-.06.008-.13.134-.15.173-.122.237-.143.42-.062.545a1.193 1.193 0 001 .335.626.626 0 11.072 1.25q-.089.004-.175.004z"/><path d="M20.805 8.363a2.816 2.816 0 01-1.726-.973.626.626 0 01.889-.882 2.17 2.17 0 00.793.594.942.942 0 00.081-.3.626.626 0 01.015-.1c.013-.056.05-.243-.009-.309a1.29 1.29 0 00-.846-.149.626.626 0 11-.148-1.243 2.423 2.423 0 011.924.555 1.5 1.5 0 01.308 1.382 1.6 1.6 0 01-.875 1.352 1.147 1.147 0 01-.406.073z"/><path d="M.503 15.813a.626.626 0 01-.443-1.068 3.86 3.86 0 012.639-.747 13.644 13.644 0 011.672.066.626.626 0 11-.14 1.244c-1.289-.144-2.917-.049-3.286.32a.624.624 0 01-.442.185z"/><path d="M1.203 18.045a.626.626 0 01-.626-.626c0-.508.488-.684.96-.855.3-.109.715-.244 1.233-.4.873-.266 1.757-.51 1.765-.513a.626.626 0 01.333 1.207c-1.3.36-2.853.833-3.229 1.011a.624.624 0 01-.436.176z"/><path d="M2.151 20.545a.626.626 0 01-.534-.951c.095-.156.193-.318 2.037-1.439.852-.518 1.693-1.006 1.7-1.011a.626.626 0 01.628 1.083c-1.408.816-3.064 1.831-3.339 2.078a.626.626 0 01-.492.24z"/><path d="M21.898 13.114a.626.626 0 01-.208-1.216 10.824 10.824 0 014.706-.472.626.626 0 11-.2 1.236 9.63 9.63 0 00-4.092.416.625.625 0 01-.206.036z"/><path d="M26.298 15.246a.627.627 0 01-.152-.019 13.793 13.793 0 00-3.62-.118.626.626 0 11-.122-1.246 14.818 14.818 0 014.045.149.626.626 0 01-.151 1.233z"/><path d="M26.03 17.746a.624.624 0 01-.437-.178 18.151 18.151 0 00-3.916-.861.626.626 0 01.174-1.24c.039.006.978.138 1.99.334 1.947.378 2.422.652 2.646.891a.626.626 0 01-.457 1.053z"/></g><g transform="translate(220.6 43)" clip-path="url(#clip-path-8)" fill="#999"><path d="M18.221 3.514a2.332 2.332 0 11-2.332 2.332 2.335 2.335 0 012.332-2.332zm0 3.413a1.08 1.08 0 10-1.082-1.081 1.082 1.082 0 001.082 1.081z"/><path d="M15.087 7.827a6.222 6.222 0 01-2.39-.432 2.354 2.354 0 01-1.281-1.321 4.284 4.284 0 01.277-3.062A6.7 6.7 0 0113.325.489a2.509 2.509 0 012.336-.5 4.134 4.134 0 012.181 2.085 9.418 9.418 0 01.692 1.536.626.626 0 01-1.19.39c-.222-.673-1.024-2.491-2.061-2.817a1.313 1.313 0 00-1.207.313 6.429 6.429 0 00-1.24 2.031 2.988 2.988 0 00-.252 2.1 1.1 1.1 0 00.619.626 5.527 5.527 0 003.138.173.626.626 0 01.347 1.201 5.929 5.929 0 01-1.601.2z"/><path d="M21.119 10.36a2.2 2.2 0 01-.506-.061 3.5 3.5 0 01-2.471-2.742.626.626 0 011.238-.184 2.267 2.267 0 001.52 1.708.6.6 0 00.719-.251 8.227 8.227 0 001.637-3.683c-.007-.37-.136-.447-.185-.476-.559-.333-2.226.243-3.176.736a.626.626 0 01-.578-1.11 11.464 11.464 0 011.565-.65 3.472 3.472 0 012.831-.052 1.687 1.687 0 01.8 1.529c.029 1.548-1.293 3.61-1.863 4.424a1.818 1.818 0 01-1.531.812z"/><path d="M12.301 21.549a15.822 15.822 0 01-5.542-.875 8.407 8.407 0 01-4.17-3.242 8.516 8.516 0 01-.984-5.362 15.248 15.248 0 01.731-2.933c.016-.046.041-.1.119-.273.051-.112.156-.346.232-.526a3.991 3.991 0 01-.344-3.5 7.213 7.213 0 01.894-1.859.626.626 0 01.36-.245 5.253 5.253 0 014.341.636 4.936 4.936 0 01.919.8 6.751 6.751 0 012.964-.841.626.626 0 01.067 1.25c-.67.037-2.19.3-2.612.881a.626.626 0 01-1.052-.062 3.711 3.711 0 00-4.087-1.5c-.37.614-1.388 2.569-.272 3.933.26.318.114.671-.016.983-.078.189-.178.41-.251.572l-.082.184a13.994 13.994 0 00-.668 2.682 7.242 7.242 0 00.829 4.554 7.094 7.094 0 003.517 2.693c2.745 1.007 5.527.875 8.619.617a10.668 10.668 0 005.238-1.479c3.332-2.369 2.39-7.142.945-9.772a.626.626 0 011.1-.6 11.705 11.705 0 011.462 5.932 6.757 6.757 0 01-2.778 5.463 11.753 11.753 0 01-5.859 1.706c-1.22.099-2.42.183-3.62.183z"/><path d="M21.947 4.764a.626.626 0 01-.608-.776 2.213 2.213 0 00-.621-2.171 2.909 2.909 0 00-2.681.991.626.626 0 11-1.034-.705 4.184 4.184 0 014.06-1.506.626.626 0 01.287.116 3.464 3.464 0 011.2 3.574.626.626 0 01-.603.477z"/><path d="M16.378 6.476a2.3 2.3 0 01-1.945-.907 1.717 1.717 0 010-1.8 1.428 1.428 0 011.1-.842 2.8 2.8 0 012.145 1.125.626.626 0 11-.932.835 1.868 1.868 0 00-1.053-.718c-.06.008-.13.134-.15.173-.122.237-.143.42-.062.545a1.193 1.193 0 001 .335.626.626 0 11.072 1.25q-.089.004-.175.004z"/><path d="M20.805 8.363a2.816 2.816 0 01-1.726-.973.626.626 0 01.889-.882 2.17 2.17 0 00.793.594.942.942 0 00.081-.3.626.626 0 01.015-.1c.013-.056.05-.243-.009-.309a1.29 1.29 0 00-.846-.149.626.626 0 11-.148-1.243 2.423 2.423 0 011.924.555 1.5 1.5 0 01.308 1.382 1.6 1.6 0 01-.875 1.352 1.147 1.147 0 01-.406.073z"/><path d="M.503 15.813a.626.626 0 01-.443-1.068 3.86 3.86 0 012.639-.747 13.644 13.644 0 011.672.066.626.626 0 11-.14 1.244c-1.289-.144-2.917-.049-3.286.32a.624.624 0 01-.442.185z"/><path d="M1.203 18.045a.626.626 0 01-.626-.626c0-.508.488-.684.96-.855.3-.109.715-.244 1.233-.4.873-.266 1.757-.51 1.765-.513a.626.626 0 01.333 1.207c-1.3.36-2.853.833-3.229 1.011a.624.624 0 01-.436.176z"/><path d="M2.151 20.545a.626.626 0 01-.534-.951c.095-.156.193-.318 2.037-1.439.852-.518 1.693-1.006 1.7-1.011a.626.626 0 01.628 1.083c-1.408.816-3.064 1.831-3.339 2.078a.626.626 0 01-.492.24z"/><path d="M21.898 13.114a.626.626 0 01-.208-1.216 10.824 10.824 0 014.706-.472.626.626 0 11-.2 1.236 9.63 9.63 0 00-4.092.416.625.625 0 01-.206.036z"/><path d="M26.298 15.246a.627.627 0 01-.152-.019 13.793 13.793 0 00-3.62-.118.626.626 0 11-.122-1.246 14.818 14.818 0 014.045.149.626.626 0 01-.151 1.233z"/><path d="M26.03 17.746a.624.624 0 01-.437-.178 18.151 18.151 0 00-3.916-.861.626.626 0 01.174-1.24c.039.006.978.138 1.99.334 1.947.378 2.422.652 2.646.891a.626.626 0 01-.457 1.053z"/></g><g transform="translate(220.6 79)" clip-path="url(#clip-path-9)" fill="#ffaabd"><path d="M18.221 3.514a2.332 2.332 0 11-2.332 2.332 2.335 2.335 0 012.332-2.332zm0 3.413a1.08 1.08 0 10-1.082-1.081 1.082 1.082 0 001.082 1.081z"/><path d="M15.087 7.827a6.222 6.222 0 01-2.39-.432 2.354 2.354 0 01-1.281-1.321 4.284 4.284 0 01.277-3.062A6.7 6.7 0 0113.325.489a2.509 2.509 0 012.336-.5 4.134 4.134 0 012.181 2.085 9.418 9.418 0 01.692 1.536.626.626 0 01-1.19.39c-.222-.673-1.024-2.491-2.061-2.817a1.313 1.313 0 00-1.207.313 6.429 6.429 0 00-1.24 2.031 2.988 2.988 0 00-.252 2.1 1.1 1.1 0 00.619.626 5.527 5.527 0 003.138.173.626.626 0 01.347 1.201 5.929 5.929 0 01-1.601.2z"/><path d="M21.119 10.36a2.2 2.2 0 01-.506-.061 3.5 3.5 0 01-2.471-2.742.626.626 0 011.238-.184 2.267 2.267 0 001.52 1.708.6.6 0 00.719-.251 8.227 8.227 0 001.637-3.683c-.007-.37-.136-.447-.185-.476-.559-.333-2.226.243-3.176.736a.626.626 0 01-.578-1.11 11.464 11.464 0 011.565-.65 3.472 3.472 0 012.831-.052 1.687 1.687 0 01.8 1.529c.029 1.548-1.293 3.61-1.863 4.424a1.818 1.818 0 01-1.531.812z"/><path d="M12.301 21.549a15.822 15.822 0 01-5.542-.875 8.407 8.407 0 01-4.17-3.242 8.516 8.516 0 01-.984-5.362 15.248 15.248 0 01.731-2.933c.016-.046.041-.1.119-.273.051-.112.156-.346.232-.526a3.991 3.991 0 01-.344-3.5 7.213 7.213 0 01.894-1.859.626.626 0 01.36-.245 5.253 5.253 0 014.341.636 4.936 4.936 0 01.919.8 6.751 6.751 0 012.964-.841.626.626 0 01.067 1.25c-.67.037-2.19.3-2.612.881a.626.626 0 01-1.052-.062 3.711 3.711 0 00-4.087-1.5c-.37.614-1.388 2.569-.272 3.933.26.318.114.671-.016.983-.078.189-.178.41-.251.572l-.082.184a13.994 13.994 0 00-.668 2.682 7.242 7.242 0 00.829 4.554 7.094 7.094 0 003.517 2.693c2.745 1.007 5.527.875 8.619.617a10.668 10.668 0 005.238-1.479c3.332-2.369 2.39-7.142.945-9.772a.626.626 0 011.1-.6 11.705 11.705 0 011.462 5.932 6.757 6.757 0 01-2.778 5.463 11.753 11.753 0 01-5.859 1.706c-1.22.099-2.42.183-3.62.183z"/><path d="M21.947 4.764a.626.626 0 01-.608-.776 2.213 2.213 0 00-.621-2.171 2.909 2.909 0 00-2.681.991.626.626 0 11-1.034-.705 4.184 4.184 0 014.06-1.506.626.626 0 01.287.116 3.464 3.464 0 011.2 3.574.626.626 0 01-.603.477z"/><path d="M16.378 6.476a2.3 2.3 0 01-1.945-.907 1.717 1.717 0 010-1.8 1.428 1.428 0 011.1-.842 2.8 2.8 0 012.145 1.125.626.626 0 11-.932.835 1.868 1.868 0 00-1.053-.718c-.06.008-.13.134-.15.173-.122.237-.143.42-.062.545a1.193 1.193 0 001 .335.626.626 0 11.072 1.25q-.089.004-.175.004z"/><path d="M20.805 8.363a2.816 2.816 0 01-1.726-.973.626.626 0 01.889-.882 2.17 2.17 0 00.793.594.942.942 0 00.081-.3.626.626 0 01.015-.1c.013-.056.05-.243-.009-.309a1.29 1.29 0 00-.846-.149.626.626 0 11-.148-1.243 2.423 2.423 0 011.924.555 1.5 1.5 0 01.308 1.382 1.6 1.6 0 01-.875 1.352 1.147 1.147 0 01-.406.073z"/><path d="M.503 15.813a.626.626 0 01-.443-1.068 3.86 3.86 0 012.639-.747 13.644 13.644 0 011.672.066.626.626 0 11-.14 1.244c-1.289-.144-2.917-.049-3.286.32a.624.624 0 01-.442.185z"/><path d="M1.203 18.045a.626.626 0 01-.626-.626c0-.508.488-.684.96-.855.3-.109.715-.244 1.233-.4.873-.266 1.757-.51 1.765-.513a.626.626 0 01.333 1.207c-1.3.36-2.853.833-3.229 1.011a.624.624 0 01-.436.176z"/><path d="M2.151 20.545a.626.626 0 01-.534-.951c.095-.156.193-.318 2.037-1.439.852-.518 1.693-1.006 1.7-1.011a.626.626 0 01.628 1.083c-1.408.816-3.064 1.831-3.339 2.078a.626.626 0 01-.492.24z"/><path d="M21.898 13.114a.626.626 0 01-.208-1.216 10.824 10.824 0 014.706-.472.626.626 0 11-.2 1.236 9.63 9.63 0 00-4.092.416.625.625 0 01-.206.036z"/><path d="M26.298 15.246a.627.627 0 01-.152-.019 13.793 13.793 0 00-3.62-.118.626.626 0 11-.122-1.246 14.818 14.818 0 014.045.149.626.626 0 01-.151 1.233z"/><path d="M26.03 17.746a.624.624 0 01-.437-.178 18.151 18.151 0 00-3.916-.861.626.626 0 01.174-1.24c.039.006.978.138 1.99.334 1.947.378 2.422.652 2.646.891a.626.626 0 01-.457 1.053z"/></g><g><g transform="translate(260 4)" clip-path="url(#clip-path-10)" fill="#fff"><path d="M15.984 16.666a.808.808 0 01-.808-.808v-4.027A5.265 5.265 0 009.69 6.949a5.271 5.271 0 00-5.483 4.862v4.047a.808.808 0 11-1.615 0v-4.072a6.3 6.3 0 012.144-4.59A7.373 7.373 0 019.69 5.334a7.371 7.371 0 014.967 1.871 6.293 6.293 0 012.133 4.609V15.858a.808.808 0 01-.806.808z"/><path d="M9.693 6.426a.808.808 0 01-.808-.808V4.084a.808.808 0 111.615 0v1.534a.808.808 0 01-.807.808z"/><path d="M9.692 27.481a3.171 3.171 0 01-3.256-3.071.808.808 0 111.615 0 1.558 1.558 0 001.641 1.456 1.559 1.559 0 001.642-1.456.808.808 0 111.615 0 3.172 3.172 0 01-3.257 3.071z"/><path d="M9.692 4.811a2.2 2.2 0 01-2.255-2.142 2.258 2.258 0 014.511 0 2.205 2.205 0 01-2.256 2.142zm0-2.677a.593.593 0 00-.64.531.651.651 0 001.28 0 .594.594 0 00-.64-.531z"/><path d="M1.244 15.051h16.9a.808.808 0 01.808.808 12.134 12.134 0 01-.391 3.513 3.275 3.275 0 01-3.255 2.668H4.086c-1.024 0-2.4-.459-3.143-2.646a11.7 11.7 0 01-.5-3.534.808.808 0 01.801-.809zm16.075 1.615H2.08c.092 1.371.471 3.757 2 3.757h11.223c1.297 0 1.916-1.134 2.016-3.757z"/></g></g><g><g transform="translate(260 40)" clip-path="url(#clip-path-11)" fill="#999"><path d="M15.984 16.666a.808.808 0 01-.808-.808v-4.027A5.265 5.265 0 009.69 6.949a5.271 5.271 0 00-5.483 4.862v4.047a.808.808 0 11-1.615 0v-4.072a6.3 6.3 0 012.144-4.59A7.373 7.373 0 019.69 5.334a7.371 7.371 0 014.967 1.871 6.293 6.293 0 012.133 4.609V15.858a.808.808 0 01-.806.808z"/><path d="M9.693 6.426a.808.808 0 01-.808-.808V4.084a.808.808 0 111.615 0v1.534a.808.808 0 01-.807.808z"/><path d="M9.692 27.481a3.171 3.171 0 01-3.256-3.071.808.808 0 111.615 0 1.558 1.558 0 001.641 1.456 1.559 1.559 0 001.642-1.456.808.808 0 111.615 0 3.172 3.172 0 01-3.257 3.071z"/><path d="M9.692 4.811a2.2 2.2 0 01-2.255-2.142 2.258 2.258 0 014.511 0 2.205 2.205 0 01-2.256 2.142zm0-2.677a.593.593 0 00-.64.531.651.651 0 001.28 0 .594.594 0 00-.64-.531z"/><path d="M1.244 15.051h16.9a.808.808 0 01.808.808 12.134 12.134 0 01-.391 3.513 3.275 3.275 0 01-3.255 2.668H4.086c-1.024 0-2.4-.459-3.143-2.646a11.7 11.7 0 01-.5-3.534.808.808 0 01.801-.809zm16.075 1.615H2.08c.092 1.371.471 3.757 2 3.757h11.223c1.297 0 1.916-1.134 2.016-3.757z"/></g></g><g><g transform="translate(260 76)" clip-path="url(#clip-path-12)" fill="#ffaabd"><path d="M15.984 16.666a.808.808 0 01-.808-.808v-4.027A5.265 5.265 0 009.69 6.949a5.271 5.271 0 00-5.483 4.862v4.047a.808.808 0 11-1.615 0v-4.072a6.3 6.3 0 012.144-4.59A7.373 7.373 0 019.69 5.334a7.371 7.371 0 014.967 1.871 6.293 6.293 0 012.133 4.609V15.858a.808.808 0 01-.806.808z"/><path d="M9.693 6.426a.808.808 0 01-.808-.808V4.084a.808.808 0 111.615 0v1.534a.808.808 0 01-.807.808z"/><path d="M9.692 27.481a3.171 3.171 0 01-3.256-3.071.808.808 0 111.615 0 1.558 1.558 0 001.641 1.456 1.559 1.559 0 001.642-1.456.808.808 0 111.615 0 3.172 3.172 0 01-3.257 3.071z"/><path d="M9.692 4.811a2.2 2.2 0 01-2.255-2.142 2.258 2.258 0 014.511 0 2.205 2.205 0 01-2.256 2.142zm0-2.677a.593.593 0 00-.64.531.651.651 0 001.28 0 .594.594 0 00-.64-.531z"/><path d="M1.244 15.051h16.9a.808.808 0 01.808.808 12.134 12.134 0 01-.391 3.513 3.275 3.275 0 01-3.255 2.668H4.086c-1.024 0-2.4-.459-3.143-2.646a11.7 11.7 0 01-.5-3.534.808.808 0 01.801-.809zm16.075 1.615H2.08c.092 1.371.471 3.757 2 3.757h11.223c1.297 0 1.916-1.134 2.016-3.757z"/></g></g><g><g transform="translate(295 6)" clip-path="url(#clip-path-13)" fill="#fff"><path d="M20.995 22.599H.695a.75.75 0 01-.745-.838L1.463 9.029a.75.75 0 01.745-.662h17.276a.75.75 0 01.745.662l1.513 12.737a.75.75 0 01-.745.838zm-19.456-1.5h18.613L18.817 9.867H2.874z"/><path d="M16.325 9.889a.75.75 0 01-.75-.75V6.174a4.73 4.73 0 00-9.459 0V8.69a.75.75 0 01-1.5 0V6.174a6.23 6.23 0 0112.459 0v2.965a.75.75 0 01-.75.75z"/><path d="M11.107 16.886a.75.75 0 01-.244-.041L1.58 13.66a.75.75 0 11.487-1.419l9.028 3.1 8.51-3.191a.75.75 0 01.527 1.4l-8.762 3.289a.75.75 0 01-.263.047z"/></g></g><g><g transform="translate(295 42)" clip-path="url(#clip-path-14)" fill="#999"><path d="M20.995 22.599H.695a.75.75 0 01-.745-.838L1.463 9.029a.75.75 0 01.745-.662h17.276a.75.75 0 01.745.662l1.513 12.737a.75.75 0 01-.745.838zm-19.456-1.5h18.613L18.817 9.867H2.874z"/><path d="M16.325 9.889a.75.75 0 01-.75-.75V6.174a4.73 4.73 0 00-9.459 0V8.69a.75.75 0 01-1.5 0V6.174a6.23 6.23 0 0112.459 0v2.965a.75.75 0 01-.75.75z"/><path d="M11.107 16.886a.75.75 0 01-.244-.041L1.58 13.66a.75.75 0 11.487-1.419l9.028 3.1 8.51-3.191a.75.75 0 01.527 1.4l-8.762 3.289a.75.75 0 01-.263.047z"/></g></g><g><g transform="translate(295 78)" clip-path="url(#clip-path-15)" fill="#ffaabd"><path d="M20.995 22.599H.695a.75.75 0 01-.745-.838L1.463 9.029a.75.75 0 01.745-.662h17.276a.75.75 0 01.745.662l1.513 12.737a.75.75 0 01-.745.838zm-19.456-1.5h18.613L18.817 9.867H2.874z"/><path d="M16.325 9.889a.75.75 0 01-.75-.75V6.174a4.73 4.73 0 00-9.459 0V8.69a.75.75 0 01-1.5 0V6.174a6.23 6.23 0 0112.459 0v2.965a.75.75 0 01-.75.75z"/><path d="M11.107 16.886a.75.75 0 01-.244-.041L1.58 13.66a.75.75 0 11.487-1.419l9.028 3.1 8.51-3.191a.75.75 0 01.527 1.4l-8.762 3.289a.75.75 0 01-.263.047z"/></g></g><g fill="#fff"><path d="M53.88 7A9.9 9.9 0 1144 16.9 9.9 9.9 0 0153.88 7zm0 17.8A7.9 7.9 0 1046 16.9a7.9 7.9 0 007.88 7.9z"/><path d="M63.802 28.549a1 1 0 01-.707-.294l-3.494-3.493a1 1 0 010-1.414 1 1 0 011.414 0l3.493 3.494a1 1 0 01-.707 1.707z"/></g><g fill="#fff"><path d="M89.8 5a12.8 12.8 0 0112.8 12.8 12.8 12.8 0 01-12.8 12.8A12.8 12.8 0 0177 17.8 12.8 12.8 0 0189.8 5zm0 23.6A10.8 10.8 0 1079 17.8a10.812 10.812 0 0010.8 10.8z"/><path d="M89.799 9.291a5.291 5.291 0 11-5.291 5.291 5.3 5.3 0 015.291-5.291zm0 8.581a3.291 3.291 0 10-3.291-3.29 3.294 3.294 0 003.291 3.29z"/><path d="M97.297 27.909a1 1 0 01-1-.964c-.162-4.5-2.531-7.073-6.5-7.073s-6.338 2.578-6.5 7.073a1 1 0 01-1 .964h-.037a1 1 0 01-.963-1.035 9.721 9.721 0 012.617-6.778 8.891 8.891 0 0111.762 0 9.721 9.721 0 012.617 6.778 1 1 0 01-.963 1.035z"/></g><g fill="#999"><path d="M89.8 41a12.8 12.8 0 0112.8 12.8 12.8 12.8 0 01-12.8 12.8A12.8 12.8 0 0177 53.8 12.8 12.8 0 0189.8 41zm0 23.6A10.8 10.8 0 1079 53.8a10.812 10.812 0 0010.8 10.8z"/><path d="M89.799 45.291a5.291 5.291 0 11-5.291 5.291 5.3 5.3 0 015.291-5.291zm0 8.581a3.291 3.291 0 10-3.291-3.29 3.294 3.294 0 003.291 3.29z"/><path d="M97.297 63.909a1 1 0 01-1-.964c-.162-4.5-2.531-7.073-6.5-7.073s-6.338 2.578-6.5 7.073a1 1 0 01-1 .964h-.037a1 1 0 01-.963-1.035 9.721 9.721 0 012.617-6.778 8.891 8.891 0 0111.762 0 9.721 9.721 0 012.617 6.778 1 1 0 01-.963 1.035z"/></g><g fill="#ffaabd"><path d="M89.8 77a12.8 12.8 0 0112.8 12.8 12.8 12.8 0 01-12.8 12.8A12.8 12.8 0 0177 89.8 12.8 12.8 0 0189.8 77zm0 23.6A10.8 10.8 0 1079 89.8a10.812 10.812 0 0010.8 10.8z"/><path d="M89.799 81.291a5.291 5.291 0 11-5.291 5.291 5.3 5.3 0 015.291-5.291zm0 8.581a3.291 3.291 0 10-3.291-3.29 3.294 3.294 0 003.291 3.29z"/><path d="M97.297 99.909a1 1 0 01-1-.964c-.162-4.5-2.531-7.073-6.5-7.073s-6.338 2.578-6.5 7.073a1 1 0 01-1 .964h-.037a1 1 0 01-.963-1.035 9.721 9.721 0 012.617-6.778 8.891 8.891 0 0111.762 0 9.721 9.721 0 012.617 6.778 1 1 0 01-.963 1.035z"/></g><g transform="translate(127.193 -432.272)"><path d="M254.791 439.881l7.4 7.4a2.078 2.078 0 010 2.938l-11.431 11.435a2.079 2.079 0 01-1.477.609l-7.405-.027a2.077 2.077 0 01-2.071-2.078v-7.372a2.078 2.078 0 01.608-1.469l11.436-11.436a2.078 2.078 0 012.94 0z" fill="#fff" stroke="#fff" stroke-miterlimit="10" stroke-width="1.5"/><circle cx="2.076" cy="2.076" r="2.076" transform="translate(245.029 452.894)" fill="#ffaabd"/></g><g fill="#999"><path d="M327.643 47.135a1 1 0 011-1h4.115a1 1 0 011 1 1 1 0 01-1 1h-4.115a1 1 0 01-1-1z"/><path d="M336.902 47.135a1 1 0 011-1h15.432a1 1 0 011 1 1 1 0 01-1 1h-15.432a1 1 0 01-1-1z"/><path d="M327.643 61.538a1 1 0 011-1h10.288a1 1 0 011 1 1 1 0 01-1 1h-10.288a1 1 0 01-1-1z"/><path d="M342.046 61.538a1 1 0 011-1h10.288a1 1 0 011 1 1 1 0 01-1 1h-10.288a1 1 0 01-1-1z"/><path d="M350.276 54.336a1 1 0 011-1h2.058a1 1 0 011 1 1 1 0 01-1 1h-2.058a1 1 0 01-1-1z"/><path d="M327.642 54.336a1 1 0 011-1h17.49a1 1 0 011 1 1 1 0 01-1 1h-17.49a1 1 0 01-1-1z"/><path d="M331.758 49.192v-4.115a1 1 0 011-1 1 1 0 011 1v4.115a1 1 0 01-1 1 1 1 0 01-1-1z"/><path d="M345.132 56.394v-4.115a1 1 0 011-1 1 1 0 011 1v4.115a1 1 0 01-1 1 1 1 0 01-1-1z"/><path d="M337.931 63.595V59.48a1 1 0 011-1 1 1 0 011 1v4.115a1 1 0 01-1 1 1 1 0 01-1-1z"/></g><g fill="#999"><path d="M29 46H7a1 1 0 01-1-1 1 1 0 011-1h22a1 1 0 011 1 1 1 0 01-1 1z"/><path d="M20 55H7a1 1 0 01-1-1 1 1 0 011-1h13a1 1 0 011 1 1 1 0 01-1 1z"/><path d="M29 64H7a1 1 0 01-1-1 1 1 0 011-1h22a1 1 0 011 1 1 1 0 01-1 1z"/></g><g fill="#999"><path d="M53.88 43A9.9 9.9 0 1144 52.9a9.9 9.9 0 019.88-9.9zm0 17.8A7.9 7.9 0 1046 52.9a7.9 7.9 0 007.88 7.9z"/><path d="M63.802 64.549a1 1 0 01-.707-.294l-3.494-3.493a1 1 0 010-1.414 1 1 0 011.414 0l3.493 3.494a1 1 0 01-.707 1.707z"/></g><path d="M380.515 42.25a2.81 2.81 0 012 .829l7.4 7.4a2.831 2.831 0 010 4l-11.432 11.433a2.811 2.811 0 01-2 .829h-.008l-7.406-.027a2.833 2.833 0 01-2.818-2.828v-7.372a2.847 2.847 0 01.828-2l11.436-11.436a2.81 2.81 0 012-.828zm-4.036 22.991a1.323 1.323 0 00.944-.389l11.433-11.433a1.329 1.329 0 000-1.877l-7.4-7.4a1.328 1.328 0 00-1.878 0l-11.436 11.436a1.336 1.336 0 00-.389.938v7.372a1.33 1.33 0 001.323 1.328z" fill="#999"/><circle cx="2.076" cy="2.076" r="2.076" transform="translate(372.222 56.621)" fill="none" stroke="#999" stroke-miterlimit="10" stroke-width="1.5"/><g fill="#ffaabd"><path d="M327.643 83.135a1 1 0 011-1h4.115a1 1 0 011 1 1 1 0 01-1 1h-4.115a1 1 0 01-1-1z"/><path d="M336.902 83.135a1 1 0 011-1h15.432a1 1 0 011 1 1 1 0 01-1 1h-15.432a1 1 0 01-1-1z"/><path d="M327.643 97.538a1 1 0 011-1h10.288a1 1 0 011 1 1 1 0 01-1 1h-10.288a1 1 0 01-1-1z"/><path d="M342.046 97.538a1 1 0 011-1h10.288a1 1 0 011 1 1 1 0 01-1 1h-10.288a1 1 0 01-1-1z"/><path d="M350.276 90.336a1 1 0 011-1h2.058a1 1 0 011 1 1 1 0 01-1 1h-2.058a1 1 0 01-1-1z"/><path d="M327.642 90.336a1 1 0 011-1h17.49a1 1 0 011 1 1 1 0 01-1 1h-17.49a1 1 0 01-1-1z"/><path d="M331.758 85.192v-4.115a1 1 0 011-1 1 1 0 011 1v4.115a1 1 0 01-1 1 1 1 0 01-1-1z"/><path d="M345.132 92.394v-4.115a1 1 0 011-1 1 1 0 011 1v4.115a1 1 0 01-1 1 1 1 0 01-1-1z"/><path d="M337.931 99.595V95.48a1 1 0 011-1 1 1 0 011 1v4.115a1 1 0 01-1 1 1 1 0 01-1-1z"/></g><g fill="#ffaabd"><path d="M29 82H7a1 1 0 01-1-1 1 1 0 011-1h22a1 1 0 011 1 1 1 0 01-1 1z"/><path d="M20 91H7a1 1 0 01-1-1 1 1 0 011-1h13a1 1 0 011 1 1 1 0 01-1 1z"/><path d="M29 100H7a1 1 0 01-1-1 1 1 0 011-1h22a1 1 0 011 1 1 1 0 01-1 1z"/></g><g fill="#ffaabd"><path d="M53.88 79A9.9 9.9 0 1144 88.9a9.9 9.9 0 019.88-9.9zm0 17.8A7.9 7.9 0 1046 88.9a7.9 7.9 0 007.88 7.9z"/><path d="M63.802 100.549a1 1 0 01-.707-.294l-3.494-3.493a1 1 0 010-1.414 1 1 0 011.414 0l3.493 3.494a1 1 0 01-.707 1.707z"/></g><path d="M380.515 78.25a2.81 2.81 0 012 .829l7.4 7.4a2.831 2.831 0 010 4l-11.432 11.433a2.811 2.811 0 01-2 .829h-.008l-7.406-.027a2.833 2.833 0 01-2.818-2.828v-7.372a2.847 2.847 0 01.828-2l11.436-11.436a2.81 2.81 0 012-.828zm-4.036 22.991a1.323 1.323 0 00.944-.389l11.433-11.433a1.329 1.329 0 000-1.877l-7.4-7.4a1.328 1.328 0 00-1.878 0l-11.436 11.436a1.336 1.336 0 00-.389.938v7.372a1.33 1.33 0 001.323 1.328z" fill="#ffaabd"/><path d="M374.298 91.871a2.826 2.826 0 11-2.826 2.826 2.829 2.829 0 012.826-2.826zm0 4.151a1.326 1.326 0 10-1.326-1.325 1.327 1.327 0 001.326 1.324z" fill="#ffaabd"/><g><g><g clip-path="url(#clip-path-16)" fill="#fff" transform="translate(112 5)"><path d="M8.906 14.887a1 1 0 01-.961-.727L4.547 2.194H1.194a1 1 0 010-2h4.109a1 1 0 01.962.727l3.6 12.692a1 1 0 01-.962 1.273z"/><path d="M21.236 15.36h-12a1 1 0 010-2h11.256l2.061-6.884H6.519a1 1 0 010-2h17.376a1 1 0 01.958 1.287l-2.659 8.884a1 1 0 01-.958.713z"/></g></g><path d="M133.084 24.453h-13.826a1 1 0 01-.953-1.3l1.373-4.329a1 1 0 111.906.6l-.96 3.027h12.46a1 1 0 110 2z" fill="#fff"/><g><g clip-path="url(#clip-path-16)" fill="#fff" transform="translate(112 5)"><path d="M9.141 17.311a3.748 3.748 0 11-3.748 3.748 3.752 3.752 0 013.748-3.748zm0 5.5a1.748 1.748 0 10-1.748-1.752 1.75 1.75 0 001.748 1.752z"/><path d="M20.331 17.311a3.748 3.748 0 11-3.748 3.748 3.752 3.752 0 013.748-3.748zm0 5.5a1.748 1.748 0 10-1.748-1.752 1.75 1.75 0 001.748 1.752z"/></g></g></g><g><g><g clip-path="url(#clip-path-18)" fill="#999" transform="translate(112 41)"><path d="M8.906 14.887a1 1 0 01-.961-.727L4.547 2.194H1.194a1 1 0 010-2h4.109a1 1 0 01.962.727l3.6 12.692a1 1 0 01-.962 1.273z"/><path d="M21.236 15.36h-12a1 1 0 010-2h11.256l2.061-6.884H6.519a1 1 0 010-2h17.376a1 1 0 01.958 1.287l-2.659 8.884a1 1 0 01-.958.713z"/></g></g><path d="M133.084 60.453h-13.826a1 1 0 01-.953-1.3l1.373-4.329a1 1 0 111.906.6l-.96 3.027h12.46a1 1 0 110 2z" fill="#999"/><g><g clip-path="url(#clip-path-18)" fill="#999" transform="translate(112 41)"><path d="M9.141 17.311a3.748 3.748 0 11-3.748 3.748 3.752 3.752 0 013.748-3.748zm0 5.5a1.748 1.748 0 10-1.748-1.752 1.75 1.75 0 001.748 1.752z"/><path d="M20.331 17.311a3.748 3.748 0 11-3.748 3.748 3.752 3.752 0 013.748-3.748zm0 5.5a1.748 1.748 0 10-1.748-1.752 1.75 1.75 0 001.748 1.752z"/></g></g></g><g><g><g clip-path="url(#clip-path-20)" fill="#ffaabd" transform="translate(112 77)"><path d="M8.906 14.887a1 1 0 01-.961-.727L4.547 2.194H1.194a1 1 0 010-2h4.109a1 1 0 01.962.727l3.6 12.692a1 1 0 01-.962 1.273z"/><path d="M21.236 15.36h-12a1 1 0 010-2h11.256l2.061-6.884H6.519a1 1 0 010-2h17.376a1 1 0 01.958 1.287l-2.659 8.884a1 1 0 01-.958.713z"/></g></g><path d="M133.084 96.453h-13.826a1 1 0 01-.953-1.3l1.373-4.329a1 1 0 111.906.6l-.96 3.027h12.46a1 1 0 110 2z" fill="#ffaabd"/><g><g clip-path="url(#clip-path-20)" fill="#ffaabd" transform="translate(112 77)"><path d="M9.141 17.311a3.748 3.748 0 11-3.748 3.748 3.752 3.752 0 013.748-3.748zm0 5.5a1.748 1.748 0 10-1.748-1.752 1.75 1.75 0 001.748 1.752z"/><path d="M20.331 17.311a3.748 3.748 0 11-3.748 3.748 3.752 3.752 0 013.748-3.748zm0 5.5a1.748 1.748 0 10-1.748-1.752 1.75 1.75 0 001.748 1.752z"/></g></g></g><path d="M401.321 30.991c0-.139.279 0 .558 0h.279l8.226-3.625a.137.137 0 00.143-.141h.139l14.361-14.5a3.777 3.777 0 001.115-2.788 3.4 3.4 0 00-1.115-2.787 4.126 4.126 0 00-5.716 0l-14.365 14.221a1.065 1.065 0 00-.279.7l-1.812 4.179c0 .139-.139.139-.139.279l-1.674 3.486a.924.924 0 00.279.976zm21.192-18.266l-12.408 12.41-.978-.976 12.41-12.408zm-15.754 9.064l12.408-12.408 1.115 1.115-12.269 12.548zM424.465 9.8a2.031 2.031 0 01-.7 1.673l-.139.139-3.344-3.345.139-.139a1.74 1.74 0 011.673-.7 2.031 2.031 0 011.673.7 2.031 2.031 0 01.7 1.672zm-16.038 16.59l-2.784 1.255-1.255-1.255 1.255-2.788zm-5.014 2.091l.278-.556.279.279z" fill="#fff"/><path d="M401.321 66.991c0-.139.279 0 .558 0h.279l8.226-3.625a.137.137 0 00.143-.141h.139l14.361-14.5a3.777 3.777 0 001.115-2.788 3.4 3.4 0 00-1.115-2.787 4.126 4.126 0 00-5.716 0l-14.365 14.221a1.065 1.065 0 00-.279.7l-1.812 4.179c0 .139-.139.139-.139.279l-1.674 3.486a.924.924 0 00.279.976zm21.192-18.266l-12.408 12.41-.978-.976 12.41-12.408zm-15.754 9.064l12.408-12.408 1.115 1.115-12.269 12.548zM424.465 45.8a2.031 2.031 0 01-.7 1.673l-.139.139-3.344-3.345.139-.139a1.74 1.74 0 011.673-.7 2.387 2.387 0 012.371 2.372zm-16.038 16.59l-2.784 1.255-1.255-1.255 1.255-2.788zm-5.014 2.091l.278-.556.279.279z" fill="#999"/><path d="M401.321 102.991c0-.139.279 0 .558 0h.279l8.226-3.625a.137.137 0 00.143-.141h.139l14.361-14.5a3.777 3.777 0 001.115-2.788 3.4 3.4 0 00-1.115-2.787 4.126 4.126 0 00-5.716 0l-14.365 14.221a1.065 1.065 0 00-.279.7l-1.812 4.179c0 .139-.139.139-.139.279l-1.674 3.486a.924.924 0 00.279.976zm21.192-18.266l-12.408 12.41-.978-.976 12.41-12.408zm-15.754 9.064l12.408-12.408 1.115 1.115-12.269 12.548zM424.465 81.8a2.031 2.031 0 01-.7 1.673l-.139.139-3.344-3.345.139-.139a1.74 1.74 0 011.673-.7 2.387 2.387 0 012.371 2.372zm-16.038 16.59l-2.784 1.255-1.255-1.255 1.255-2.788zm-5.014 2.091l.278-.556.279.279z" fill="#ffaabd"/><g fill="#999"><path d="M449.931 53.734a1.015 1.015 0 01-.913-.391l-1.043-1.173a11.96 11.96 0 01-1.565-1.695 2.734 2.734 0 01-.522-1.434 2.565 2.565 0 012.478-2.482 1.961 1.961 0 011.434.522 2.734 2.734 0 011.434-.522 2.4 2.4 0 012.477 2.477 3.706 3.706 0 01-.518 1.569l-2.48 2.738a1.487 1.487 0 01-.782.391zm-1.565-5.867a1.169 1.169 0 00-1.173 1.174 1 1 0 00.261.652s.782.913 1.434 1.695l1.043 1.043 2.477-2.738a1 1 0 00.261-.652 1.169 1.169 0 00-1.176-1.174.873.873 0 00-.913.522.793.793 0 01-1.043 0 1.593 1.593 0 00-1.171-.522z"/><path d="M458.409 65.991h-16.953a3.366 3.366 0 01-3.39-3.39V51.775a.616.616 0 01.652-.652.616.616 0 01.652.652v10.956a2.059 2.059 0 002.086 2.086h16.953a2.059 2.059 0 002.086-2.086V51.775a.652.652 0 011.3 0v10.956a3.427 3.427 0 01-3.386 3.26z"/><g><path d="M438.717 52.431a.677.677 0 01-.522-.261.63.63 0 010-.913l3.651-3.26a.646.646 0 11.913.913l-3.651 3.39c-.13 0-.261.131-.391.131z"/><path d="M461.013 52.431a.479.479 0 01-.391-.13l-3.651-3.26a.646.646 0 11.913-.913l3.651 3.129a.63.63 0 010 .913.677.677 0 01-.522.261z"/></g><path d="M442.629 54.908a.616.616 0 01-.652-.652V43.825A1.865 1.865 0 01443.802 42h12.126a1.782 1.782 0 011.823 1.825v10.17a.652.652 0 01-1.3 0v-10.3a.561.561 0 00-.522-.522h-12.127c-.261.13-.522.261-.522.522v10.43a.73.73 0 01-.651.783z"/><path d="M449.93 59.21a.479.479 0 01-.391-.13l-10.952-6.519a.864.864 0 01-.261-.913.806.806 0 01.913-.265l10.565 6.393 10.557-6.393a.671.671 0 11.652 1.173l-10.952 6.527c.13.127 0 .127-.131.127z"/><g><path d="M438.241 62.111l6.002-6.342.946.896-6.001 6.342z"/><path d="M454.528 56.539l.948-.895 5.998 6.35-.948.896z"/></g></g><g fill="#fff"><path d="M449.931 17.734a1.015 1.015 0 01-.913-.391l-1.043-1.173a11.96 11.96 0 01-1.565-1.695 2.734 2.734 0 01-.522-1.434 2.565 2.565 0 012.478-2.482 1.961 1.961 0 011.434.522 2.734 2.734 0 011.434-.522 2.4 2.4 0 012.477 2.477 3.706 3.706 0 01-.518 1.569l-2.48 2.738a1.487 1.487 0 01-.782.391zm-1.565-5.867a1.169 1.169 0 00-1.173 1.174 1 1 0 00.261.652s.782.913 1.434 1.695l1.043 1.043 2.477-2.738a1 1 0 00.261-.652 1.169 1.169 0 00-1.176-1.174.873.873 0 00-.913.522.793.793 0 01-1.043 0 1.593 1.593 0 00-1.171-.522z"/><path d="M458.409 29.991h-16.953a3.366 3.366 0 01-3.39-3.39V15.775a.616.616 0 01.652-.652.616.616 0 01.652.652v10.956a2.059 2.059 0 002.086 2.086h16.953a2.059 2.059 0 002.086-2.086V15.775a.652.652 0 011.3 0v10.956a3.427 3.427 0 01-3.386 3.26z"/><g><path d="M438.717 16.431a.677.677 0 01-.522-.261.63.63 0 010-.913l3.651-3.26a.646.646 0 11.913.913l-3.651 3.39c-.13 0-.261.131-.391.131z"/><path d="M461.013 16.431a.479.479 0 01-.391-.13l-3.651-3.26a.646.646 0 11.913-.913l3.651 3.129a.63.63 0 010 .913.677.677 0 01-.522.261z"/></g><path d="M442.629 18.908a.616.616 0 01-.652-.652V7.825A1.865 1.865 0 01443.802 6h12.126a1.782 1.782 0 011.823 1.825v10.17a.652.652 0 01-1.3 0v-10.3a.561.561 0 00-.522-.522h-12.127c-.261.13-.522.261-.522.522v10.43a.73.73 0 01-.651.783z"/><path d="M449.93 23.21a.479.479 0 01-.391-.13l-10.952-6.519a.864.864 0 01-.261-.913.806.806 0 01.913-.265l10.565 6.393 10.557-6.393a.671.671 0 11.652 1.173l-10.952 6.527c.13.127 0 .127-.131.127z"/><g><path d="M438.241 26.111l6.002-6.342.946.896-6.001 6.342z"/><path d="M454.528 20.539l.948-.895 5.998 6.35-.948.896z"/></g></g><g fill="#ffaabd"><path d="M449.931 89.734a1.015 1.015 0 01-.913-.391l-1.043-1.173a11.96 11.96 0 01-1.565-1.695 2.734 2.734 0 01-.522-1.434 2.565 2.565 0 012.478-2.482 1.961 1.961 0 011.434.522 2.734 2.734 0 011.434-.522 2.4 2.4 0 012.477 2.477 3.706 3.706 0 01-.518 1.569l-2.48 2.738a1.487 1.487 0 01-.782.391zm-1.565-5.867a1.169 1.169 0 00-1.173 1.174 1 1 0 00.261.652s.782.913 1.434 1.695l1.043 1.043 2.477-2.738a1 1 0 00.261-.652 1.169 1.169 0 00-1.176-1.174.873.873 0 00-.913.522.793.793 0 01-1.043 0 1.593 1.593 0 00-1.171-.522z"/><path d="M458.409 101.991h-16.953a3.366 3.366 0 01-3.39-3.39V87.775a.616.616 0 01.652-.652.616.616 0 01.652.652v10.956a2.059 2.059 0 002.086 2.086h16.953a2.059 2.059 0 002.086-2.086V87.775a.652.652 0 011.3 0v10.956a3.427 3.427 0 01-3.386 3.26z"/><g><path d="M438.717 88.431a.677.677 0 01-.522-.261.63.63 0 010-.913l3.651-3.26a.646.646 0 11.913.913l-3.651 3.39c-.13 0-.261.131-.391.131z"/><path d="M461.013 88.431a.479.479 0 01-.391-.13l-3.651-3.26a.646.646 0 11.913-.913l3.651 3.129a.63.63 0 010 .913.677.677 0 01-.522.261z"/></g><path d="M442.629 90.908a.616.616 0 01-.652-.652V79.825A1.865 1.865 0 01443.802 78h12.126a1.782 1.782 0 011.823 1.825v10.17a.652.652 0 01-1.3 0v-10.3a.561.561 0 00-.522-.522h-12.127c-.261.13-.522.261-.522.522v10.43a.73.73 0 01-.651.783z"/><path d="M449.93 95.21a.479.479 0 01-.391-.13l-10.952-6.519a.864.864 0 01-.261-.913.806.806 0 01.913-.265l10.565 6.393 10.557-6.393a.671.671 0 11.652 1.173l-10.952 6.527c.13.127 0 .127-.131.127z"/><g><path d="M438.241 98.111l6.002-6.342.946.896-6.001 6.342z"/><path d="M454.528 92.539l.948-.895 5.998 6.35-.948.896z"/></g></g><g transform="translate(149 114)" clip-path="url(#clip-path-22)"><path d="M12.725.116a1.515 1.515 0 011.395.92l2.747 6.425a.018.018 0 00.014.011l7.052.581a1.518 1.518 0 01.857 2.669l-5.336 4.521a.019.019 0 00-.005.019l1.618 6.749a1.5 1.5 0 01-.281 1.288 1.537 1.537 0 01-1.2.583 1.518 1.518 0 01-.774-.215l-6.081-3.613a.032.032 0 00-.016 0l-6.082 3.613a1.518 1.518 0 01-.774.215 1.537 1.537 0 01-1.192-.582 1.5 1.5 0 01-.282-1.289l1.612-6.751a.018.018 0 00-.006-.018l-5.337-4.52a1.518 1.518 0 01.856-2.67l7.052-.585a.019.019 0 00.015-.012l2.754-6.424a1.514 1.514 0 011.394-.915zm.01 1.5a.12.12 0 00-.022 0v.008L9.955 8.052a1.516 1.516 0 01-1.27.915l-7.051.581h-.011a.05.05 0 00-.006.019l.007.006 5.334 4.52a1.51 1.51 0 01.494 1.511l-1.611 6.755a.04.04 0 000 .011.045.045 0 00.019.013h.008l6.083-3.616a1.515 1.515 0 011.55 0l6.08 3.612h.01a.048.048 0 00.017-.014v-.009l-1.612-6.75a1.513 1.513 0 01.5-1.511l5.335-4.521.008-.008a.049.049 0 00-.008-.022h-.01l-7.054-.577a1.514 1.514 0 01-1.27-.915l-2.756-6.425a.046.046 0 00-.005-.01z" fill="#deb3e6"/></g><g transform="translate(184 115)" clip-path="url(#clip-path-23)" fill="#deb3e6"><path d="M25.814 14.879a.715.715 0 01-.447-1.273 6.215 6.215 0 000-9.684.715.715 0 11.894-1.117 7.646 7.646 0 010 11.918.712.712 0 01-.447.156z"/><path d="M23.151 12.795a.715.715 0 01-.405-1.3 3.314 3.314 0 00-.032-5.477.715.715 0 01.795-1.189 4.744 4.744 0 01.047 7.845.712.712 0 01-.405.121z"/><path d="M18.218.093a.715.715 0 01.712.715v15.91a.715.715 0 01-1.089.61l-6.678-4.093H7.64a.715.715 0 01-.715-.715V5.007a.715.715 0 01.715-.715h3.526L17.844.199a.715.715 0 01.374-.106zm-.715 15.35V2.085l-5.761 3.531a.715.715 0 01-.374.105H8.355v6.083h3.012a.715.715 0 01.374.105z"/><path d="M.809 2.648h6.835a.715.715 0 01.715.715v9.918a.715.715 0 01-.715.717H.809a.715.715 0 01-.715-.717V3.363a.715.715 0 01.715-.715zm6.117 1.43H1.524v8.488h5.4z"/><path d="M6.87 22.906a.715.715 0 01-.691-.532l-2.25-8.495a.715.715 0 01.508-.874.715.715 0 01.874.508l2.25 8.495a.716.716 0 01-.692.9z"/></g><g transform="translate(220.6 115)" clip-path="url(#clip-path-24)" fill="#deb3e6"><path d="M18.221 3.514a2.332 2.332 0 11-2.332 2.332 2.335 2.335 0 012.332-2.332zm0 3.413a1.08 1.08 0 10-1.082-1.081 1.082 1.082 0 001.082 1.081z"/><path d="M15.087 7.827a6.222 6.222 0 01-2.39-.432 2.354 2.354 0 01-1.281-1.321 4.284 4.284 0 01.277-3.062A6.7 6.7 0 0113.325.489a2.509 2.509 0 012.336-.5 4.134 4.134 0 012.181 2.085 9.418 9.418 0 01.692 1.536.626.626 0 01-1.19.39c-.222-.673-1.024-2.491-2.061-2.817a1.313 1.313 0 00-1.207.313 6.429 6.429 0 00-1.24 2.031 2.988 2.988 0 00-.252 2.1 1.1 1.1 0 00.619.626 5.527 5.527 0 003.138.173.626.626 0 01.347 1.201 5.929 5.929 0 01-1.601.2z"/><path d="M21.119 10.36a2.2 2.2 0 01-.506-.061 3.5 3.5 0 01-2.471-2.742.626.626 0 011.238-.184 2.267 2.267 0 001.52 1.708.6.6 0 00.719-.251 8.227 8.227 0 001.637-3.683c-.007-.37-.136-.447-.185-.476-.559-.333-2.226.243-3.176.736a.626.626 0 01-.578-1.11 11.464 11.464 0 011.565-.65 3.472 3.472 0 012.831-.052 1.687 1.687 0 01.8 1.529c.029 1.548-1.293 3.61-1.863 4.424a1.818 1.818 0 01-1.531.812z"/><path d="M12.301 21.549a15.822 15.822 0 01-5.542-.875 8.407 8.407 0 01-4.17-3.242 8.516 8.516 0 01-.984-5.362 15.248 15.248 0 01.731-2.933c.016-.046.041-.1.119-.273.051-.112.156-.346.232-.526a3.991 3.991 0 01-.344-3.5 7.213 7.213 0 01.894-1.859.626.626 0 01.36-.245 5.253 5.253 0 014.341.636 4.936 4.936 0 01.919.8 6.751 6.751 0 012.964-.841.626.626 0 01.067 1.25c-.67.037-2.19.3-2.612.881a.626.626 0 01-1.052-.062 3.711 3.711 0 00-4.087-1.5c-.37.614-1.388 2.569-.272 3.933.26.318.114.671-.016.983-.078.189-.178.41-.251.572l-.082.184a13.994 13.994 0 00-.668 2.682 7.242 7.242 0 00.829 4.554 7.094 7.094 0 003.517 2.693c2.745 1.007 5.527.875 8.619.617a10.668 10.668 0 005.238-1.479c3.332-2.369 2.39-7.142.945-9.772a.626.626 0 011.1-.6 11.705 11.705 0 011.462 5.932 6.757 6.757 0 01-2.778 5.463 11.753 11.753 0 01-5.859 1.706c-1.22.099-2.42.183-3.62.183z"/><path d="M21.947 4.764a.626.626 0 01-.608-.776 2.213 2.213 0 00-.621-2.171 2.909 2.909 0 00-2.681.991.626.626 0 11-1.034-.705 4.184 4.184 0 014.06-1.506.626.626 0 01.287.116 3.464 3.464 0 011.2 3.574.626.626 0 01-.603.477z"/><path d="M16.378 6.476a2.3 2.3 0 01-1.945-.907 1.717 1.717 0 010-1.8 1.428 1.428 0 011.1-.842 2.8 2.8 0 012.145 1.125.626.626 0 11-.932.835 1.868 1.868 0 00-1.053-.718c-.06.008-.13.134-.15.173-.122.237-.143.42-.062.545a1.193 1.193 0 001 .335.626.626 0 11.072 1.25q-.089.004-.175.004z"/><path d="M20.805 8.363a2.816 2.816 0 01-1.726-.973.626.626 0 01.889-.882 2.17 2.17 0 00.793.594.942.942 0 00.081-.3.626.626 0 01.015-.1c.013-.056.05-.243-.009-.309a1.29 1.29 0 00-.846-.149.626.626 0 11-.148-1.243 2.423 2.423 0 011.924.555 1.5 1.5 0 01.308 1.382 1.6 1.6 0 01-.875 1.352 1.147 1.147 0 01-.406.073z"/><path d="M.503 15.813a.626.626 0 01-.443-1.068 3.86 3.86 0 012.639-.747 13.644 13.644 0 011.672.066.626.626 0 11-.14 1.244c-1.289-.144-2.917-.049-3.286.32a.624.624 0 01-.442.185z"/><path d="M1.203 18.045a.626.626 0 01-.626-.626c0-.508.488-.684.96-.855.3-.109.715-.244 1.233-.4.873-.266 1.757-.51 1.765-.513a.626.626 0 01.333 1.207c-1.3.36-2.853.833-3.229 1.011a.624.624 0 01-.436.176z"/><path d="M2.151 20.545a.626.626 0 01-.534-.951c.095-.156.193-.318 2.037-1.439.852-.518 1.693-1.006 1.7-1.011a.626.626 0 01.628 1.083c-1.408.816-3.064 1.831-3.339 2.078a.626.626 0 01-.492.24z"/><path d="M21.898 13.114a.626.626 0 01-.208-1.216 10.824 10.824 0 014.706-.472.626.626 0 11-.2 1.236 9.63 9.63 0 00-4.092.416.625.625 0 01-.206.036z"/><path d="M26.298 15.246a.627.627 0 01-.152-.019 13.793 13.793 0 00-3.62-.118.626.626 0 11-.122-1.246 14.818 14.818 0 014.045.149.626.626 0 01-.151 1.233z"/><path d="M26.03 17.746a.624.624 0 01-.437-.178 18.151 18.151 0 00-3.916-.861.626.626 0 01.174-1.24c.039.006.978.138 1.99.334 1.947.378 2.422.652 2.646.891a.626.626 0 01-.457 1.053z"/></g><g><g transform="translate(260 112)" clip-path="url(#clip-path-25)" fill="#deb3e6"><path d="M15.984 16.666a.808.808 0 01-.808-.808v-4.027A5.265 5.265 0 009.69 6.949a5.271 5.271 0 00-5.483 4.862v4.047a.808.808 0 11-1.615 0v-4.072a6.3 6.3 0 012.144-4.59A7.373 7.373 0 019.69 5.334a7.371 7.371 0 014.967 1.871 6.293 6.293 0 012.133 4.609V15.858a.808.808 0 01-.806.808z"/><path d="M9.693 6.426a.808.808 0 01-.808-.808V4.084a.808.808 0 111.615 0v1.534a.808.808 0 01-.807.808z"/><path d="M9.692 27.481a3.171 3.171 0 01-3.256-3.071.808.808 0 111.615 0 1.558 1.558 0 001.641 1.456 1.559 1.559 0 001.642-1.456.808.808 0 111.615 0 3.172 3.172 0 01-3.257 3.071z"/><path d="M9.692 4.811a2.2 2.2 0 01-2.255-2.142 2.258 2.258 0 014.511 0 2.205 2.205 0 01-2.256 2.142zm0-2.677a.593.593 0 00-.64.531.651.651 0 001.28 0 .594.594 0 00-.64-.531z"/><path d="M1.244 15.051h16.9a.808.808 0 01.808.808 12.134 12.134 0 01-.391 3.513 3.275 3.275 0 01-3.255 2.668H4.086c-1.024 0-2.4-.459-3.143-2.646a11.7 11.7 0 01-.5-3.534.808.808 0 01.801-.809zm16.075 1.615H2.08c.092 1.371.471 3.757 2 3.757h11.223c1.297 0 1.916-1.134 2.016-3.757z"/></g></g><g><g transform="translate(295 114)" clip-path="url(#clip-path-26)" fill="#deb3e6"><path d="M20.995 22.599H.695a.75.75 0 01-.745-.838L1.463 9.029a.75.75 0 01.745-.662h17.276a.75.75 0 01.745.662l1.513 12.737a.75.75 0 01-.745.838zm-19.456-1.5h18.613L18.817 9.867H2.874z"/><path d="M16.325 9.889a.75.75 0 01-.75-.75V6.174a4.73 4.73 0 00-9.459 0V8.69a.75.75 0 01-1.5 0V6.174a6.23 6.23 0 0112.459 0v2.965a.75.75 0 01-.75.75z"/><path d="M11.107 16.886a.75.75 0 01-.244-.041L1.58 13.66a.75.75 0 11.487-1.419l9.028 3.1 8.51-3.191a.75.75 0 01.527 1.4l-8.762 3.289a.75.75 0 01-.263.047z"/></g></g><g fill="#deb3e6"><path d="M89.8 113a12.8 12.8 0 0112.8 12.8 12.8 12.8 0 01-12.8 12.8A12.8 12.8 0 0177 125.8 12.8 12.8 0 0189.8 113zm0 23.6A10.8 10.8 0 1079 125.8a10.812 10.812 0 0010.8 10.8z"/><path d="M89.799 117.291a5.291 5.291 0 11-5.291 5.291 5.3 5.3 0 015.291-5.291zm0 8.581a3.291 3.291 0 10-3.291-3.29 3.294 3.294 0 003.291 3.29z"/><path d="M97.297 135.909a1 1 0 01-1-.964c-.162-4.5-2.531-7.073-6.5-7.073s-6.338 2.578-6.5 7.073a1 1 0 01-1 .964h-.037a1 1 0 01-.963-1.035 9.721 9.721 0 012.617-6.778 8.891 8.891 0 0111.762 0 9.721 9.721 0 012.617 6.778 1 1 0 01-.963 1.035z"/></g><g fill="#deb3e6"><path d="M327.643 119.135a1 1 0 011-1h4.115a1 1 0 011 1 1 1 0 01-1 1h-4.115a1 1 0 01-1-1z"/><path d="M336.902 119.135a1 1 0 011-1h15.432a1 1 0 011 1 1 1 0 01-1 1h-15.432a1 1 0 01-1-1z"/><path d="M327.643 133.538a1 1 0 011-1h10.288a1 1 0 011 1 1 1 0 01-1 1h-10.288a1 1 0 01-1-1z"/><path d="M342.046 133.538a1 1 0 011-1h10.288a1 1 0 011 1 1 1 0 01-1 1h-10.288a1 1 0 01-1-1z"/><path d="M350.276 126.336a1 1 0 011-1h2.058a1 1 0 011 1 1 1 0 01-1 1h-2.058a1 1 0 01-1-1z"/><path d="M327.642 126.336a1 1 0 011-1h17.49a1 1 0 011 1 1 1 0 01-1 1h-17.49a1 1 0 01-1-1z"/><path d="M331.758 121.192v-4.115a1 1 0 011-1 1 1 0 011 1v4.115a1 1 0 01-1 1 1 1 0 01-1-1z"/><path d="M345.132 128.394v-4.115a1 1 0 011-1 1 1 0 011 1v4.115a1 1 0 01-1 1 1 1 0 01-1-1z"/><path d="M337.931 135.595v-4.115a1 1 0 011-1 1 1 0 011 1v4.115a1 1 0 01-1 1 1 1 0 01-1-1z"/></g><g fill="#deb3e6"><path d="M29 118H7a1 1 0 01-1-1 1 1 0 011-1h22a1 1 0 011 1 1 1 0 01-1 1z"/><path d="M20 127H7a1 1 0 01-1-1 1 1 0 011-1h13a1 1 0 011 1 1 1 0 01-1 1z"/><path d="M29 136H7a1 1 0 01-1-1 1 1 0 011-1h22a1 1 0 011 1 1 1 0 01-1 1z"/></g><g fill="#deb3e6"><path d="M53.88 115a9.9 9.9 0 11-9.88 9.9 9.9 9.9 0 019.88-9.9zm0 17.8a7.9 7.9 0 10-7.88-7.9 7.9 7.9 0 007.88 7.9z"/><path d="M63.802 136.549a1 1 0 01-.707-.294l-3.494-3.493a1 1 0 010-1.414 1 1 0 011.414 0l3.493 3.494a1 1 0 01-.707 1.707z"/></g><path d="M380.515 114.25a2.81 2.81 0 012 .829l7.4 7.4a2.831 2.831 0 010 4l-11.432 11.433a2.811 2.811 0 01-2 .829h-.008l-7.406-.027a2.833 2.833 0 01-2.818-2.828v-7.372a2.847 2.847 0 01.828-2l11.436-11.436a2.81 2.81 0 012-.828zm-4.036 22.991a1.323 1.323 0 00.944-.389l11.433-11.433a1.329 1.329 0 000-1.877l-7.4-7.4a1.328 1.328 0 00-1.878 0l-11.436 11.436a1.336 1.336 0 00-.389.938v7.372a1.33 1.33 0 001.323 1.328z" fill="#deb3e6"/><path d="M374.298 127.871a2.826 2.826 0 11-2.826 2.826 2.829 2.829 0 012.826-2.826zm0 4.151a1.326 1.326 0 10-1.326-1.325 1.327 1.327 0 001.326 1.324z" fill="#deb3e6"/><g><g><g clip-path="url(#clip-path-27)" fill="#deb3e6" transform="translate(112 113)"><path d="M8.906 14.887a1 1 0 01-.961-.727L4.547 2.194H1.194a1 1 0 010-2h4.109a1 1 0 01.962.727l3.6 12.692a1 1 0 01-.962 1.273z"/><path d="M21.236 15.36h-12a1 1 0 010-2h11.256l2.061-6.884H6.519a1 1 0 010-2h17.376a1 1 0 01.958 1.287l-2.659 8.884a1 1 0 01-.958.713z"/></g></g><path d="M133.084 132.453h-13.826a1 1 0 01-.953-1.3l1.373-4.329a1 1 0 111.906.6l-.96 3.027h12.46a1 1 0 110 2z" fill="#deb3e6"/><g><g clip-path="url(#clip-path-27)" fill="#deb3e6" transform="translate(112 113)"><path d="M9.141 17.311a3.748 3.748 0 11-3.748 3.748 3.752 3.752 0 013.748-3.748zm0 5.5a1.748 1.748 0 10-1.748-1.752 1.75 1.75 0 001.748 1.752z"/><path d="M20.331 17.311a3.748 3.748 0 11-3.748 3.748 3.752 3.752 0 013.748-3.748zm0 5.5a1.748 1.748 0 10-1.748-1.752 1.75 1.75 0 001.748 1.752z"/></g></g></g><path d="M401.321 138.991c0-.139.279 0 .558 0h.279l8.226-3.625a.137.137 0 00.143-.141h.139l14.361-14.5a3.777 3.777 0 001.115-2.788 3.4 3.4 0 00-1.115-2.787 4.126 4.126 0 00-5.716 0l-14.365 14.221a1.065 1.065 0 00-.279.7l-1.812 4.179c0 .139-.139.139-.139.279l-1.674 3.486a.924.924 0 00.279.976zm21.192-18.266l-12.408 12.41-.978-.976 12.41-12.408zm-15.754 9.064l12.408-12.408 1.115 1.115-12.269 12.548zm17.706-11.989a2.031 2.031 0 01-.7 1.673l-.139.139-3.344-3.345.139-.139a1.74 1.74 0 011.673-.7 2.387 2.387 0 012.371 2.372zm-16.038 16.59l-2.784 1.255-1.255-1.255 1.255-2.788zm-5.014 2.091l.278-.556.279.279z" fill="#deb3e6"/><g fill="#deb3e6"><path d="M449.931 125.734a1.015 1.015 0 01-.913-.391l-1.043-1.173a11.96 11.96 0 01-1.565-1.695 2.734 2.734 0 01-.522-1.434 2.565 2.565 0 012.478-2.482 1.961 1.961 0 011.434.522 2.734 2.734 0 011.434-.522 2.4 2.4 0 012.477 2.477 3.706 3.706 0 01-.518 1.569l-2.48 2.738a1.487 1.487 0 01-.782.391zm-1.565-5.867a1.169 1.169 0 00-1.173 1.174 1 1 0 00.261.652s.782.913 1.434 1.695l1.043 1.043 2.477-2.738a1 1 0 00.261-.652 1.169 1.169 0 00-1.176-1.174.873.873 0 00-.913.522.793.793 0 01-1.043 0 1.593 1.593 0 00-1.171-.522z"/><path d="M458.409 137.991h-16.953a3.366 3.366 0 01-3.39-3.39v-10.826a.616.616 0 01.652-.652.616.616 0 01.652.652v10.956a2.059 2.059 0 002.086 2.086h16.953a2.059 2.059 0 002.086-2.086v-10.956a.652.652 0 011.3 0v10.956a3.427 3.427 0 01-3.386 3.26z"/><g><path d="M438.717 124.431a.677.677 0 01-.522-.261.63.63 0 010-.913l3.651-3.26a.646.646 0 11.913.913l-3.651 3.39c-.13 0-.261.131-.391.131z"/><path d="M461.013 124.431a.479.479 0 01-.391-.13l-3.651-3.26a.646.646 0 11.913-.913l3.651 3.129a.63.63 0 010 .913.677.677 0 01-.522.261z"/></g><path d="M442.629 126.908a.616.616 0 01-.652-.652v-10.431a1.865 1.865 0 011.825-1.825h12.126a1.782 1.782 0 011.823 1.825v10.17a.652.652 0 01-1.3 0v-10.3a.561.561 0 00-.522-.522h-12.127c-.261.13-.522.261-.522.522v10.43a.73.73 0 01-.651.783z"/><path d="M449.93 131.21a.479.479 0 01-.391-.13l-10.952-6.519a.864.864 0 01-.261-.913.806.806 0 01.913-.265l10.565 6.393 10.557-6.393a.671.671 0 11.652 1.173l-10.952 6.527c.13.127 0 .127-.131.127z"/><g><path d="M438.241 134.111l6.002-6.342.946.896-6.001 6.342z"/><path d="M454.528 128.539l.948-.895 5.998 6.35-.948.896z"/></g></g><g fill="none"><path d="M485.821 29.026c-6.894-4.4-10.509-8.4-11.992-11.747-3.972-8.974 7.371-13.265 11.992-7.968 4.618-5.3 15.964-1.006 11.992 7.968-1.483 3.348-5.098 7.349-11.992 11.747z"/><path d="M485.82 26.639c6.601-4.397 9.174-7.935 10.164-10.17.877-1.981.873-3.748-.013-5.108-.933-1.434-2.814-2.361-4.79-2.361-1.57 0-2.939.577-3.853 1.625l-1.507 1.73-1.508-1.73C483.4 9.577 482.031 9 480.461 9c-1.976 0-3.857.927-4.79 2.361-.886 1.36-.89 3.127-.013 5.108.99 2.235 3.562 5.773 10.163 10.17m0 2.387c-6.894-4.398-10.51-8.399-11.992-11.747-3.972-8.974 7.374-13.265 11.992-7.968 4.618-5.297 15.964-1.006 11.992 7.968-1.483 3.348-5.098 7.35-11.992 11.747z" fill="#fff"/></g><g fill="none"><path d="M485.821 65.026c-6.894-4.4-10.509-8.4-11.992-11.747-3.972-8.974 7.371-13.265 11.992-7.968 4.618-5.3 15.964-1.006 11.992 7.968-1.483 3.348-5.098 7.349-11.992 11.747z"/><path d="M485.82 62.639c6.601-4.397 9.174-7.935 10.164-10.17.877-1.981.873-3.748-.013-5.108-.933-1.434-2.814-2.361-4.79-2.361-1.57 0-2.939.577-3.853 1.625l-1.507 1.73-1.508-1.73C483.4 45.577 482.031 45 480.461 45c-1.976 0-3.857.927-4.79 2.361-.886 1.36-.89 3.127-.013 5.108.99 2.235 3.562 5.773 10.163 10.17m0 2.387c-6.894-4.398-10.51-8.399-11.992-11.747-3.972-8.974 7.374-13.265 11.992-7.968 4.618-5.297 15.964-1.006 11.992 7.968-1.483 3.348-5.098 7.35-11.992 11.747z" fill="#999"/></g><g fill="none"><path d="M485.821 101.026c-6.894-4.4-10.509-8.4-11.992-11.747-3.972-8.974 7.371-13.265 11.992-7.968 4.618-5.3 15.964-1.006 11.992 7.968-1.483 3.348-5.098 7.349-11.992 11.747z"/><path d="M485.82 98.639c6.601-4.397 9.174-7.935 10.164-10.17.877-1.981.873-3.748-.013-5.108-.933-1.434-2.814-2.361-4.79-2.361-1.57 0-2.939.577-3.853 1.625l-1.507 1.73-1.508-1.73C483.4 81.577 482.031 81 480.461 81c-1.976 0-3.857.927-4.79 2.361-.886 1.36-.89 3.127-.013 5.108.99 2.235 3.562 5.773 10.163 10.17m0 2.387c-6.894-4.398-10.51-8.399-11.992-11.747-3.972-8.974 7.374-13.265 11.992-7.968 4.618-5.297 15.964-1.006 11.992 7.968-1.483 3.348-5.098 7.35-11.992 11.747z" fill="#ff8ba5"/></g><g fill="none"><path d="M485.821 137.026c-6.894-4.4-10.509-8.4-11.992-11.747-3.972-8.974 7.371-13.265 11.992-7.968 4.618-5.3 15.964-1.006 11.992 7.968-1.483 3.348-5.098 7.349-11.992 11.747z"/><path d="M485.82 134.639c6.601-4.397 9.174-7.935 10.164-10.17.877-1.981.873-3.748-.013-5.108-.933-1.434-2.814-2.361-4.79-2.361-1.57 0-2.939.577-3.853 1.625l-1.507 1.73-1.508-1.73c-.913-1.048-2.282-1.625-3.852-1.625-1.976 0-3.857.927-4.79 2.361-.886 1.36-.89 3.127-.013 5.108.99 2.235 3.562 5.773 10.163 10.17m0 2.387c-6.894-4.398-10.51-8.399-11.992-11.747-3.972-8.974 7.374-13.265 11.992-7.968 4.618-5.297 15.964-1.006 11.992 7.968-1.483 3.348-5.098 7.35-11.992 11.747z" fill="#c090c9"/></g></svg>