<svg xmlns="http://www.w3.org/2000/svg" width="24" height="24" viewBox="0 0 24 24"><defs><style>.cls-1{fill:#404041;}.cls-2{fill:#fff;}.cls-3{fill:#f497b0;}.cls-4{fill:#f97fb5;}.cls-5{fill:#f9c9d4;}.cls-6{fill:none;}</style></defs><g id="KU"><path class="cls-1" d="M15.7521,6.48V5.0844c.993-.7,6.6911-3.6021,6.8729-3.6759-.1456.8425-.9321,7.76-1.0268,8.01a12.8217,12.8217,0,0,1-1.5846.6653"/><path d="M22.5317,1.1743c-.2389.0965-5.91,2.9882-6.9244,3.7046a.251.251,0,0,0-.1067.2055V6.48a.2517.2517,0,0,0,.5033,0V5.2159c1.0093-.6563,5-2.7165,6.3057-3.3755-.0924.69-.2419,1.9166-.3983,3.2051-.2051,1.6847-.4536,3.7435-.5354,4.2091a14.81,14.81,0,0,1-1.4485.5928.2536.2536,0,0,0-.1634.2368.259.259,0,0,0,.0151.0864.25.25,0,0,0,.32.1506,12.6267,12.6267,0,0,0,1.6294-.6886A.2484.2484,0,0,0,21.83,9.51c.0556-.1432.1938-1.224.5809-4.4045.2028-1.6909.3968-3.2843.4619-3.6543a.2518.2518,0,0,0-.3415-.2772Z"/><path class="cls-1" d="M8.9,6.7037c.0373-.5163.063-1.0363.0527-1.4768C8.108,4.7158,2.7043,2.1776,1.97,1.9566c0,.7735.7716,7.2413.9557,8.089.4766.11,1.15.2887,1.7176.4416"/><path d="M1.8191,1.7547a.2513.2513,0,0,0-.1014.2019c0,.765.7632,7.229.9612,8.1423a.2512.2512,0,0,0,.19.1918c.549.1224,1.3041.3283,1.7069.44a.2519.2519,0,0,0,.31-.1756.2449.2449,0,0,0,.0094-.0676A.2506.2506,0,0,0,4.71,10.25c-.37-.1024-1.03-.2815-1.5672-.4106-.2015-1.1356-.7843-6.0315-.9-7.5106C3.5709,2.87,7.7,4.8121,8.7029,5.3744l.0005.0594c0,.3347-.0176.74-.0541,1.2519l-.0006.018a.252.252,0,0,0,.5028.0176c.0456-.6353.0626-1.1119.0534-1.5005a.25.25,0,0,0-.1209-.2044C8.1872,4.469,2.7905,1.94,2.0419,1.7153A.25.25,0,0,0,1.8191,1.7547Z"/><path d="M17.5462,20.3354c.1565.003.3094.0054.4525.0077l.4294.0074a.1993.1993,0,0,0,.1876-.1343.209.209,0,0,0-.0631-.2285l-.6189-.5244c-.2751-.2421-.59-.4863-.8575-.7186-.0191-.0121-.0253-.035.0032-.0478a6.6987,6.6987,0,0,0,3.1946-2.7645,6.3986,6.3986,0,0,0,.2939-4.9852A7.7814,7.7814,0,0,0,16.0159,6.39a10.2341,10.2341,0,0,0-7.3443.1529c-3.79,1.5827-5.6476,5.2-4.5169,8.7979a5.1328,5.1328,0,0,0,3.1008,3.15c.0262.0119.0318.0316.0107.0468-.1848.1366-.4149.2933-.6557.4672-.5083.358-1.082.7695-1.3635.939a.2015.2015,0,0,0,.11.3743c.4523-.0156,1.0615-.0325,1.6495-.0394.1874-.0034.6988-.0025.721-.0022.3427.0026.6469.0117.8628.03l.02.05c.1913.48.3727.9292.6416,1.4667a.1982.1982,0,0,0,.2542.0967c.7225-.2959,2.1488-1.0172,2.685-1.2848l.0719-.0365a22.6718,22.6718,0,0,1,2.181,1.1813l.2131.1273a.2018.2018,0,0,0,.29-.1c.1884-.4819.4006-1.0611.56-1.5352.354.0229.8227.0388,1.3.05C17.0247,20.332,17.2855,20.3307,17.5462,20.3354Z"/><path class="cls-1" d="M16.6381,18.9228a12.508,12.508,0,0,1,1.03.8432s.1159.0979.2044.1721c-.8289-.0131-1.8982-.0322-2.4877-.0795a.2008.2008,0,0,0-.207.1371c-.1413.4225-.3375.9613-.5211,1.4417l-.01-.0056a22.7909,22.7909,0,0,0-2.306-1.2432.2.2,0,0,0-.17.0045l-.161.0809c-.4929.25-1.7389.8749-2.4817,1.1966-.2121-.4456-.3691-.8281-.5432-1.2646l-.066-.165a.2.2,0,0,0-.1632-.1254,26.5514,26.5514,0,0,0-2.71-.0219c.2473-.1718.5253-.37.7969-.5667.33-.23.6659-.4706.8788-.6145a.0843.0843,0,0,1,.0877-.0024,13.8917,13.8917,0,0,0,1.6373.4716,16.9263,16.9263,0,0,0,6.4095-.0367,6.8209,6.8209,0,0,0,.7-.23A.1656.1656,0,0,1,16.6381,18.9228Z"/><path class="cls-2" d="M17.0535,18.1537a7.7969,7.7969,0,0,1-1.3308.5071,16.2187,16.2187,0,0,1-6.1619.0352,12.9061,12.9061,0,0,1-1.9655-.6107.5589.5589,0,0,1-.0973-.06,2.7907,2.7907,0,0,1-.7913-3.2192,3.9155,3.9155,0,0,1,2.5542-2.2171.6374.6374,0,0,1,.5357-.0033c.1955.0667,2.1123.8517,2.2659.9169a.9541.9541,0,0,0,.8074-.0185,17.8024,17.8024,0,0,1,2.3128-.9748.482.482,0,0,1,.3879.0324,4.0852,4.0852,0,0,1,2.4137,2.4408A3.1377,3.1377,0,0,1,17.0535,18.1537Z"/><path class="cls-1" d="M19.8331,15.693a5.4984,5.4984,0,0,1-1.7985,1.8943,3.7475,3.7475,0,0,0,.3381-2.7033,4.4524,4.4524,0,0,0-2.6618-2.7207.8918.8918,0,0,0-.64-.0368,17.3965,17.3965,0,0,0-2.3931,1.0041.559.559,0,0,1-.4609-.0007c-.1431-.06-2.08-.8542-2.29-.9259a1.0614,1.0614,0,0,0-.7854,0A4.3213,4.3213,0,0,0,6.33,14.6626a3.5017,3.5017,0,0,0,.1907,2.8728,4.2473,4.2473,0,0,1-1.886-2.3463C3.4074,11.2919,5.9672,8.2159,8.8654,7.0022a9.86,9.86,0,0,1,6.9493-.15,7.2858,7.2858,0,0,1,4.2772,4.26A5.8712,5.8712,0,0,1,19.8331,15.693Z"/><path d="M2.4356,1.4205A.8235.8235,0,1,1,1.6124.595.8228.8228,0,0,1,2.4356,1.4205Z"/><path d="M.639,1.4205A.9733.9733,0,1,0,1.6124.4447.9754.9754,0,0,0,.639,1.4205Z"/><path class="cls-1" d="M.9384,1.4205a.675.675,0,1,1,.674.6715A.6763.6763,0,0,1,.9384,1.4205Z"/><path d="M23.7094.976A.8236.8236,0,1,1,22.8858.15.82.82,0,0,1,23.7094.976Z"/><path d="M21.9127.976A.9733.9733,0,1,0,22.8858,0,.972.972,0,0,0,21.9127.976Z"/><path class="cls-1" d="M22.212.976a.6738.6738,0,1,1,.6738.6731A.6748.6748,0,0,1,22.212.976Z"/><path class="cls-3" d="M11.7121,12.2357a1.5273,1.5273,0,0,1-1.528-1.4229A2.082,2.082,0,0,1,12.3775,8.736a2.1741,2.1741,0,0,1,2.19,1.8589,1.4964,1.4964,0,0,1-1.1791,1.5982,2.0057,2.0057,0,0,1-.0208.4676c-.2678.0175-1.4865.011-1.6486.011A1.9985,1.9985,0,0,1,11.7121,12.2357Z"/><path d="M12.1934,12.2072l-.0189.4562a.1032.1032,0,0,0,.1024.1068.1113.1113,0,0,0,.1117-.1068l.0068-.1629.012-.2933a.1.1,0,0,0-.1026-.1021A.1066.1066,0,0,0,12.1934,12.2072Z"/><path d="M12.6573,12.2v.4536a.107.107,0,0,0,.1072.1069.1051.1051,0,0,0,.1046-.1069V12.2a.1026.1026,0,0,0-.1046-.1023A.1046.1046,0,0,0,12.6573,12.2Z"/><path d="M11.0673,10.5175a.8309.8309,0,0,0-.323.7666.3851.3851,0,0,0,.588.2671.9735.9735,0,0,0,.2533-.7452A.35.35,0,0,0,11.0673,10.5175Z"/><path d="M13.7182,10.5175a.8339.8339,0,0,1,.3214.7666.3855.3855,0,0,1-.5884.2671.9742.9742,0,0,1-.2532-.7452A.3512.3512,0,0,1,13.7182,10.5175Z"/><path d="M8.2983,14.0221a2.4484,2.4484,0,0,0-.18,2.2042.7643.7643,0,0,0,.5593.3148.855.855,0,0,0,.6593-.2616,2.2919,2.2919,0,0,0,.3245-1.5907.0322.0322,0,0,0-.0164-.0227l-.95-.4781-.3558-.1773A.0322.0322,0,0,0,8.2983,14.0221Z"/><path d="M7.8333,13.7512a.8282.8282,0,0,0,.4139.45.107.107,0,1,0,.0959-.1914.9412.9412,0,0,1-.3375-.3285C7.9085,13.45,7.7885,13.572,7.8333,13.7512Z"/><path d="M7.7279,14.2213a.6179.6179,0,0,0,.303.3977.1037.1037,0,0,0,.14-.0527.1076.1076,0,0,0-.0526-.1421.7389.7389,0,0,1-.2213-.2611C7.825,13.9713,7.69,14.0351,7.7279,14.2213Z"/><path d="M16.5126,14.0107l-.353.1759-.9526.4795a.0314.0314,0,0,0-.0162.0227,2.2689,2.2689,0,0,0,.3245,1.5907.8541.8541,0,0,0,.659.2616.7657.7657,0,0,0,.5594-.3148,2.45,2.45,0,0,0-.18-2.2042A.032.032,0,0,0,16.5126,14.0107Z"/><path d="M16.8355,13.6742a.6435.6435,0,0,1-.3269.3359.1066.1066,0,0,0-.0476.1436.1205.1205,0,0,0,.1506.0534.6783.6783,0,0,0,.3775-.4559C17.0314,13.5688,16.8975,13.4959,16.8355,13.6742Z"/><path d="M16.9668,14.171a.4154.4154,0,0,1-.2336.2532.1069.1069,0,0,0,.0882.1948.5412.5412,0,0,0,.2927-.3951C17.1518,14.0444,17.0282,14.0045,16.9668,14.171Z"/><path d="M11.8668,16.73a.6611.6611,0,1,0,.6454-.5172A.592.592,0,0,0,11.8668,16.73Z"/><path class="cls-3" d="M12.1163,16.73c0-.1436.1814-.2653.3959-.2653s.3937.1217.3937.2653-.1792.2659-.3937.2659S12.1163,16.8738,12.1163,16.73Z"/><path d="M4.5931,20.25a.7606.7606,0,1,0,.76-.7633A.7591.7591,0,0,0,4.5931,20.25Z"/><path class="cls-4" d="M4.85,20.25a.5045.5045,0,1,1,.5036.5062A.5051.5051,0,0,1,4.85,20.25Z"/><path d="M8.49,22.229a.775.775,0,1,0,.7762-.7761A.7754.7754,0,0,0,8.49,22.229Z"/><path class="cls-4" d="M8.7463,22.229a.5182.5182,0,1,1,.52.5145A.52.52,0,0,1,8.7463,22.229Z"/><path d="M14.1078,22.1993a.7738.7738,0,1,0,.7736-.7757A.7726.7726,0,0,0,14.1078,22.1993Z"/><path class="cls-4" d="M14.3645,22.1993a.5183.5183,0,1,1,.5169.5148A.52.52,0,0,1,14.3645,22.1993Z"/><path d="M17.9761,20.1524a.7823.7823,0,1,0,.7823-.7851A.7792.7792,0,0,0,17.9761,20.1524Z"/><path class="cls-4" d="M18.2735,20.1524a.4838.4838,0,1,1,.4849.4848A.4852.4852,0,0,1,18.2735,20.1524Z"/><path d="M11.53,17.467a.9437.9437,0,0,0,.4092.348.9527.9527,0,0,0,1.0616.5167.8185.8185,0,0,0,.5124-.9367.127.127,0,0,0-.228-.062.96.96,0,0,1-.8221.3567.7494.7494,0,0,1-.7115-.3642C11.7089,17.2584,11.4874,17.398,11.53,17.467Z"/><path class="cls-5" d="M13.2446,17.71a.4794.4794,0,0,1-.3186.3814.6235.6235,0,0,1-.5673-.1633c.0321.0035.0623.0123.0953.0132A1.2715,1.2715,0,0,0,13.2446,17.71Z"/><path class="cls-6" d="M9.28,5.9389a8.67,8.67,0,0,0-5.3775,4.8553.1781.1781,0,0,0,.333.1265A8.2912,8.2912,0,0,1,9.3811,6.28.178.178,0,0,0,9.28,5.9389Z"/><path class="cls-6" d="M15.0744,5.89a.1783.1783,0,0,0,.13.2158,9.1538,9.1538,0,0,1,5.1583,4.3112.178.178,0,0,0,.3266-.1417A9.4226,9.4226,0,0,0,15.29,5.7594.1781.1781,0,0,0,15.0744,5.89Z"/></g></svg>