<svg xmlns="http://www.w3.org/2000/svg" width="24" height="24" viewBox="0 0 24 24"><defs><style>.cls-1{fill:#f5ea61;}.cls-2{fill:#a65a2a;}</style></defs><g id="PN"><path d="M.0416,13.482c.0339-.2111.1676-.4111.2-.6.1894-.1109.123-.3444.2229-.4671a3.6076,3.6076,0,0,1,.7791-.9231c.0995-.1559.2777-.2332.3444-.4005a.2408.2408,0,0,0,.1238-.1112l-.0236-.0221a3.5084,3.5084,0,0,1,1.5793-.8451c.4785-.1448.823-.6008,1.3571-.6008a3.1668,3.1668,0,0,1,.99-.5338c.2889-.1558.5007-.49.8337-.5231a3.0384,3.0384,0,0,0,.823-.5784c.1447.0225.1565-.144.2781-.144.2236-.3006.6016-.3006.8675-.5452.0225-.4782.6012-.5784.9011-.8565.29-.1665.645-.189.935-.3445.5113-.1558,1.0222-.1672,1.5229-.3005-.061-.03-.0778-.0892-.122-.1334a.4721.4721,0,0,1,.1776-.645.9043.9043,0,0,1,.901.3783,2.2769,2.2769,0,0,1,.3673.4892c.2118.0556.49-.0446.6782.0781a4.8075,4.8075,0,0,1,1.2462.2335c.2225.1216.5113.0778.7.3.1776.09.4347.1334.5117.3227.0556.0667.0892-.011.1448.0446.0232.2114.2664.3334.256.5559a9.1737,9.1737,0,0,0,.8893.6233c.2785.1109.4785.4222.7784.5.2785.2225.5345.4115.823.6447.19.0225.323.256.5013.256.4443.2336.7224.7563,1.2113.8569a2.559,2.559,0,0,0,.5683.4667c.0774.245.3442.311.5556.3559.3231.189.5227.5563.8679.7007.1326.067.0777.2225.2107.2781a2.1866,2.1866,0,0,1,.4012.4892,3.3277,3.3277,0,0,1,.5448,1.5575c.0667.389-.19.7338-.245,1.1236-.1.2218-.389.2332-.4781.4781a3.0292,3.0292,0,0,1-.6779.4222c-.2007.1894-.5352.1006-.7566.2339-.4343-.0891-.9239-.0335-1.2683-.3337h-.0556c-.1338.1776-.2233.3783-.3784.5562a2.4283,2.4283,0,0,1-.69.7c-.3883.2118-.7563.4675-1.1346.7007-.29.0446-.5334.2225-.8226.2671a10.54,10.54,0,0,1-1.6795.4336,1.9517,1.9517,0,0,1-.4446.0228c-.1894.0663-.445-.056-.6012.1-.1-.0891-.2221,0-.3334-.0224-.29.0224-.5894-.0667-.8454.0781a1.6436,1.6436,0,0,0-.7007.0445l-.0553-.0445a12.18,12.18,0,0,1-1.269,0c-.5777-.0781-1.29-.0671-1.923-.1555-.1672-.0674-.3794-.0228-.5338-.1227a7.4758,7.4758,0,0,1-2.6254-.9231,2.2207,2.2207,0,0,0-.4785-.2782v-.0331a1.1961,1.1961,0,0,1-.4443-.4008c-.2008-.2446-.368-.4668-.578-.6893a1.8792,1.8792,0,0,0-.2789-.5559c-.1112.1555-.3212.2446-.4.4222-.2671.056-.4558.3783-.7449.4008a2.3251,2.3251,0,0,1-1.135.1558A3.4672,3.4672,0,0,1,.9666,15.94a2.6771,2.6771,0,0,1-.78-1.279c-.0339-.2336-.2115-.4447-.1455-.6675-.1212-.1665.0678-.3445,0-.5117"/><path class="cls-1" d="M12.3935,18.2745a20.31,20.31,0,0,1-3.3058-.2817.0591.0591,0,0,1-.0217-.0086.544.544,0,0,0-.2963-.08.64.64,0,0,1-.3491-.0984l-.0168-.0021a4.9726,4.9726,0,0,1-1.2811-.52,1.79,1.79,0,0,1-.4689-.2888,1.8669,1.8669,0,0,0-.4557-.2845.4854.4854,0,0,1-.1712-.1523.2665.2665,0,0,0-.1658-.1234.0507.0507,0,0,1-.0381-.0317.3849.3849,0,0,0-.0992-.1166.4342.4342,0,0,1-.1447-.2,1.52,1.52,0,0,1-.2407-.4093,1.7078,1.7078,0,0,0-.1655-.3074c-.0221-.09-.0371-.1594-.052-.2289a2.6133,2.6133,0,0,1-.0788-1.0344,2.3716,2.3716,0,0,1,.4428-1.2994,1.4568,1.4568,0,0,1,.3184-.4981.6526.6526,0,0,1,.1787-.2364c.1255-.1238.2-.2068.1415-.3388-.0338-.0909-.11-.13-.2474-.13-.036,0-.0706.0029-.1013.0054a1.44,1.44,0,0,0-.59.6607,3.7212,3.7212,0,0,1-.2071.3273.4214.4214,0,0,1-.102.2468.7021.7021,0,0,0-.06.0941,9.47,9.47,0,0,0-.4407,1.9858A2.0733,2.0733,0,0,1,3.3487,15.94a.0473.0473,0,0,1-.0257.0071.3445.3445,0,0,0-.103.0307.4531.4531,0,0,1-.164.0428.1707.1707,0,0,1-.0336-.0029.4823.4823,0,0,1-.28.0771A1.61,1.61,0,0,1,2.5,16.07a1.5159,1.5159,0,0,0-.2257-.0235l-.03.0007a.0478.0478,0,0,1-.0278-.0085,1.1278,1.1278,0,0,0-.215-.0967.67.67,0,0,1-.4022-.277,1.5685,1.5685,0,0,0-.4086-.2785.05.05,0,0,1-.0285-.0317.7888.7888,0,0,0-.1833-.2682.6329.6329,0,0,1-.2207-.4318.5051.5051,0,0,1-.0817-.317.3532.3532,0,0,0-.092-.2856.05.05,0,0,1-.015-.0332.722.722,0,0,1,.0631-.3009.7956.7956,0,0,0,.0589-.2275,1.9062,1.9062,0,0,1,.37-.7752.98.98,0,0,1,.3705-.5523l.021-.0193c.1245-.1155.2471-.25.3655-.379a4.465,4.465,0,0,1,.4714-.4693.9355.9355,0,0,1,.3673-.3013,1.439,1.439,0,0,0,.2307-.1533.0507.0507,0,0,1,.0239-.0117,3.6518,3.6518,0,0,0,.9816-.3951,3.78,3.78,0,0,1,.9931-.4019,1.19,1.19,0,0,1,.7552-.4268c.102-.0585.22-.1241.3384-.19.23-.1284.4685-.261.7142-.3726a1.4826,1.4826,0,0,1,.2046-.1541,1.4682,1.4682,0,0,0,.29-.2335.0534.0534,0,0,1,.0192-.0136,3.0393,3.0393,0,0,0,.6765-.3965,4.0972,4.0972,0,0,1,.5527-.35.05.05,0,0,1,.0239-.0057h.0042a1.0291,1.0291,0,0,1,.3955.1726.8666.8666,0,0,0,.379.1612,8.994,8.994,0,0,0,3.631.5958c.123,0,.2467-.0007.3722-.0029.1455-.0142.2967-.0278.4493-.0417a7.0905,7.0905,0,0,0,2.8633-.6561.0517.0517,0,0,1,.0627.01.8334.8334,0,0,0,.3669.2139.853.853,0,0,1,.4055.2482,4.5707,4.5707,0,0,1,1.0747.6287,5.3274,5.3274,0,0,0,.839.5248.0534.0534,0,0,1,.0185.0143,2.3208,2.3208,0,0,0,.6437.5028,3.3284,3.3284,0,0,1,.538.38.3774.3774,0,0,1,.2685.2029.4731.4731,0,0,0,.1369.148,2.2323,2.2323,0,0,0,.5281.4132,2.9341,2.9341,0,0,1,.4379.3167,1.8706,1.8706,0,0,0,.2482.1665.8966.8966,0,0,1,.4507.4425,2.4676,2.4676,0,0,1,.7188,2.1373c-.0167.05-.0281.0916-.04.1355a.8434.8434,0,0,1-.21.4186,2.175,2.175,0,0,1-1.467.72c-.046,0-.0927-.0018-.14-.0057a.0536.0536,0,0,1-.0368-.0207c-.0135-.0185-.0342-.0253-.0781-.0253l-.0731.0018a.28.28,0,0,1-.1219-.0232.4106.4106,0,0,1-.3045-.1918.4749.4749,0,0,0-.2-.1662.0523.0523,0,0,1-.0274-.0264.86.86,0,0,0-.2329-.2678.8573.8573,0,0,1-.2652-.323.6436.6436,0,0,1-.1922-.4215.5168.5168,0,0,0-.193-.39.0505.0505,0,0,1-.0235-.0431,1.1284,1.1284,0,0,0-.1761-.5263,1.1114,1.1114,0,0,1-.18-.5873,1.6115,1.6115,0,0,1-.1009-1.09l-.0079-.0392c-.0171-.0906-.03-.1473-.098-.1655a.1961.1961,0,0,0-.0788-.0178.4224.4224,0,0,0-.1822.0624,1.0207,1.0207,0,0,1-.107.05.6244.6244,0,0,0-.0888.5163,1.0526,1.0526,0,0,1-.0057.383.638.638,0,0,1,.1123.4179.8367.8367,0,0,0,.0339.256,1.9377,1.9377,0,0,1,.2935.6254,1.8542,1.8542,0,0,0,.2988.6276,2.5162,2.5162,0,0,1,.1355.333,1.3123,1.3123,0,0,0,.3366.5959.3834.3834,0,0,1,.0467.3986.8874.8874,0,0,0-.03.1248.0481.0481,0,0,1-.0146.0293,1.3071,1.3071,0,0,0-.2368.3676l-.0317.0638a3.2187,3.2187,0,0,1-1.7786,1.0712,1.021,1.021,0,0,1-.4229.2164,1.033,1.033,0,0,0-.3676.1744,12.2858,12.2858,0,0,1-1.4256.3672l-.01.0011a.0429.0429,0,0,1-.0178-.0036.422.422,0,0,0-.1451-.0249,1.08,1.08,0,0,0-.26.0442,1.1441,1.1441,0,0,1-.2778.0463.49.49,0,0,1-.0877-.0074,20.825,20.825,0,0,1-2.1152.1233c-.1016.0018-.2039.0029-.3063.0029"/><path d="M8.4437,11.9436A.4976.4976,0,0,1,9,12.0177a.4282.4282,0,0,1,.092.4825.5358.5358,0,0,1-.5969.1922.5757.5757,0,0,1-.2449-.4.5151.5151,0,0,1,.1932-.3487"/><path d="M13.5607,15.0615a.2783.2783,0,0,0-.2015-.0592l-.1151.0025A.2152.2152,0,0,1,13.07,14.95a.6568.6568,0,0,1-.1815-.0956,1.2281,1.2281,0,0,0-.1248-.0763.3588.3588,0,0,1-.15-.112.2506.2506,0,0,0-.1858-.108.2566.2566,0,0,0-.0552.0064.5466.5466,0,0,0-.12.09.3118.3118,0,0,1-.2053.1108.0863.0863,0,0,0-.0289.0047.5887.5887,0,0,1-.4218.1408,2.4861,2.4861,0,0,1-.3224-.0285c-.0474-.0061-.0948-.0121-.1412-.0171-.2446-.051-.3541-.2507-.47-.4618l-.016-.0292a.4663.4663,0,0,1,.0139-.1983.4382.4382,0,0,0,.0135-.1815.665.665,0,0,0,.1512-.1194.3471.3471,0,0,1,.2115-.1284.1433.1433,0,0,1,.0534.01.2765.2765,0,0,1,.1455.1847l.0207.05c-.0014.0532-.0531.081-.108.1109-.0464.025-.0935.051-.1056.1a.1614.1614,0,0,0,.0385.1262.1563.1563,0,0,1,.0624.0981c.02.0592.0457.1333.1409.1333.0538-.0035.0952-.0057.1376-.0074.2863-.0132.6426-.03.7927-.36l.011-.0343a1.186,1.186,0,0,0,.0674-.7819l-.0363-.0439c-.1388-.1572-.2957-.3362-.2087-.5309A.61.61,0,0,1,12.48,12.65c.05-.004.1016-.0082.1554-.0164a1.5186,1.5186,0,0,0,.1594.0438c.2147.0506.4582.1081.5424.3445-.0061.2111-.1665.2628-.322.312-.17.0549-.3462.1112-.2792.3865a.8111.8111,0,0,0,.1494.71,1.2668,1.2668,0,0,0,.6454.2076.68.68,0,0,0,.3341-.0821.1805.1805,0,0,0,.07-.15.2845.2845,0,0,1,.0164-.0817.0194.0194,0,0,0-.01-.0249c-.1459-.0678-.1451-.2-.1444-.317a.2078.2078,0,0,1,.1886-.0853.4757.4757,0,0,1,.0678.0047.5894.5894,0,0,1,.3283.537c-.0174.3583-.36.47-.6628.5691-.0553.0178-.1088.0353-.1587.0538"/><path d="M15.8168,12.2033a.5221.5221,0,0,1,.3616-.1112.4123.4123,0,0,1,.32.5908.37.37,0,0,1-.3615.2154.3856.3856,0,0,1-.4176-.2781.415.415,0,0,1,.0977-.4169"/><path class="cls-2" d="M9.0451,6.9617A2.35,2.35,0,0,1,9.7,6.5865a4.9842,4.9842,0,0,1,1.0006-.3476,3.2777,3.2777,0,0,1,.8622-.1526c.2218,0,.3462-.07.3887,0s.1247.18.2086.1661.1946.0143.1661-.097-.0545-.1112-.11-.2225-.1673-.1248-.2225-.2777-.1669-.1947-.1259-.306a.2305.2305,0,0,1,.2507-.1807.53.53,0,0,1,.348.1946.69.69,0,0,1,.2507.3752c.0552.1672.0969.236.0827.3337s-.0275.1252.0413.1669.056.0695.1391.0278.0831-.0417.112-.0977a.4065.4065,0,0,1,.0684-.097,2.7556,2.7556,0,0,1,.6269.097c.25.056.4393.0706.68.1394.1951.0556.2917.0556.5709.1252a2.5017,2.5017,0,0,1,.6251.2781,1.176,1.176,0,0,1,.4863.3755c.1391.18.1676.2082.1676.4168s.0282.1947-.1255.32a1.6521,1.6521,0,0,1-.57.2643,3.811,3.811,0,0,1-.7648.2082c-.3755.0556-.9314.0838-1.2516.0974a9.2432,9.2432,0,0,1-1.4034.0417c-.3755-.0553-.8569-.0475-1.1543-.0835a6.4315,6.4315,0,0,1-1.0572-.2638,2.6816,2.6816,0,0,1-.9175-.3334c-.1665-.1534-.3259-.2179-.2635-.4176a.56.56,0,0,1,.2354-.3754"/><path d="M12.5266,8.49a2.3873,2.3873,0,0,1-.33-.0189c-.21-.0311-.45-.0418-.682-.0522-.1752-.0079-.3406-.0155-.4712-.0313a4.764,4.764,0,0,1-.8307-.1964c-.0723-.0218-.1493-.0446-.2322-.0686-.0957-.0279-.186-.0522-.27-.075a1.6479,1.6479,0,0,1-.6613-.2664c-.0342-.0316-.068-.059-.0994-.0847-.1241-.1013-.2311-.189-.1743-.37a.5963.5963,0,0,1,.2466-.3925h0a2.3833,2.3833,0,0,1,.6643-.3807l.0962-.0414a4.7022,4.7022,0,0,1,.91-.3079,3.28,3.28,0,0,1,.8707-.1538,1.372,1.372,0,0,0,.215-.0194c.0926-.0144.1668-.0251.2043.0367.0471.0781.1129.1574.1716.1495a.5418.5418,0,0,1,.0637-.0054c.0268-.0014.0675-.0031.0748-.0132a.0488.0488,0,0,0-.0011-.0336.3182.3182,0,0,0-.0534-.1222.8588.8588,0,0,1-.0544-.0931.3194.3194,0,0,0-.0866-.0982.4086.4086,0,0,1-.1375-.1834.5338.5338,0,0,0-.0761-.1337.1932.1932,0,0,1-.05-.1973.259.259,0,0,1,.2881-.204.5664.5664,0,0,1,.37.2049c.02.02.0384.0375.0547.0533a.6375.6375,0,0,1,.2046.3358c.0138.0417.0268.0773.0381.1086a.47.47,0,0,1,.0463.2421l-.0045.03c-.011.072-.0119.0762.0287.1011a.3558.3558,0,0,1,.0455.0318l.0158.0113a.118.118,0,0,0,.0431-.0166c.0723-.0367.0723-.0367.0957-.0821a.4329.4329,0,0,1,.0753-.1061l.0105-.0105h.0149a2.5179,2.5179,0,0,1,.5785.0852l.0564.0127c.1.0226.1913.0384.2793.0537a3.6873,3.6873,0,0,1,.403.0863c.0984.0279.1721.0418.2573.0578.0824.0153.1755.0328.3124.0669a1.6168,1.6168,0,0,1,.4624.1908c.0517.0293.1056.06.169.09a1.2152,1.2152,0,0,1,.5.3863l.0164.0214a.5181.5181,0,0,1,.1586.4173c0,.0319,0,.0584.0011.081.0037.1414-.0042.1563-.14.2667a1.6939,1.6939,0,0,1-.5823.2708c-.0548.0172-.1061.035-.158.0534a2.9491,2.9491,0,0,1-.6121.1563c-.28.0412-.7025.0742-1.2556.0976-.0827.0037-.1919.0119-.3146.0212C13.0624,8.4685,12.7755,8.49,12.5266,8.49ZM9.0681,6.99a.5267.5267,0,0,0-.224.3581c-.04.1292.0206.1862.1512.2929.0325.0268.0672.055.1025.0875a1.6484,1.6484,0,0,0,.6314.25c.0847.0228.1756.0474.2718.0753.0829.0243.16.0471.2325.0686a4.6807,4.6807,0,0,0,.8185.1941c.1281.0155.2921.0228.4659.0307.2229.01.4754.0215.69.0528a5.9938,5.9938,0,0,0,1.08-.0206c.1236-.0093.2337-.0178.3169-.0214.5508-.0232.9707-.0559,1.248-.0971a2.8533,2.8533,0,0,0,.599-.1529c.0528-.0184.1047-.0367.16-.0539a1.6383,1.6383,0,0,0,.5581-.2579c.1166-.0945.1166-.0945.1135-.2091-.0006-.0231-.0012-.05-.0012-.0827a.447.447,0,0,0-.1436-.3733l-.0163-.0214a1.15,1.15,0,0,0-.4732-.3649c-.0663-.031-.1214-.0623-.1744-.0925a1.5267,1.5267,0,0,0-.4441-.1834c-.1349-.0336-.2269-.0508-.3082-.066a2.59,2.59,0,0,1-.2638-.0593,3.6885,3.6885,0,0,0-.3953-.0846c-.0892-.0153-.1811-.0314-.283-.0542l-.0564-.0127a2.523,2.523,0,0,0-.5469-.0835.3651.3651,0,0,0-.0519.0767c-.0336.0655-.0412.07-.1278.114-.07.0358-.0945.031-.1363-.0025a.3284.3284,0,0,0-.0375-.0266c-.0824-.05-.0748-.0993-.0632-.1738l.0042-.029a.4083.4083,0,0,0-.0423-.2071c-.0116-.0319-.0248-.068-.039-.11a.5729.5729,0,0,0-.1856-.3064c-.0169-.0161-.0356-.0336-.0562-.0545a.4938.4938,0,0,0-.3261-.1842c-.1076-.011-.1685.0384-.2131.1574-.0172.0466,0,.0734.0407.13a.5857.5857,0,0,1,.0852.151.3372.3372,0,0,0,.1165.1532.3768.3768,0,0,1,.1041.1208.8994.8994,0,0,0,.05.0863.3831.3831,0,0,1,.0629.1439.1064.1064,0,0,1-.0107.094.16.16,0,0,1-.13.0423.5049.5049,0,0,0-.0553.0045c-.1075.0206-.1992-.1069-.2452-.1831-.0121-.02-.0536-.0147-.1318-.0028a1.4386,1.4386,0,0,1-.2257.02,3.2452,3.2452,0,0,0-.8538.1515,4.6662,4.6662,0,0,0-.8981.3039l-.0965.042a2.3105,2.3105,0,0,0-.6468.37Z"/></g></svg>