<svg xmlns="http://www.w3.org/2000/svg" width="210.482" height="149.203" viewBox="0 0 210.482 149.203"><g transform="translate(27.479 -875.5)"><path d="M202.831,55.663a30.876,30.876,0,0,0-38.9-29.876C160.433,7.169,146.331,0,132.776,0a33.85,33.85,0,0,0-29.212,16.762A33.862,33.862,0,0,0,75.412,1.74c-17.629,0-32.485,10.175-33.94,27.743-3.08-1.266-5.939-3.708-14.156-3.708C13.309,26.231,5.767,33.751,1.9,44.63a37.716,37.716,0,0,0-.614,21.6C5.239,77.773,15.354,82.631,22.5,85.47c-.052.74-.113,1.474-.113,2.223,0,13.9,7.591,26.1,20.283,30.079,11.225,3.523,22.145.1,27.3-3.823a29.63,29.63,0,0,0,54.518-.882c5.493,8.273,14.765,10.624,24.7,10.618a29.657,29.657,0,0,0,29.657-29.657v0a29.6,29.6,0,0,0-1.115-7.979,30.934,30.934,0,0,0,25.11-30.384" transform="translate(-19.828 893.162)" fill="#e2f2f7"/><path d="M202.831,55.663a30.876,30.876,0,0,0-38.9-29.876C160.433,7.169,146.331,0,132.776,0a33.85,33.85,0,0,0-29.212,16.762A33.862,33.862,0,0,0,75.412,1.74c-17.629,0-32.485,10.175-33.94,27.743-3.08-1.266-5.939-3.708-14.156-3.708C13.309,26.231,5.767,33.751,1.9,44.63a37.716,37.716,0,0,0-.614,21.6C5.239,77.773,15.354,82.631,22.5,85.47c-.052.74-.113,1.474-.113,2.223,0,13.9,7.591,26.1,20.283,30.079,11.225,3.523,22.145.1,27.3-3.823a29.63,29.63,0,0,0,54.518-.882c5.493,8.273,14.765,10.624,24.7,10.618a29.657,29.657,0,0,0,29.657-29.657v0a29.6,29.6,0,0,0-1.115-7.979,30.934,30.934,0,0,0,25.11-30.384" transform="translate(-25.974 877)" fill="#fff"/><path d="M97.053,133.041A31.138,31.138,0,0,1,69.37,116.175a32.945,32.945,0,0,1-17.034,4.566A33.737,33.737,0,0,1,42.221,119.2a29.09,29.09,0,0,1-15.7-11.925,33.4,33.4,0,0,1-4.187-9.166,37.647,37.647,0,0,1-1.443-10.42c0-.422.018-.835.042-1.24A48.112,48.112,0,0,1,9.781,80.3a30.585,30.585,0,0,1-5.711-5.687,27.961,27.961,0,0,1-4.2-7.9l-.016-.048-.013-.049A39.115,39.115,0,0,1,.478,44.16l.011-.032a36.53,36.53,0,0,1,3.79-7.792,26.566,26.566,0,0,1,5.589-6.214,25.277,25.277,0,0,1,7.624-4.158,33.506,33.506,0,0,1,9.775-1.689h.049a25.4,25.4,0,0,1,12.9,2.966,30.347,30.347,0,0,1,3.375-10.224,29.534,29.534,0,0,1,7.863-9.178A34.873,34.873,0,0,1,62.425,2.174,43.126,43.126,0,0,1,75.412.24h.016a35.359,35.359,0,0,1,28.054,13.836A35.349,35.349,0,0,1,132.776-1.5,37.344,37.344,0,0,1,143.293-.028,31.484,31.484,0,0,1,153.007,4.7a29.44,29.44,0,0,1,7.762,8.418,35.554,35.554,0,0,1,4.314,10.847,32.392,32.392,0,0,1,6.871-.738h.064a32.437,32.437,0,0,1,7.54,63.958,31.14,31.14,0,0,1,.778,6.839v.006a31.132,31.132,0,0,1-31.157,31.157h-.034a40.353,40.353,0,0,1-14.528-2.309,24.724,24.724,0,0,1-6.275-3.476,22.651,22.651,0,0,1-3.544-3.408,31.167,31.167,0,0,1-27.745,17.049ZM70.565,111.607l.771,1.732a28.13,28.13,0,0,0,51.758-.837l1.069-2.628,1.57,2.364a19.951,19.951,0,0,0,4.439,4.787,21.73,21.73,0,0,0,5.516,3.05,37.452,37.452,0,0,0,13.456,2.111h.033a28.091,28.091,0,0,0,27.1-35.729l-.445-1.573,1.606-.308a29.431,29.431,0,0,0-5.426-58.349h-.058a29.4,29.4,0,0,0-7.636,1.01l-1.565.421-.3-1.593a33.316,33.316,0,0,0-4.24-11.374,26.454,26.454,0,0,0-6.974-7.565,28.494,28.494,0,0,0-8.793-4.274,34.348,34.348,0,0,0-9.672-1.35,32.35,32.35,0,0,0-27.917,16.019l-1.209,2.067-1.332-1.99A32.362,32.362,0,0,0,75.428,3.24h-.015A40.133,40.133,0,0,0,63.327,5.035,31.887,31.887,0,0,0,53.3,10.208a26.689,26.689,0,0,0-10.33,19.4L42.8,31.65l-1.9-.779c-.669-.275-1.3-.589-1.975-.922a22.52,22.52,0,0,0-11.586-2.674A30.5,30.5,0,0,0,18.466,28.8a22.286,22.286,0,0,0-6.723,3.663,23.574,23.574,0,0,0-4.955,5.516,33.52,33.52,0,0,0-3.467,7.135,36.122,36.122,0,0,0-.6,20.679,24.962,24.962,0,0,0,3.734,7,27.588,27.588,0,0,0,5.152,5.126,47.277,47.277,0,0,0,11.443,6.15l1.019.405-.1,1.388c-.045.631-.088,1.228-.088,1.824a34.648,34.648,0,0,0,1.326,9.59,30.41,30.41,0,0,0,3.808,8.344,26.122,26.122,0,0,0,14.1,10.714,30.742,30.742,0,0,0,9.218,1.4,32.189,32.189,0,0,0,9.79-1.535,23.893,23.893,0,0,0,6.93-3.451Z" transform="translate(-25.974 877)" fill="#e2f2f7"/></g></svg>