<svg xmlns="http://www.w3.org/2000/svg" width="57.818" height="50.398" viewBox="0 0 57.818 50.398"><g transform="translate(-452.26 -916.01)"><path d="M7.787,19.218a.491.491,0,0,1-.5-.476l-.047-.724-.215-3.342c-.037-.556-.072-1.113-.108-1.669-.016-.243.051-.53-.2-.639-.345-.152-.728.185-.969.385l-1.1.91q-.677.559-1.356,1.12a.5.5,0,0,1-.709-.709q.651-.774,1.3-1.55c.222-.264,1.874-1.935.747-2.081-.234-.03-.472-.04-.709-.061l-1.559-.136-1.9-.168a.5.5,0,0,1,0-1l1.984-.159,1.592-.128c.217-.017.474.01.684-.024.243-.038.313-.245.327-.465.014-.248-.1-.357-.259-.544L3.827,6.585,2.579,5.075a.5.5,0,0,1,.707-.709L4.664,5.521c.283.238.544.5.833.735.255.2.737.654,1.1.595.429-.068.339-.847.364-1.164.051-.633.1-1.822.152-2.455.058-.705.114-2.06.171-2.767a.5.5,0,0,1,1,0c.049.651.1,1.951.145,2.6.042.551.082,1.659.124,2.212.038.513-.054,1.181.492,1.465.427.222,1.011-.535,1.335-.8.633-.523,1.27-1.041,1.9-1.57a.5.5,0,0,1,.709.709L11.823,6.47c-.306.367-.616.731-.922,1.1-.247.3-.446.952.024,1.137a3.036,3.036,0,0,0,.77.075l.9.08,2.361.213a.5.5,0,0,1,0,1l-1.93.161q-.782.066-1.564.129c-.371.031-1.081.028-.987.6.068.413.7.934.969,1.253l1.547,1.851a.5.5,0,0,1-.709.707q-.724-.606-1.449-1.216L9.7,12.612c-.194-.163-.334-.308-.605-.21a.655.655,0,0,0-.4.5c-.2,1.179-.171,2.45-.254,3.645q-.079,1.1-.154,2.193a.491.491,0,0,1-.5.476" transform="translate(494.663 916.01)" fill="#f1b05a"/><path d="M28.279,36.491a.656.656,0,0,1-.67-.633c-.021-.324-.04-.646-.061-.968l-.289-4.459q-.071-1.113-.143-2.228c-.021-.325.066-.709-.266-.854-.462-.2-.971.248-1.295.516q-.732.6-1.466,1.211l-1.809,1.5a.671.671,0,0,1-.945-.945q.869-1.034,1.736-2.07c.3-.352,2.5-2.581,1-2.775-.313-.04-.632-.054-.945-.082q-1.042-.092-2.081-.182l-2.536-.224a.671.671,0,0,1,0-1.337l2.648-.213,2.123-.171c.292-.023.633.014.915-.03.324-.052.418-.329.436-.623.019-.331-.138-.476-.345-.726L23,19.638,21.33,17.62a.67.67,0,0,1,.945-.943q.919.769,1.836,1.54c.378.318.726.668,1.113.98.339.273.982.873,1.472.794.57-.091.451-1.129.485-1.552.068-.845.135-2.431.2-3.276.075-.941.152-2.749.227-3.691a.67.67,0,0,1,1.337,0c.065.868.129,2.6.194,3.472.054.735.108,2.214.164,2.949.051.684-.072,1.577.656,1.956.569.3,1.349-.714,1.781-1.073.843-.7,1.7-1.388,2.532-2.095a.671.671,0,0,1,.945.945q-.777.929-1.557,1.857c-.409.488-.822.975-1.23,1.465-.331.4-.595,1.27.031,1.519a4.087,4.087,0,0,0,1.027.1l1.2.107,3.152.283a.671.671,0,0,1,0,1.337l-2.576.215-2.088.173c-.493.04-1.444.037-1.318.8.093.553.94,1.248,1.295,1.671q1.032,1.236,2.063,2.471a.671.671,0,0,1-.945.945l-1.932-1.622-1.508-1.267c-.259-.217-.444-.409-.807-.28a.87.87,0,0,0-.532.67c-.269,1.575-.227,3.271-.339,4.865q-.1,1.462-.2,2.926a.656.656,0,0,1-.67.633" transform="translate(439.831 924.148)" fill="#f1b05a"/><path d="M23.074,8.733A1.609,1.609,0,0,0,23.2,10.5a1.494,1.494,0,0,0,2.424-.376,1.985,1.985,0,0,0,.152-1,1.238,1.238,0,0,0-.143-.567c-.518-.849-2.117-.581-2.56.18" transform="translate(443.564 922.031)" fill="#f1b05a"/><path d="M31.028,17.946a1.609,1.609,0,0,0,.128,1.767,1.494,1.494,0,0,0,2.424-.376,1.985,1.985,0,0,0,.152-1,1.238,1.238,0,0,0-.144-.567c-.518-.849-2.117-.581-2.56.18" transform="translate(449.53 928.939)" fill="#f1b05a"/><path d="M23.339,27.822a1.609,1.609,0,0,0,.128,1.767,1.494,1.494,0,0,0,2.424-.376,1.985,1.985,0,0,0,.152-1,1.238,1.238,0,0,0-.143-.567c-.518-.849-2.117-.581-2.56.18" transform="translate(443.763 936.346)" fill="#f1b05a"/><path d="M28.907,23.248a1.609,1.609,0,0,0,.128,1.767,1.494,1.494,0,0,0,2.424-.376,1.985,1.985,0,0,0,.152-1,1.238,1.238,0,0,0-.143-.567c-.518-.849-2.117-.581-2.56.18" transform="translate(447.939 932.916)" fill="#f1b05a"/><path d="M17.374,12.577a1.609,1.609,0,0,0,.128,1.767,1.494,1.494,0,0,0,2.424-.376,1.985,1.985,0,0,0,.152-1,1.238,1.238,0,0,0-.143-.567c-.518-.849-2.117-.581-2.56.18" transform="translate(439.29 924.914)" fill="#f1b05a"/><path d="M14.975,18.051a1.609,1.609,0,0,0,.128,1.767,1.494,1.494,0,0,0,2.424-.376,1.985,1.985,0,0,0,.152-1,1.238,1.238,0,0,0-.143-.567c-.518-.849-2.117-.581-2.56.18" transform="translate(437.491 929.018)" fill="#f1b05a"/><path d="M17.639,23.514a1.609,1.609,0,0,0,.128,1.767,1.494,1.494,0,0,0,2.424-.376,1.985,1.985,0,0,0,.152-1,1.238,1.238,0,0,0-.143-.567c-.518-.849-2.117-.581-2.56.18" transform="translate(439.489 933.115)" fill="#f1b05a"/><path d="M28.708,12.577a1.609,1.609,0,0,0,.128,1.767,1.494,1.494,0,0,0,2.424-.376,1.985,1.985,0,0,0,.152-1,1.238,1.238,0,0,0-.143-.567c-.518-.849-2.117-.581-2.56.18" transform="translate(447.79 924.914)" fill="#f1b05a"/></g></svg>