<svg version="1.1" id="SP_icon_clear" xmlns="http://www.w3.org/2000/svg" xmlns:xlink="http://www.w3.org/1999/xlink" x="0px" y="0px" viewBox="0 0 18 18" xml:space="preserve" width="18"  height="18" ><path d="M9,0C4,0,0,4,0,9c0,5,4,9,9,9s9-4,9-9C18,4,14,0,9,0z M12.4,12.4c-0.4,0.4-1,0.4-1.4,0c0,0,0,0,0,0l-2-2l-2,2
	c-0.2,0.2-0.4,0.3-0.7,0.3c-0.6,0-1-0.4-1-1c0-0.3,0.1-0.5,0.3-0.7l2-2l-2-2C5.4,6.8,5.3,6.6,5.3,6.3c0-0.3,0.1-0.5,0.3-0.7
	c0.4-0.4,1-0.4,1.4,0l2,2l2-2c0.4-0.4,1-0.4,1.4,0c0.4,0.4,0.4,1,0,1.4l-2,2l2,2C12.8,11.4,12.8,12,12.4,12.4z" class="st0" fill="#E383A8"></path></svg>