<svg xmlns:xlink="http://www.w3.org/1999/xlink" xmlns="http://www.w3.org/2000/svg" class="c-cardArticle__newItem" width="104.142"  height="107" ><defs><symbol id="icon-new-apple-purple" viewBox="0 0 104.142 107">
  <defs>
    <clipPath id="clip-path-icon-new-apple-purple">
      <rect id="長方形_2068" data-name="長方形 2068" width="104.142" height="107" fill="#cda1dc"></rect>
    </clipPath>
  </defs>
  <g id="グループ_4449" data-name="グループ 4449">
    <g id="グループ_4449-2" data-name="グループ 4449" clip-path="url(#clip-path-icon-new-apple-purple)">
      <path id="パス_29564" data-name="パス 29564" d="M89.375,22.131c-11.067-7.258-29.5,1.357-29.5,1.357a10.853,10.853,0,0,1-3.711.968c-.308-2.307-.732-4.922-1.211-7.263a.592.592,0,0,1,.267-.471,1,1,0,0,1,.758-.09c2.938,1.326,6.892,2.362,10.64.743,6.91-3.029,11.2-10.719,11.2-10.719S68.748,1.686,61.483,3.7a14.071,14.071,0,0,0-7.492,5.514.927.927,0,0,1-.683.29.823.823,0,0,1-.674-.342C49.809.724,47.828-.128,46.151.013,43.1.3,39.316.959,38.668,2.334a1.755,1.755,0,0,0-.144.659,1.153,1.153,0,0,0,.253.815,7.537,7.537,0,0,0,.98,1.106,37.32,37.32,0,0,1,5.657,7.544c1.438,2.615,2.884,7.477,3.927,11.5h-.378c-1.483-.453-2.574-.924-2.574-.924s-17.776-9.92-29.338-3.449C-16.9,38.476,3.9,111.106,43.922,105.919c0,0,5.208-.994,7.207-.711,2,.3,5.368,1.173,5.368,1.173,39.606,7.96,65.4-63.047,32.878-84.25" transform="translate(0 -0.001)" fill="#cda1dc"></path>
    </g>
  </g>
  <path id="パス_32617" data-name="パス 32617" d="M-1.758-11.9V9H-5.736L-16.175-3.69V9h-4.786V-11.9h4.008L-6.544.788V-11.9ZM19.419,5.116V9H3.207V-11.9H19.03v3.881H8.023v4.538h9.721V.28H8.023V5.116ZM54.625-11.9,47.775,9h-5.2L37.964-5.153,33.208,9H28.034l-6.88-20.9h5.025L30.905,2.788,35.841-11.9h4.487L45.113,2.907,49.989-11.9Z" transform="translate(36.86 63.005)" fill="#fff"></path>
</symbol></defs><use xlink:href="#icon-new-apple-purple"></use></svg>