<svg xmlns:xlink="http://www.w3.org/1999/xlink" xmlns="http://www.w3.org/2000/svg" class="c-textHeadingIcon__iconItem -mypage-login" width="40.14"  height="40.14" ><defs><symbol id="icon-mypage-login" viewBox="0 0 40.14 40.14">
      <path data-name="パス 39482" d="M173.03,465.843a7.829,7.829,0,0,0-.752-2.317,7.655,7.655,0,0,0-1.416-1.959,8.223,8.223,0,0,0-2.061-1.517,7.38,7.38,0,0,0-2.377-.748,8.079,8.079,0,0,0-2.556.072q-.154.029-.309.063c.022-.1.044-.207.063-.31a8.075,8.075,0,0,0,.072-2.555,7.375,7.375,0,0,0-.747-2.376,8.23,8.23,0,0,0-1.518-2.063,7.665,7.665,0,0,0-1.959-1.416,7.867,7.867,0,0,0-2.317-.752,7.628,7.628,0,0,0-2.493.014,7.5,7.5,0,0,0-2.461.891,9.67,9.67,0,0,0-4.151,4.717,15.557,15.557,0,0,0-1.082,6.088,32.622,32.622,0,0,0,.679,6.229,1.12,1.12,0,1,0,2.2-.43,30.419,30.419,0,0,1-.638-5.8,13.368,13.368,0,0,1,.9-5.21,7.376,7.376,0,0,1,3.2-3.65,5.251,5.251,0,0,1,1.727-.626,5.36,5.36,0,0,1,1.759-.009,5.593,5.593,0,0,1,1.655.537,5.431,5.431,0,0,1,1.389,1,5.986,5.986,0,0,1,1.108,1.5,5.154,5.154,0,0,1,.521,1.657,5.833,5.833,0,0,1-.056,1.847,8.184,8.184,0,0,1-.69,2.051,1.12,1.12,0,0,0,1.5,1.5,8.133,8.133,0,0,1,2.051-.69,5.866,5.866,0,0,1,1.847-.056,5.158,5.158,0,0,1,1.658.522,5.976,5.976,0,0,1,1.5,1.108,5.4,5.4,0,0,1,1,1.388,5.6,5.6,0,0,1,.538,1.656,5.356,5.356,0,0,1-.009,1.759,5.232,5.232,0,0,1-.626,1.726,7.373,7.373,0,0,1-3.649,3.205,13.362,13.362,0,0,1-5.194.9h-.017a30.485,30.485,0,0,1-5.8-.637l-.324-.064c-.778-.151-1.291-.251-2.062-.443a1.115,1.115,0,0,0-1.1.347,1.1,1.1,0,0,0-.138.113l-8.045,8.045a1.12,1.12,0,0,0,0,1.584l1.8,1.8a1.322,1.322,0,0,1,0,1.866l-.137.136a1.352,1.352,0,0,1-1.867,0l-1.8-1.8a1.12,1.12,0,0,0-1.584,0l-2.616,2.616a1.45,1.45,0,0,1-2,0,1.416,1.416,0,0,1,0-2l11.682-11.682a1.12,1.12,0,0,0-1.584-1.584l-11.682,11.683a3.656,3.656,0,1,0,5.171,5.17l1.824-1.824,1.012,1.013a3.561,3.561,0,0,0,5.035,0l.136-.136a3.565,3.565,0,0,0,0-5.036l-1.012-1.013,6.978-6.978c.522.119.971.207,1.566.323l.323.063a32.622,32.622,0,0,0,6.23.68h.018a15.55,15.55,0,0,0,6.069-1.082,9.66,9.66,0,0,0,4.717-4.151,7.482,7.482,0,0,0,.891-2.462A7.593,7.593,0,0,0,173.03,465.843Z" transform="translate(-132.986 -449.868)"></path>
    </symbol></defs><use xlink:href="#icon-mypage-login" fill="#E383A8"></use></svg>