<svg width="15" height="19" viewBox="0 0 15 19" fill="none" xmlns="http://www.w3.org/2000/svg">
<path d="M1.23433 17.2459C1.32206 18.2388 2.15368 19 3.15066 19H11.7423C12.739 19 13.5709 18.2388 13.6587 17.2459L14.6103 4.77982H0.282776L1.23433 17.2459ZM13.564 5.74937L12.6929 17.1604C12.6491 17.6565 12.2404 18.0305 11.7423 18.0305H3.15066C2.65265 18.0305 2.24393 17.6565 2.201 17.1721L1.329 5.74937H13.564Z" fill="white"/>
<path d="M4.73597 16.1552C4.95406 16.1422 5.12005 15.9548 5.10676 15.737L4.73059 8.23219C4.7173 8.01414 4.53016 7.84815 4.31207 7.8614C4.09397 7.87465 3.92798 8.06212 3.94123 8.27988L4.31741 15.7847C4.33069 16.0027 4.51817 16.1684 4.73597 16.1552Z" fill="white"/>
<path d="M7.44667 16.1561C7.66506 16.1561 7.84211 15.9794 7.84211 15.761V8.25589C7.84211 8.0375 7.66506 7.86075 7.44667 7.86075C7.22828 7.86075 7.05119 8.0375 7.05119 8.25589V15.761C7.05123 15.9794 7.22828 16.1561 7.44667 16.1561Z" fill="white"/>
<path d="M10.1574 16.1552C10.3755 16.1684 10.5626 16.0027 10.5759 15.7847L10.9518 8.27988C10.9647 8.06212 10.799 7.87465 10.5809 7.8614C10.3628 7.84815 10.1757 8.01414 10.1624 8.23219L9.78655 15.737C9.77331 15.9547 9.9393 16.1422 10.1574 16.1552Z" fill="white"/>
<path d="M14.2419 2.39419C14.2419 2.39419 12.9773 2.184 12.6336 2.07953C12.3256 1.9858 9.63537 1.57611 9.63537 1.57611L9.53436 0.86001C9.46497 0.365787 9.06033 0 8.58377 0H7.44633H6.30889C5.83296 0 5.42836 0.365787 5.3583 0.86001L5.25732 1.57611C5.25732 1.57611 2.56804 1.98576 2.2597 2.07953C1.91603 2.184 0.65075 2.39419 0.65075 2.39419C0.267633 2.49987 0 2.8638 0 3.27973V4.09339H7.44637H14.8933V3.27973C14.8933 2.8638 14.6257 2.49987 14.2419 2.39419ZM8.20065 1.44073H6.69267C6.55886 1.44073 6.45028 1.33219 6.45028 1.19834C6.45028 1.06448 6.55886 0.955937 6.69267 0.955937H8.20065C8.33447 0.955937 8.44305 1.06448 8.44305 1.19834C8.44305 1.33219 8.33447 1.44073 8.20065 1.44073Z" fill="white"/>
</svg>
