<svg xmlns:xlink="http://www.w3.org/1999/xlink" xmlns="http://www.w3.org/2000/svg" class="c-cardGoods__iconItem" width="89.444"  height="92.077" ><defs><symbol id="icon-new-apple-green" viewBox="0 0 89.444 92.077">
  <defs>
    <clipPath id="clip-path-icon-new-apple-green">
      <rect id="長方形_2068" data-name="長方形 2068" width="89.444" height="92.077" fill="#91dea9"></rect>
    </clipPath>
  </defs>
  <g id="グループ_11036" data-name="グループ 11036" transform="translate(-723.195 -347)">
    <g id="pc_icon_new-apple-mini" transform="translate(723.195 347)">
      <g id="グループ_4449" data-name="グループ 4449">
        <g id="グループ_4449-2" data-name="グループ 4449" clip-path="url(#clip-path-icon-new-apple-green)">
          <path id="パス_29564" data-name="パス 29564" d="M76.761,19.044c-9.505-6.246-25.338,1.168-25.338,1.168a9.307,9.307,0,0,1-3.187.833c-.264-1.986-.629-4.236-1.04-6.25a.51.51,0,0,1,.23-.4.855.855,0,0,1,.651-.077c2.524,1.141,5.919,2.033,9.138.639,5.934-2.607,9.62-9.224,9.62-9.224s-7.79-4.277-14.03-2.546a12.087,12.087,0,0,0-6.435,4.745.8.8,0,0,1-.586.249.706.706,0,0,1-.579-.295C42.78.623,41.078-.11,39.638.011c-2.62.251-5.871.815-6.427,2a1.513,1.513,0,0,0-.124.567.994.994,0,0,0,.218.7,6.482,6.482,0,0,0,.842.952A32.109,32.109,0,0,1,39,10.72a51.039,51.039,0,0,1,3.373,9.9h-.325c-1.274-.39-2.211-.795-2.211-.795s-15.267-8.537-25.2-2.968C-14.516,33.11,3.352,95.61,37.723,91.146c0,0,4.473-.855,6.19-.612,1.717.26,4.611,1.009,4.611,1.009,34.016,6.85,56.173-54.254,28.238-72.5" transform="translate(0 -0.001)" fill="#91dea9"></path>
        </g>
      </g>
      <path id="パス_32617" data-name="パス 32617" d="M-4.468-11.9V6.083H-7.885L-16.851-4.835V6.083h-4.11V-11.9h3.442L-8.579-.982V-11.9ZM13.72,2.743v3.34H-.2V-11.9h13.59v3.34H3.932v3.9h8.349v3.237H3.932V2.743ZM43.957-11.9,38.074,6.083H33.6L29.648-6.094,25.563,6.083H21.119L15.21-11.9h4.316L23.585.739,27.824-11.9h3.853L35.788.842,39.975-11.9Z" transform="translate(34.616 55.877)" fill="#fff"></path>
    </g>
  </g>
</symbol></defs><use xlink:href="#icon-new-apple-green"></use></svg>