<svg xmlns:xlink="http://www.w3.org/1999/xlink" id="SP_icon_btn-goods" xmlns="http://www.w3.org/2000/svg" viewBox="0 0 40.829 28.538" width="40.829"  height="28.538" ><g id="グループ_6658" data-name="グループ 6658" transform="translate(0.305 0.303)" fill="#FFFFFF"><path id="パス_32590" data-name="パス 32590" d="M30.526,3.616s1.243-4.385-5.835-1.995C18.484,3.715,11.342,8.893,5.607,18.871c.495.6,1,1.176,1.517,1.744a43.312,43.312,0,0,1,23.4-17" transform="translate(-1.873 -0.304)" class="deco-fill" fill="#FFFFFF"></path> <path id="パス_32591" data-name="パス 32591" d="M28.188,0h0a3.27,3.27,0,0,1,2.776,1.144A3.3,3.3,0,0,1,31.4,3.863a.908.908,0,0,1-.633.628A40.7,40.7,0,0,0,19.17,9.95a42.054,42.054,0,0,0-11.3,11.176.908.908,0,0,1-1.424.1c-.462-.512-1.008-1.123-1.545-1.775a.908.908,0,0,1-.086-1.029A44.771,44.771,0,0,1,14.382,6.6,30.472,30.472,0,0,1,24.4.761,12.326,12.326,0,0,1,28.188,0ZM29.7,2.906a1.116,1.116,0,0,0-.19-.672,1.735,1.735,0,0,0-1.325-.418,10.6,10.6,0,0,0-3.205.665,28.67,28.67,0,0,0-9.42,5.5,42.58,42.58,0,0,0-8.85,10.8q.165.193.327.378A43.968,43.968,0,0,1,18.154,8.445,42.076,42.076,0,0,1,29.7,2.906Z" transform="translate(-1.873 -0.304)" class="deco-outline" fill="#E383A8"></path> <path id="パス_32592" data-name="パス 32592" d="M37.9,6.971a2.925,2.925,0,0,0-2.034-2.542c-1.834-.689-4.581.28-4.581.28a43.309,43.309,0,0,0-23.4,17q.769.857,1.568,1.681C17.581,13.563,31.63,7.755,37.9,6.971" transform="translate(-2.633 -1.397)" class="deco-fill" fill="#FFFFFF"></path> <path id="パス_32593" data-name="パス 32593" d="M34.3,3.274a5.394,5.394,0,0,1,1.884.305A3.824,3.824,0,0,1,38.81,6.96a.908.908,0,0,1-.8.913,43.2,43.2,0,0,0-13.22,4.722A48.394,48.394,0,0,0,10.152,23.968a.908.908,0,0,1-1.352.053c-.55-.568-1.085-1.142-1.592-1.706A.908.908,0,0,1,7.134,21.2,43.863,43.863,0,0,1,18.914,9.538a41.681,41.681,0,0,1,12.1-5.7A11.264,11.264,0,0,1,34.3,3.274Zm2.445,2.957a2.249,2.249,0,0,0-1.2-.952A3.584,3.584,0,0,0,34.3,5.09a9.43,9.43,0,0,0-2.714.476l-.062.019a40.687,40.687,0,0,0-11.6,5.458A42.12,42.12,0,0,0,9.042,21.633q.184.2.372.4A51.09,51.09,0,0,1,23.953,10.985,49.037,49.037,0,0,1,36.748,6.231Z" transform="translate(-2.633 -1.397)" class="deco-outline" fill="#E383A8"></path> <path id="パス_32594" data-name="パス 32594" d="M41.933,8.543A5.461,5.461,0,0,0,38.689,8.3c-6.272.784-20.321,6.592-28.45,16.418q.976,1.007,1.98,1.994a81.686,81.686,0,0,1,7.412-5.82C24.574,17.3,32.7,14.388,35.272,13.7c3.368-.892,6.537-1.328,7.186-1.865a2.13,2.13,0,0,0-.525-3.294" transform="translate(-3.42 -2.724)" class="deco-fill" fill="#FFFFFF"></path> <path id="パス_32595" data-name="パス 32595" d="M40.065,7.246h0a4.916,4.916,0,0,1,2.287.493,3.155,3.155,0,0,1,1.572,2.425,2.646,2.646,0,0,1-.88,2.367l-.007.006c-.543.45-1.64.7-3.873,1.188-1.111.241-2.371.515-3.66.856-2.378.633-10.434,3.479-15.34,7.044l-.08.058a80.221,80.221,0,0,0-7.249,5.694.908.908,0,0,1-1.252-.017c-.619-.605-1.272-1.263-2-2.011a.908.908,0,0,1-.048-1.211,50.212,50.212,0,0,1,15.2-11.826c4.917-2.572,10.2-4.45,13.794-4.909A7.728,7.728,0,0,1,40.065,7.246Zm1.818,3.888a.887.887,0,0,0,.236-.768,1.361,1.361,0,0,0-.605-1.016,3.194,3.194,0,0,0-1.449-.288,5.811,5.811,0,0,0-1.169.12A.954.954,0,0,1,38.8,9.2a43.2,43.2,0,0,0-13.22,4.722A49.126,49.126,0,0,0,11.465,24.673q.4.411.781.788c2.04-1.8,4.344-3.481,6.77-5.247l.08-.058c5.115-3.717,13.476-6.674,15.942-7.33,1.33-.352,2.611-.63,3.741-.876A18.515,18.515,0,0,0,41.884,11.134Z" transform="translate(-3.42 -2.724)" class="deco-outline" fill="#E383A8"></path> <path id="パス_32596" data-name="パス 32596" d="M16.534,16.18c-.108,1.463-.259,2.936-.4,4.416a1.12,1.12,0,0,0,.237.827c.884,1.308,1.781,2.6,2.543,3.973a.8.8,0,0,1-.035.922,1.449,1.449,0,0,1-.859.4q-2.191.49-4.4.912c-.393.09-.447.5-.688.728Q11.673,30,10.374,31.6c-.212.2-.442.557-.794.468-.053-.1-.2-.094-.274-.16a1.812,1.812,0,0,1-.444-.6c-.816-1.322-1.59-2.694-2.355-4.011-.224-.424-.775-.383-1.169-.563-1.378-.424-2.693-.966-4.028-1.483-.21-.213-.47-.491-.385-.812a3.855,3.855,0,0,1,.557-.85c.912-1.077,1.889-2.112,2.848-3.165a2.414,2.414,0,0,0,.25-1.456c-.029-1.139.021-2.291.055-3.445a3.071,3.071,0,0,1,.176-.826.786.786,0,0,1,.613-.449,1.842,1.842,0,0,1,.73.128c1.343.573,2.655,1.185,3.953,1.813a1.415,1.415,0,0,0,.818.151c1.289-.42,2.589-.789,3.891-1.123.505-.061,1.249-.37,1.554.27a1.883,1.883,0,0,1,.163.685" transform="translate(-0.303 -4.759)" class="deco-fill" fill="#FFFFFF"></path> <path id="パス_32597" data-name="パス 32597" d="M5.532,13.339a2.567,2.567,0,0,1,.748.135l.113.033a.909.909,0,0,1,.118.041c1.184.5,2.445,1.083,3.967,1.819a1.714,1.714,0,0,0,.257.088c1.2-.388,2.46-.751,3.855-1.11a.906.906,0,0,1,.118-.022c.063-.007.15-.025.243-.043a3.834,3.834,0,0,1,.742-.092,1.569,1.569,0,0,1,1.5.916,2.788,2.788,0,0,1,.249,1.018.908.908,0,0,1,0,.124c-.081,1.1-.187,2.216-.29,3.3q-.054.567-.107,1.136v.009a.218.218,0,0,0,.056.183l.031.043.284.419c.787,1.161,1.6,2.362,2.3,3.62l0,.008a1.684,1.684,0,0,1-.141,1.942,2.135,2.135,0,0,1-1.239.672l-.091.022-.024.006c-1.378.309-2.816.607-4.278.888l-.023.038a2.316,2.316,0,0,1-.3.423c-.776,1.016-1.607,2.07-2.539,3.222a.909.909,0,0,1-.08.086c-.021.02-.052.053-.085.089a1.671,1.671,0,0,1-1.224.644,1.357,1.357,0,0,1-.336-.043.908.908,0,0,1-.336-.166,1.138,1.138,0,0,1-.29-.173,2.664,2.664,0,0,1-.657-.847c-.618-1-1.213-2.035-1.79-3.034q-.268-.464-.533-.922c-.057-.019-.148-.041-.213-.057a3.4,3.4,0,0,1-.514-.158C3.89,27.243,2.8,26.814,1.737,26.4l-.755-.295a.908.908,0,0,1-.319-.21,1.751,1.751,0,0,1-.615-1.682.907.907,0,0,1,.032-.1,3.5,3.5,0,0,1,.539-.882c.047-.06.09-.117.13-.172q.02-.027.042-.053c.7-.823,1.439-1.63,2.156-2.41q.33-.359.659-.719a2.015,2.015,0,0,0,.071-.785l0-.1c-.024-.963.007-1.94.036-2.885q.009-.3.018-.6a3.8,3.8,0,0,1,.211-1.056l.006-.02q.013-.042.03-.082a1.683,1.683,0,0,1,1.326-1A1.575,1.575,0,0,1,5.532,13.339Zm.32,1.9-.089-.026c-.043-.013-.1-.029-.146-.042a1.618,1.618,0,0,0-.075.365q0,.009,0,.017-.009.306-.019.612c-.029.92-.059,1.872-.036,2.784v.005l0,.1a3.044,3.044,0,0,1-.413,1.893.908.908,0,0,1-.076.1q-.359.394-.719.785c-.7.759-1.419,1.544-2.087,2.331-.048.065-.1.126-.141.186s-.093.121-.134.177l.478.187c1.091.427,2.121.831,3.206,1.165a.907.907,0,0,1,.111.042,1.907,1.907,0,0,0,.252.072,1.87,1.87,0,0,1,1.331.874q.277.477.556.962c.575,1,1.169,2.027,1.779,3.015q.018.028.033.058c.013.026.028.054.044.082.917-1.134,1.734-2.173,2.5-3.173a.907.907,0,0,1,.083-.094c.015-.021.046-.072.068-.11a1.626,1.626,0,0,1,1.056-.858l.032-.007c1.492-.285,2.961-.589,4.365-.9l.1-.024c.051-.012.116-.028.173-.044-.651-1.162-1.393-2.257-2.177-3.414l-.272-.4a2.011,2.011,0,0,1-.4-1.443q.053-.569.107-1.136c.1-1.049.2-2.134.282-3.19a1.172,1.172,0,0,0-.029-.17c-.087.01-.192.031-.294.051s-.2.04-.31.055c-1.372.354-2.61.712-3.783,1.094q-.04.013-.081.022a1.671,1.671,0,0,1-.367.04,2.577,2.577,0,0,1-1-.237l-.05-.022C8.229,16.3,7,15.733,5.853,15.242Z" transform="translate(-0.303 -4.759)" class="deco-outline" fill="#E383A8"></path></g></svg>